EncodeSans-CondensedLight.ufo
<glyph name="exclam" format="2">
  <advance width="400.0"/>
  <unicode hex="0021"/>
  <outline>
    <contour>
      <point x="176.0" y="316.0" type="line"/>
      <point x="224.0" y="316.0" type="line"/>
      <point x="236.0" y="890.0" type="line"/>
      <point x="236.0" y="1480.0" type="line"/>
      <point x="164.0" y="1480.0" type="line"/>
      <point x="164.0" y="890.0" type="line"/>
    </contour>
    <contour>
      <point x="200.0" y="-10.0" type="curve" smooth="yes"/>
      <point x="236.0" y="-10.0"/>
      <point x="262.0" y="14.0"/>
      <point x="262.0" y="52.0" type="curve" smooth="yes"/>
      <point x="262.0" y="90.0"/>
      <point x="236.0" y="116.0"/>
      <point x="200.0" y="116.0" type="curve" smooth="yes"/>
      <point x="164.0" y="116.0"/>
      <point x="138.0" y="90.0"/>
      <point x="138.0" y="52.0" type="curve" smooth="yes"/>
      <point x="138.0" y="14.0"/>
      <point x="164.0" y="-10.0"/>
    </contour>
  </outline>
</glyph>
<glyph name="asterisk" format="2">
  <advance width="828.0"/>
  <unicode hex="002A"/>
  <outline>
    <contour>
      <point x="440.0" y="1214.0" type="line"/>
      <point x="638.0" y="1262.0" type="line"/>
      <point x="798.0" y="1314.0" type="line"/>
      <point x="778.0" y="1374.0" type="line"/>
      <point x="620.0" y="1322.0" type="line"/>
      <point x="430.0" y="1244.0" type="line"/>
      <point x="446.0" y="1448.0" type="line"/>
      <point x="446.0" y="1616.0" type="line"/>
      <point x="382.0" y="1616.0" type="line"/>
      <point x="382.0" y="1448.0" type="line"/>
      <point x="398.0" y="1244.0" type="line"/>
      <point x="208.0" y="1322.0" type="line"/>
      <point x="50.0" y="1374.0" type="line"/>
      <point x="30.0" y="1314.0" type="line"/>
      <point x="190.0" y="1262.0" type="line"/>
      <point x="388.0" y="1214.0" type="line"/>
      <point x="256.0" y="1058.0" type="line"/>
      <point x="156.0" y="922.0" type="line"/>
      <point x="208.0" y="884.0" type="line"/>
      <point x="308.0" y="1020.0" type="line"/>
      <point x="414.0" y="1194.0" type="line"/>
      <point x="520.0" y="1020.0" type="line"/>
      <point x="620.0" y="884.0" type="line"/>
      <point x="672.0" y="922.0" type="line"/>
      <point x="572.0" y="1058.0" type="line"/>
    </contour>
  </outline>
</glyph>
<glyph name="plus" format="2">
  <advance width="1016.0"/>
  <unicode hex="002B"/>
  <outline>
    <contour>
      <point x="474.0" y="378.0" type="line"/>
      <point x="542.0" y="378.0" type="line"/>
      <point x="542.0" y="728.0" type="line"/>
      <point x="872.0" y="728.0" type="line"/>
      <point x="872.0" y="792.0" type="line"/>
      <point x="542.0" y="792.0" type="line"/>
      <point x="542.0" y="1142.0" type="line"/>
      <point x="474.0" y="1142.0" type="line"/>
      <point x="474.0" y="792.0" type="line"/>
      <point x="144.0" y="792.0" type="line"/>
      <point x="144.0" y="728.0" type="line"/>
      <point x="474.0" y="728.0" type="line"/>
    </contour>
  </outline>
</glyph>
<glyph name="four" format="2">
  <advance width="994.0"/>
  <unicode hex="0034"/>
  <outline>
    <contour>
      <point x="50.0" y="384.0" type="line"/>
      <point x="952.0" y="384.0" type="line"/>
      <point x="952.0" y="448.0" type="line"/>
      <point x="108.0" y="448.0" type="line"/>
      <point x="122.0" y="422.0" type="line"/>
      <point x="648.0" y="1480.0" type="line"/>
      <point x="574.0" y="1480.0" type="line"/>
      <point x="50.0" y="424.0" type="line"/>
    </contour>
    <contour>
      <point x="684.0" y="0.0" type="line"/>
      <point x="752.0" y="0.0" type="line"/>
      <point x="752.0" y="980.0" type="line"/>
      <point x="698.0" y="980.0" type="line"/>
      <point x="684.0" y="448.0" type="line"/>
    </contour>
  </outline>
</glyph>
<glyph name="seven" format="2">
  <advance width="784.0"/>
  <unicode hex="0037"/>
  <outline>
    <contour>
      <point x="158.0" y="0.0" type="line"/>
      <point x="228.0" y="0.0" type="line"/>
      <point x="728.0" y="1440.0" type="line"/>
      <point x="728.0" y="1480.0" type="line"/>
      <point x="8.0" y="1480.0" type="line"/>
      <point x="8.0" y="1416.0" type="line"/>
      <point x="670.0" y="1416.0" type="line"/>
      <point x="660.0" y="1442.0" type="line"/>
    </contour>
  </outline>
</glyph>
<glyph name="semicolon" format="2">
  <advance width="360.0"/>
  <unicode hex="003B"/>
  <outline>
    <contour>
      <point x="130.0" y="-300.0" type="curve"/>
      <point x="174.0" y="-300.0" type="line"/>
      <point x="212.0" y="-206.0"/>
      <point x="242.0" y="-92.0"/>
      <point x="242.0" y="32.0" type="curve" smooth="yes"/>
      <point x="242.0" y="92.0"/>
      <point x="216.0" y="116.0"/>
      <point x="178.0" y="116.0" type="curve" smooth="yes"/>
      <point x="142.0" y="116.0"/>
      <point x="118.0" y="90.0"/>
      <point x="118.0" y="54.0" type="curve" smooth="yes"/>
      <point x="118.0" y="16.0"/>
      <point x="144.0" y="-10.0"/>
      <point x="180.0" y="-10.0" type="curve" smooth="yes"/>
      <point x="192.0" y="-10.0" type="line"/>
      <point x="188.0" y="12.0" type="line"/>
      <point x="188.0" y="-90.0"/>
      <point x="166.0" y="-186.0"/>
    </contour>
    <contour>
      <point x="180.0" y="964.0" type="curve" smooth="yes"/>
      <point x="216.0" y="964.0"/>
      <point x="242.0" y="988.0"/>
      <point x="242.0" y="1026.0" type="curve" smooth="yes"/>
      <point x="242.0" y="1064.0"/>
      <point x="216.0" y="1090.0"/>
      <point x="180.0" y="1090.0" type="curve" smooth="yes"/>
      <point x="144.0" y="1090.0"/>
      <point x="118.0" y="1064.0"/>
      <point x="118.0" y="1026.0" type="curve" smooth="yes"/>
      <point x="118.0" y="988.0"/>
      <point x="144.0" y="964.0"/>
    </contour>
  </outline>
</glyph>
<glyph name="less" format="2">
  <advance width="1016.0"/>
  <unicode hex="003C"/>
  <outline>
    <contour>
      <point x="872.0" y="406.0" type="line"/>
      <point x="872.0" y="478.0" type="line"/>
      <point x="208.0" y="772.0" type="line"/>
      <point x="208.0" y="748.0" type="line"/>
      <point x="872.0" y="1042.0" type="line"/>
      <point x="872.0" y="1114.0" type="line"/>
      <point x="144.0" y="786.0" type="line"/>
      <point x="144.0" y="734.0" type="line"/>
    </contour>
  </outline>
</glyph>
<glyph name="equal" format="2">
  <advance width="1016.0"/>
  <unicode hex="003D"/>
  <outline>
    <contour>
      <point x="144.0" y="910.0" type="line"/>
      <point x="872.0" y="910.0" type="line"/>
      <point x="872.0" y="974.0" type="line"/>
      <point x="144.0" y="974.0" type="line"/>
    </contour>
    <contour>
      <point x="144.0" y="546.0" type="line"/>
      <point x="872.0" y="546.0" type="line"/>
      <point x="872.0" y="610.0" type="line"/>
      <point x="144.0" y="610.0" type="line"/>
    </contour>
  </outline>
</glyph>
<glyph name="A" format="2">
  <advance width="1130.0"/>
  <unicode hex="0041"/>
  <note>
520
</note>
  <anchor x="566.0" y="0.0" name="bottom"/>
  <anchor x="1104.0" y="0.0" name="ogonek"/>
  <anchor x="566.0" y="1520.0" name="top"/>
  <outline>
    <contour>
      <point x="26.0" y="0.0" type="line"/>
      <point x="98.0" y="0.0" type="line"/>
      <point x="576.0" y="1440.0" type="line"/>
      <point x="552.0" y="1440.0" type="line"/>
      <point x="1030.0" y="0.0" type="line"/>
      <point x="1104.0" y="0.0" type="line"/>
      <point x="608.0" y="1480.0" type="line"/>
      <point x="522.0" y="1480.0" type="line"/>
    </contour>
    <contour>
      <point x="246.0" y="528.0" type="line"/>
      <point x="884.0" y="528.0" type="line"/>
      <point x="864.0" y="594.0" type="line"/>
      <point x="266.0" y="594.0" type="line"/>
    </contour>
  </outline>
</glyph>
<glyph name="B" format="2">
  <advance width="1090.0"/>
  <unicode hex="0042"/>
  <anchor x="564.0" y="0.0" name="bottom"/>
  <anchor x="564.0" y="1480.0" name="top"/>
  <outline>
    <contour>
      <point x="448.0" y="-10.0" type="curve" smooth="yes"/>
      <point x="850.0" y="-10.0"/>
      <point x="1014.0" y="126.0"/>
      <point x="1014.0" y="390.0" type="curve" smooth="yes"/>
      <point x="1014.0" y="596.0"/>
      <point x="906.0" y="744.0"/>
      <point x="664.0" y="772.0" type="curve"/>
      <point x="664.0" y="758.0" type="line"/>
      <point x="900.0" y="792.0"/>
      <point x="972.0" y="950.0"/>
      <point x="972.0" y="1114.0" type="curve" smooth="yes"/>
      <point x="972.0" y="1374.0"/>
      <point x="824.0" y="1494.0"/>
      <point x="476.0" y="1494.0" type="curve" smooth="yes"/>
      <point x="348.0" y="1494.0"/>
      <point x="250.0" y="1482.0"/>
      <point x="164.0" y="1466.0" type="curve"/>
      <point x="164.0" y="4.0" type="line"/>
      <point x="258.0" y="-6.0"/>
      <point x="350.0" y="-10.0"/>
    </contour>
    <contour>
      <point x="450.0" y="56.0" type="curve" smooth="yes"/>
      <point x="378.0" y="56.0"/>
      <point x="302.0" y="58.0"/>
      <point x="232.0" y="66.0" type="curve"/>
      <point x="232.0" y="1410.0" type="line"/>
      <point x="302.0" y="1422.0"/>
      <point x="374.0" y="1428.0"/>
      <point x="472.0" y="1428.0" type="curve" smooth="yes"/>
      <point x="786.0" y="1428.0"/>
      <point x="902.0" y="1338.0"/>
      <point x="902.0" y="1114.0" type="curve" smooth="yes"/>
      <point x="902.0" y="912.0"/>
      <point x="806.0" y="794.0"/>
      <point x="486.0" y="794.0" type="curve" smooth="yes"/>
      <point x="216.0" y="794.0" type="line"/>
      <point x="216.0" y="728.0" type="line"/>
      <point x="526.0" y="728.0" type="line" smooth="yes"/>
      <point x="816.0" y="728.0"/>
      <point x="944.0" y="612.0"/>
      <point x="944.0" y="386.0" type="curve" smooth="yes"/>
      <point x="944.0" y="160.0"/>
      <point x="810.0" y="56.0"/>
    </contour>
  </outline>
</glyph>
<glyph name="J" format="2">
  <advance width="396.0"/>
  <unicode hex="004A"/>
  <anchor x="272.0" y="0.0" name="bottom"/>
  <anchor x="198.0" y="1520.0" name="top"/>
  <outline>
    <contour>
      <point x="44.0" y="-340.0" type="line"/>
      <point x="174.0" y="-136.0"/>
      <point x="224.0" y="22.0"/>
      <point x="232.0" y="256.0" type="curve"/>
      <point x="232.0" y="1480.0" type="line"/>
      <point x="164.0" y="1480.0" type="line"/>
      <point x="164.0" y="286.0" type="line" smooth="yes"/>
      <point x="164.0" y="36.0"/>
      <point x="114.0" y="-116.0"/>
      <point x="-6.0" y="-306.0" type="curve"/>
    </contour>
  </outline>
</glyph>
<glyph name="P" format="2">
  <advance width="1054.0"/>
  <unicode hex="0050"/>
  <outline>
    <contour>
      <point x="164.0" y="0.0" type="line"/>
      <point x="232.0" y="0.0" type="line"/>
      <point x="232.0" y="526.0" type="line"/>
      <point x="290.0" y="520.0"/>
      <point x="346.0" y="518.0"/>
      <point x="408.0" y="518.0" type="curve" smooth="yes"/>
      <point x="790.0" y="518.0"/>
      <point x="962.0" y="686.0"/>
      <point x="962.0" y="1004.0" type="curve" smooth="yes"/>
      <point x="962.0" y="1340.0"/>
      <point x="790.0" y="1494.0"/>
      <point x="450.0" y="1494.0" type="curve" smooth="yes"/>
      <point x="348.0" y="1494.0"/>
      <point x="250.0" y="1482.0"/>
      <point x="164.0" y="1468.0" type="curve"/>
    </contour>
    <contour>
      <point x="414.0" y="584.0" type="curve" smooth="yes"/>
      <point x="352.0" y="584.0"/>
      <point x="292.0" y="586.0"/>
      <point x="232.0" y="594.0" type="curve"/>
      <point x="232.0" y="1412.0" type="line"/>
      <point x="302.0" y="1422.0"/>
      <point x="374.0" y="1428.0"/>
      <point x="450.0" y="1428.0" type="curve" smooth="yes"/>
      <point x="750.0" y="1428.0"/>
      <point x="890.0" y="1300.0"/>
      <point x="890.0" y="1000.0" type="curve" smooth="yes"/>
      <point x="890.0" y="718.0"/>
      <point x="740.0" y="584.0"/>
    </contour>
  </outline>
</glyph>
<glyph name="R" format="2">
  <advance width="1122.0"/>
  <unicode hex="0052"/>
  <anchor x="596.0" y="0.0" name="bottom"/>
  <anchor x="526.0" y="1520.0" name="top"/>
  <outline>
    <contour>
      <point x="164.0" y="0.0" type="line"/>
      <point x="232.0" y="0.0" type="line"/>
      <point x="232.0" y="658.0" type="line"/>
      <point x="280.0" y="654.0"/>
      <point x="328.0" y="652.0"/>
      <point x="406.0" y="652.0" type="curve" smooth="yes"/>
      <point x="774.0" y="652.0"/>
      <point x="964.0" y="796.0"/>
      <point x="960.0" y="1080.0" type="curve" smooth="yes"/>
      <point x="960.0" y="1354.0"/>
      <point x="800.0" y="1494.0"/>
      <point x="468.0" y="1494.0" type="curve" smooth="yes"/>
      <point x="348.0" y="1494.0"/>
      <point x="254.0" y="1482.0"/>
      <point x="164.0" y="1468.0" type="curve"/>
    </contour>
    <contour>
      <point x="1000.0" y="0.0" type="line"/>
      <point x="1080.0" y="0.0" type="line"/>
      <point x="578.0" y="698.0" type="line"/>
      <point x="500.0" y="698.0" type="line"/>
    </contour>
    <contour>
      <point x="400.0" y="716.0" type="curve" smooth="yes"/>
      <point x="342.0" y="716.0"/>
      <point x="300.0" y="718.0"/>
      <point x="232.0" y="722.0" type="curve"/>
      <point x="232.0" y="1410.0" type="line"/>
      <point x="308.0" y="1422.0"/>
      <point x="374.0" y="1428.0"/>
      <point x="462.0" y="1428.0" type="curve" smooth="yes"/>
      <point x="770.0" y="1428.0"/>
      <point x="892.0" y="1314.0"/>
      <point x="892.0" y="1078.0" type="curve" smooth="yes"/>
      <point x="892.0" y="832.0"/>
      <point x="746.0" y="716.0"/>
    </contour>
  </outline>
</glyph>
<glyph name="W" format="2">
  <advance width="1772.0"/>
  <unicode hex="0057"/>
  <anchor x="888.0" y="0.0" name="bottom"/>
  <anchor x="888.0" y="1520.0" name="top"/>
  <outline>
    <contour>
      <point x="434.0" y="0.0" type="line"/>
      <point x="528.0" y="0.0" type="line"/>
      <point x="894.0" y="1430.0" type="line"/>
      <point x="880.0" y="1430.0" type="line"/>
      <point x="1244.0" y="0.0" type="line"/>
      <point x="1338.0" y="0.0" type="line"/>
      <point x="1716.0" y="1480.0" type="line"/>
      <point x="1648.0" y="1480.0" type="line"/>
      <point x="1284.0" y="40.0" type="line"/>
      <point x="1300.0" y="40.0" type="line"/>
      <point x="934.0" y="1480.0" type="line"/>
      <point x="840.0" y="1480.0" type="line"/>
      <point x="474.0" y="40.0" type="line"/>
      <point x="490.0" y="40.0" type="line"/>
      <point x="128.0" y="1480.0" type="line"/>
      <point x="56.0" y="1480.0" type="line"/>
    </contour>
  </outline>
</glyph>
<glyph name="X" format="2">
  <advance width="1076.0"/>
  <unicode hex="0058"/>
  <outline>
    <contour>
      <point x="962.0" y="0.0" type="line"/>
      <point x="1044.0" y="0.0" type="line"/>
      <point x="578.0" y="748.0" type="line"/>
      <point x="538.0" y="810.0" type="line"/>
      <point x="122.0" y="1480.0" type="line"/>
      <point x="42.0" y="1480.0" type="line"/>
      <point x="498.0" y="748.0" type="line"/>
      <point x="538.0" y="684.0" type="line"/>
    </contour>
    <contour>
      <point x="32.0" y="0.0" type="line"/>
      <point x="112.0" y="0.0" type="line"/>
      <point x="538.0" y="684.0" type="line"/>
      <point x="578.0" y="748.0" type="line"/>
      <point x="1034.0" y="1480.0" type="line"/>
      <point x="954.0" y="1480.0" type="line"/>
      <point x="538.0" y="810.0" type="line"/>
      <point x="498.0" y="748.0" type="line"/>
    </contour>
  </outline>
</glyph>
<glyph name="Z" format="2">
  <advance width="950.0"/>
  <unicode hex="005A"/>
  <anchor x="476.0" y="0.0" name="bottom"/>
  <anchor x="476.0" y="1520.0" name="top"/>
  <outline>
    <contour>
      <point x="56.0" y="0.0" type="line"/>
      <point x="894.0" y="0.0" type="line"/>
      <point x="894.0" y="64.0" type="line"/>
      <point x="114.0" y="64.0" type="line"/>
      <point x="130.0" y="38.0" type="line"/>
      <point x="884.0" y="1440.0" type="line"/>
      <point x="884.0" y="1480.0" type="line"/>
      <point x="66.0" y="1480.0" type="line"/>
      <point x="66.0" y="1416.0" type="line"/>
      <point x="826.0" y="1416.0" type="line"/>
      <point x="810.0" y="1442.0" type="line"/>
      <point x="56.0" y="40.0" type="line"/>
    </contour>
  </outline>
</glyph>
<glyph name="underscore" format="2">
  <advance width="922.0"/>
  <unicode hex="005F"/>
  <outline>
    <contour>
      <point x="90.0" y="-64.0" type="line"/>
      <point x="832.0" y="-64.0" type="line"/>
      <point x="832.0" y="0.0" type="line"/>
      <point x="90.0" y="0.0" type="line"/>
    </contour>
  </outline>
</glyph>
<glyph name="k" format="2">
  <advance width="832.0"/>
  <unicode hex="006B"/>
  <guideline x="550.0" y="552.0" angle="0.0"/>
  <anchor x="462.0" y="0.0" name="bottom"/>
  <anchor x="178.0" y="1616.0" name="top"/>
  <outline>
    <contour>
      <point x="772.0" y="0.0" type="line"/>
      <point x="856.0" y="0.0" type="line"/>
      <point x="434.0" y="564.0" type="line"/>
      <point x="434.0" y="540.0" type="line"/>
      <point x="824.0" y="1080.0" type="line"/>
      <point x="742.0" y="1080.0" type="line"/>
      <point x="360.0" y="552.0" type="line"/>
    </contour>
    <contour>
      <point x="196.0" y="520.0" type="line"/>
      <point x="400.0" y="520.0" type="line"/>
      <point x="400.0" y="584.0" type="line"/>
      <point x="196.0" y="584.0" type="line"/>
    </contour>
    <contour>
      <point x="144.0" y="0.0" type="line"/>
      <point x="212.0" y="0.0" type="line"/>
      <point x="212.0" y="1616.0" type="line"/>
      <point x="144.0" y="1616.0" type="line"/>
    </contour>
  </outline>
</glyph>
<glyph name="m" format="2">
  <advance width="1450.0"/>
  <unicode hex="006D"/>
  <anchor x="732.0" y="0.0" name="bottom"/>
  <anchor x="732.0" y="1200.0" name="top"/>
  <outline>
    <contour>
      <point x="144.0" y="0.0" type="line"/>
      <point x="212.0" y="0.0" type="line"/>
      <point x="212.0" y="844.0" type="line"/>
      <point x="284.0" y="986.0"/>
      <point x="410.0" y="1030.0"/>
      <point x="494.0" y="1030.0" type="curve" smooth="yes"/>
      <point x="612.0" y="1030.0"/>
      <point x="698.0" y="968.0"/>
      <point x="698.0" y="770.0" type="curve" smooth="yes"/>
      <point x="698.0" y="0.0" type="line"/>
      <point x="766.0" y="0.0" type="line"/>
      <point x="766.0" y="770.0" type="line" smooth="yes"/>
      <point x="766.0" y="1020.0"/>
      <point x="650.0" y="1096.0"/>
      <point x="502.0" y="1096.0" type="curve" smooth="yes"/>
      <point x="398.0" y="1096.0"/>
      <point x="296.0" y="1052.0"/>
      <point x="218.0" y="954.0" type="curve"/>
      <point x="210.0" y="954.0" type="line"/>
      <point x="204.0" y="1080.0" type="line"/>
      <point x="144.0" y="1080.0" type="line"/>
    </contour>
    <contour>
      <point x="1248.0" y="0.0" type="line"/>
      <point x="1316.0" y="0.0" type="line"/>
      <point x="1316.0" y="770.0" type="line" smooth="yes"/>
      <point x="1316.0" y="1020.0"/>
      <point x="1194.0" y="1096.0"/>
      <point x="1046.0" y="1096.0" type="curve" smooth="yes"/>
      <point x="942.0" y="1096.0"/>
      <point x="816.0" y="1052.0"/>
      <point x="722.0" y="904.0" type="curve"/>
      <point x="750.0" y="820.0" type="line"/>
      <point x="822.0" y="986.0"/>
      <point x="956.0" y="1030.0"/>
      <point x="1040.0" y="1030.0" type="curve" smooth="yes"/>
      <point x="1158.0" y="1030.0"/>
      <point x="1248.0" y="968.0"/>
      <point x="1248.0" y="770.0" type="curve" smooth="yes"/>
    </contour>
  </outline>
</glyph>
<glyph name="v" format="2">
  <advance width="858.0"/>
  <unicode hex="0076"/>
  <anchor x="430.0" y="0.0" name="bottom"/>
  <anchor x="430.0" y="1200.0" name="top"/>
  <outline>
    <contour>
      <point x="382.0" y="0.0" type="line"/>
      <point x="476.0" y="0.0" type="line"/>
      <point x="846.0" y="1080.0" type="line"/>
      <point x="770.0" y="1080.0" type="line"/>
      <point x="418.0" y="34.0" type="line"/>
      <point x="440.0" y="34.0" type="line"/>
      <point x="88.0" y="1080.0" type="line"/>
      <point x="12.0" y="1080.0" type="line"/>
    </contour>
  </outline>
</glyph>
<glyph name="x" format="2">
  <advance width="786.0"/>
  <unicode hex="0078"/>
  <anchor x="394.0" y="0.0" name="bottom"/>
  <anchor x="394.0" y="1200.0" name="top"/>
  <outline>
    <contour>
      <point x="692.0" y="0.0" type="line"/>
      <point x="772.0" y="0.0" type="line"/>
      <point x="432.0" y="546.0" type="line"/>
      <point x="394.0" y="606.0" type="line"/>
      <point x="100.0" y="1080.0" type="line"/>
      <point x="20.0" y="1080.0" type="line"/>
      <point x="354.0" y="544.0" type="line"/>
      <point x="392.0" y="486.0" type="line"/>
    </contour>
    <contour>
      <point x="16.0" y="0.0" type="line"/>
      <point x="94.0" y="0.0" type="line"/>
      <point x="392.0" y="486.0" type="line"/>
      <point x="432.0" y="546.0" type="line"/>
      <point x="766.0" y="1080.0" type="line"/>
      <point x="688.0" y="1080.0" type="line"/>
      <point x="394.0" y="606.0" type="line"/>
      <point x="354.0" y="544.0" type="line"/>
    </contour>
  </outline>
</glyph>
<glyph name="exclamdown" format="2">
  <advance width="400.0"/>
  <unicode hex="00A1"/>
  <outline>
    <contour>
      <point x="176.0" y="764.0" type="line"/>
      <point x="164.0" y="190.0" type="line"/>
      <point x="164.0" y="-380.0" type="line"/>
      <point x="236.0" y="-380.0" type="line"/>
      <point x="236.0" y="190.0" type="line"/>
      <point x="224.0" y="764.0" type="line"/>
    </contour>
    <contour>
      <point x="200.0" y="1090.0" type="curve" smooth="yes"/>
      <point x="164.0" y="1090.0"/>
      <point x="138.0" y="1066.0"/>
      <point x="138.0" y="1028.0" type="curve" smooth="yes"/>
      <point x="138.0" y="990.0"/>
      <point x="164.0" y="964.0"/>
      <point x="200.0" y="964.0" type="curve" smooth="yes"/>
      <point x="236.0" y="964.0"/>
      <point x="262.0" y="990.0"/>
      <point x="262.0" y="1028.0" type="curve" smooth="yes"/>
      <point x="262.0" y="1066.0"/>
      <point x="236.0" y="1090.0"/>
    </contour>
  </outline>
</glyph>
<glyph name="dieresis" format="2">
  <advance width="800.0"/>
  <unicode hex="00A8"/>
  <anchor x="400.0" y="1200.0" name="_top"/>
  <anchor x="400.0" y="1556.0" name="top"/>
  <outline>
    <contour>
      <point x="560.0" y="1360.0" type="curve" smooth="yes"/>
      <point x="596.0" y="1360.0"/>
      <point x="622.0" y="1384.0"/>
      <point x="622.0" y="1422.0" type="curve" smooth="yes"/>
      <point x="622.0" y="1460.0"/>
      <point x="596.0" y="1486.0"/>
      <point x="560.0" y="1486.0" type="curve" smooth="yes"/>
      <point x="524.0" y="1486.0"/>
      <point x="498.0" y="1460.0"/>
      <point x="498.0" y="1422.0" type="curve" smooth="yes"/>
      <point x="498.0" y="1384.0"/>
      <point x="524.0" y="1360.0"/>
    </contour>
    <contour>
      <point x="240.0" y="1360.0" type="curve" smooth="yes"/>
      <point x="276.0" y="1360.0"/>
      <point x="302.0" y="1384.0"/>
      <point x="302.0" y="1422.0" type="curve" smooth="yes"/>
      <point x="302.0" y="1460.0"/>
      <point x="276.0" y="1486.0"/>
      <point x="240.0" y="1486.0" type="curve" smooth="yes"/>
      <point x="204.0" y="1486.0"/>
      <point x="178.0" y="1460.0"/>
      <point x="178.0" y="1422.0" type="curve" smooth="yes"/>
      <point x="178.0" y="1384.0"/>
      <point x="204.0" y="1360.0"/>
    </contour>
  </outline>
</glyph>
<glyph name="ordfeminine" format="2">
  <advance width="716.0"/>
  <unicode hex="00AA"/>
  <outline>
    <contour>
      <point x="304.0" y="596.0" type="curve" smooth="yes"/>
      <point x="400.0" y="596.0"/>
      <point x="484.0" y="634.0"/>
      <point x="540.0" y="708.0" type="curve"/>
      <point x="546.0" y="708.0" type="line"/>
      <point x="552.0" y="610.0" type="line"/>
      <point x="608.0" y="610.0" type="line"/>
      <point x="608.0" y="1210.0" type="line" smooth="yes"/>
      <point x="608.0" y="1422.0"/>
      <point x="510.0" y="1492.0"/>
      <point x="326.0" y="1492.0" type="curve" smooth="yes"/>
      <point x="258.0" y="1492.0"/>
      <point x="174.0" y="1478.0"/>
      <point x="112.0" y="1454.0" type="curve"/>
      <point x="112.0" y="1390.0" type="line"/>
      <point x="188.0" y="1416.0"/>
      <point x="262.0" y="1430.0"/>
      <point x="322.0" y="1430.0" type="curve" smooth="yes"/>
      <point x="466.0" y="1430.0"/>
      <point x="544.0" y="1382.0"/>
      <point x="544.0" y="1214.0" type="curve" smooth="yes"/>
      <point x="544.0" y="792.0" type="line"/>
      <point x="480.0" y="692.0"/>
      <point x="390.0" y="658.0"/>
      <point x="314.0" y="658.0" type="curve" smooth="yes"/>
      <point x="198.0" y="658.0"/>
      <point x="132.0" y="716.0"/>
      <point x="132.0" y="834.0" type="curve" smooth="yes"/>
      <point x="132.0" y="944.0"/>
      <point x="198.0" y="1004.0"/>
      <point x="344.0" y="1018.0" type="curve" smooth="yes"/>
      <point x="584.0" y="1042.0" type="line"/>
      <point x="576.0" y="1102.0" type="line"/>
      <point x="344.0" y="1078.0" type="line" smooth="yes"/>
      <point x="150.0" y="1058.0"/>
      <point x="64.0" y="972.0"/>
      <point x="64.0" y="826.0" type="curve" smooth="yes"/>
      <point x="64.0" y="682.0"/>
      <point x="162.0" y="596.0"/>
    </contour>
  </outline>
</glyph>
<glyph name="registered" format="2">
  <advance width="1488.0"/>
  <unicode hex="00AE"/>
  <outline>
    <contour>
      <point x="744.0" y="268.0" type="curve" smooth="yes"/>
      <point x="1106.0" y="268.0"/>
      <point x="1354.0" y="518.0"/>
      <point x="1354.0" y="882.0" type="curve" smooth="yes"/>
      <point x="1354.0" y="1246.0"/>
      <point x="1106.0" y="1498.0"/>
      <point x="744.0" y="1498.0" type="curve" smooth="yes"/>
      <point x="382.0" y="1498.0"/>
      <point x="134.0" y="1246.0"/>
      <point x="134.0" y="882.0" type="curve" smooth="yes"/>
      <point x="134.0" y="518.0"/>
      <point x="382.0" y="268.0"/>
    </contour>
    <contour>
      <point x="922.0" y="600.0" type="line"/>
      <point x="998.0" y="600.0" type="line"/>
      <point x="822.0" y="860.0" type="line"/>
      <point x="762.0" y="834.0" type="line"/>
    </contour>
    <contour>
      <point x="744.0" y="334.0" type="curve" smooth="yes"/>
      <point x="416.0" y="334.0"/>
      <point x="202.0" y="550.0"/>
      <point x="202.0" y="882.0" type="curve" smooth="yes"/>
      <point x="202.0" y="1214.0"/>
      <point x="416.0" y="1432.0"/>
      <point x="744.0" y="1432.0" type="curve" smooth="yes"/>
      <point x="1072.0" y="1432.0"/>
      <point x="1286.0" y="1214.0"/>
      <point x="1286.0" y="882.0" type="curve" smooth="yes"/>
      <point x="1286.0" y="550.0"/>
      <point x="1072.0" y="334.0"/>
    </contour>
    <contour>
      <point x="536.0" y="600.0" type="line"/>
      <point x="602.0" y="600.0" type="line"/>
      <point x="602.0" y="826.0" type="line"/>
      <point x="730.0" y="826.0" type="line" smooth="yes"/>
      <point x="892.0" y="826.0"/>
      <point x="974.0" y="892.0"/>
      <point x="974.0" y="1008.0" type="curve" smooth="yes"/>
      <point x="974.0" y="1124.0"/>
      <point x="890.0" y="1192.0"/>
      <point x="730.0" y="1192.0" type="curve" smooth="yes"/>
      <point x="536.0" y="1192.0" type="line"/>
    </contour>
    <contour>
      <point x="602.0" y="888.0" type="line"/>
      <point x="602.0" y="1130.0" type="line"/>
      <point x="742.0" y="1130.0" type="line" smooth="yes"/>
      <point x="854.0" y="1130.0"/>
      <point x="908.0" y="1090.0"/>
      <point x="908.0" y="1008.0" type="curve" smooth="yes"/>
      <point x="908.0" y="926.0"/>
      <point x="856.0" y="888.0"/>
      <point x="742.0" y="888.0" type="curve" smooth="yes"/>
    </contour>
  </outline>
</glyph>
<glyph name="degree" format="2">
  <advance width="912.0"/>
  <unicode hex="00B0"/>
  <outline>
    <contour>
      <point x="456.0" y="852.0" type="curve" smooth="yes"/>
      <point x="644.0" y="852.0"/>
      <point x="778.0" y="988.0"/>
      <point x="778.0" y="1174.0" type="curve" smooth="yes"/>
      <point x="778.0" y="1360.0"/>
      <point x="644.0" y="1496.0"/>
      <point x="456.0" y="1496.0" type="curve" smooth="yes"/>
      <point x="268.0" y="1496.0"/>
      <point x="134.0" y="1360.0"/>
      <point x="134.0" y="1174.0" type="curve" smooth="yes"/>
      <point x="134.0" y="988.0"/>
      <point x="268.0" y="852.0"/>
    </contour>
    <contour>
      <point x="456.0" y="916.0" type="curve" smooth="yes"/>
      <point x="308.0" y="916.0"/>
      <point x="202.0" y="1016.0"/>
      <point x="202.0" y="1174.0" type="curve" smooth="yes"/>
      <point x="202.0" y="1332.0"/>
      <point x="308.0" y="1432.0"/>
      <point x="456.0" y="1432.0" type="curve" smooth="yes"/>
      <point x="604.0" y="1432.0"/>
      <point x="710.0" y="1332.0"/>
      <point x="710.0" y="1174.0" type="curve" smooth="yes"/>
      <point x="710.0" y="1016.0"/>
      <point x="604.0" y="916.0"/>
    </contour>
  </outline>
</glyph>
<glyph name="acute" format="2">
  <advance width="800.0"/>
  <unicode hex="00B4"/>
  <anchor x="400.0" y="1200.0" name="_top"/>
  <anchor x="400.0" y="1556.0" name="top"/>
  <outline>
    <contour>
      <point x="372.0" y="1264.0" type="line"/>
      <point x="428.0" y="1264.0" type="line"/>
      <point x="592.0" y="1616.0" type="line"/>
      <point x="520.0" y="1616.0" type="line"/>
    </contour>
  </outline>
</glyph>
<glyph name="guillemetright" format="2">
  <advance width="706.0"/>
  <unicode hex="00BB"/>
  <outline>
    <contour>
      <point x="70.0" y="140.0" type="line"/>
      <point x="138.0" y="140.0" type="line"/>
      <point x="326.0" y="560.0" type="line"/>
      <point x="138.0" y="980.0" type="line"/>
      <point x="70.0" y="980.0" type="line"/>
      <point x="258.0" y="560.0" type="line"/>
    </contour>
    <contour>
      <point x="340.0" y="140.0" type="line"/>
      <point x="408.0" y="140.0" type="line"/>
      <point x="596.0" y="560.0" type="line"/>
      <point x="408.0" y="980.0" type="line"/>
      <point x="340.0" y="980.0" type="line"/>
      <point x="528.0" y="560.0" type="line"/>
    </contour>
  </outline>
</glyph>
<glyph name="onequarter" format="2">
  <advance width="1544.0"/>
  <unicode hex="00BC"/>
  <outline>
    <contour>
      <point x="348.0" y="636.0" type="line"/>
      <point x="412.0" y="636.0" type="line"/>
      <point x="412.0" y="1620.0" type="line"/>
      <point x="374.0" y="1620.0" type="line"/>
      <point x="132.0" y="1434.0" type="line"/>
      <point x="132.0" y="1364.0" type="line"/>
      <point x="374.0" y="1550.0" type="line"/>
      <point x="348.0" y="1558.0" type="line"/>
    </contour>
    <contour>
      <point x="142.0" y="616.0" type="line"/>
      <point x="608.0" y="616.0" type="line"/>
      <point x="608.0" y="678.0" type="line"/>
      <point x="142.0" y="678.0" type="line"/>
    </contour>
    <contour>
      <point x="380.0" y="-136.0" type="line"/>
      <point x="446.0" y="-136.0" type="line"/>
      <point x="1164.0" y="1616.0" type="line"/>
      <point x="1098.0" y="1616.0" type="line"/>
    </contour>
    <contour>
      <point x="898.0" y="116.0" type="line"/>
      <point x="1514.0" y="116.0" type="line"/>
      <point x="1514.0" y="176.0" type="line"/>
      <point x="952.0" y="176.0" type="line"/>
      <point x="966.0" y="156.0" type="line"/>
      <point x="1310.0" y="864.0" type="line"/>
      <point x="1242.0" y="864.0" type="line"/>
      <point x="898.0" y="156.0" type="line"/>
    </contour>
    <contour>
      <point x="1320.0" y="-136.0" type="line"/>
      <point x="1382.0" y="-136.0" type="line"/>
      <point x="1382.0" y="526.0" type="line"/>
      <point x="1332.0" y="526.0" type="line"/>
      <point x="1320.0" y="176.0" type="line"/>
    </contour>
  </outline>
</glyph>
<glyph name="Iacute" format="2">
  <advance width="396.0"/>
  <unicode hex="00CD"/>
  <anchor x="198.0" y="1520.0" name="_top"/>
  <anchor x="198.0" y="0.0" name="bottom"/>
  <anchor x="232.0" y="0.0" name="ogonek"/>
  <anchor x="198.0" y="1520.0" name="top"/>
  <outline>
    <contour>
      <point x="164.0" y="0.0" type="line"/>
      <point x="232.0" y="0.0" type="line"/>
      <point x="232.0" y="1480.0" type="line"/>
      <point x="164.0" y="1480.0" type="line"/>
    </contour>
    <contour>
      <point x="170.0" y="1616.0" type="line"/>
      <point x="226.0" y="1616.0" type="line"/>
      <point x="370.0" y="1888.0" type="line"/>
      <point x="298.0" y="1888.0" type="line"/>
    </contour>
  </outline>
</glyph>
<glyph name="Icircumflex" format="2">
  <advance width="396.0"/>
  <unicode hex="00CE"/>
  <anchor x="198.0" y="1520.0" name="_top"/>
  <anchor x="198.0" y="0.0" name="bottom"/>
  <anchor x="232.0" y="0.0" name="ogonek"/>
  <anchor x="198.0" y="1520.0" name="top"/>
  <outline>
    <contour>
      <point x="164.0" y="0.0" type="line"/>
      <point x="232.0" y="0.0" type="line"/>
      <point x="232.0" y="1480.0" type="line"/>
      <point x="164.0" y="1480.0" type="line"/>
    </contour>
    <contour>
      <point x="-36.0" y="1616.0" type="line"/>
      <point x="34.0" y="1616.0" type="line"/>
      <point x="206.0" y="1858.0" type="line"/>
      <point x="190.0" y="1858.0" type="line"/>
      <point x="362.0" y="1616.0" type="line"/>
      <point x="432.0" y="1616.0" type="line"/>
      <point x="236.0" y="1888.0" type="line"/>
      <point x="160.0" y="1888.0" type="line"/>
    </contour>
  </outline>
</glyph>
<glyph name="Otilde" format="2">
  <advance width="1164.0"/>
  <unicode hex="00D5"/>
  <anchor x="582.0" y="1520.0" name="_top"/>
  <anchor x="582.0" y="0.0" name="bottom"/>
  <anchor x="582.0" y="740.0" name="center"/>
  <anchor x="722.0" y="0.0" name="ogonek"/>
  <anchor x="582.0" y="1520.0" name="top"/>
  <anchor x="38.0" y="1480.0" name="topleft"/>
  <anchor x="722.0" y="1480.0" name="topright"/>
  <outline>
    <contour>
      <point x="582.0" y="-18.0" type="curve" smooth="yes"/>
      <point x="878.0" y="-18.0"/>
      <point x="1066.0" y="182.0"/>
      <point x="1066.0" y="740.0" type="curve" smooth="yes"/>
      <point x="1066.0" y="1298.0"/>
      <point x="878.0" y="1498.0"/>
      <point x="582.0" y="1498.0" type="curve" smooth="yes"/>
      <point x="286.0" y="1498.0"/>
      <point x="98.0" y="1298.0"/>
      <point x="98.0" y="740.0" type="curve" smooth="yes"/>
      <point x="98.0" y="182.0"/>
      <point x="286.0" y="-18.0"/>
    </contour>
    <contour>
      <point x="582.0" y="48.0" type="curve" smooth="yes"/>
      <point x="334.0" y="48.0"/>
      <point x="170.0" y="206.0"/>
      <point x="170.0" y="744.0" type="curve" smooth="yes"/>
      <point x="170.0" y="1274.0"/>
      <point x="334.0" y="1432.0"/>
      <point x="582.0" y="1432.0" type="curve" smooth="yes"/>
      <point x="830.0" y="1432.0"/>
      <point x="994.0" y="1274.0"/>
      <point x="994.0" y="736.0" type="curve" smooth="yes"/>
      <point x="994.0" y="206.0"/>
      <point x="830.0" y="48.0"/>
    </contour>
    <contour>
      <point x="710.0" y="1696.0" type="curve" smooth="yes"/>
      <point x="768.0" y="1696.0"/>
      <point x="814.0" y="1720.0"/>
      <point x="844.0" y="1758.0" type="curve"/>
      <point x="844.0" y="1824.0" type="line"/>
      <point x="806.0" y="1776.0"/>
      <point x="766.0" y="1752.0"/>
      <point x="710.0" y="1752.0" type="curve" smooth="yes"/>
      <point x="628.0" y="1752.0"/>
      <point x="554.0" y="1830.0"/>
      <point x="454.0" y="1830.0" type="curve" smooth="yes"/>
      <point x="396.0" y="1830.0"/>
      <point x="350.0" y="1806.0"/>
      <point x="320.0" y="1768.0" type="curve"/>
      <point x="320.0" y="1702.0" type="line"/>
      <point x="358.0" y="1750.0"/>
      <point x="398.0" y="1774.0"/>
      <point x="454.0" y="1774.0" type="curve" smooth="yes"/>
      <point x="536.0" y="1774.0"/>
      <point x="610.0" y="1696.0"/>
    </contour>
  </outline>
</glyph>
<glyph name="Oslash" format="2">
  <advance width="1164.0"/>
  <unicode hex="00D8"/>
  <anchor x="582.0" y="740.0" name="_center"/>
  <anchor x="584.0" y="0.0" name="bottom"/>
  <anchor x="582.0" y="740.0" name="center"/>
  <anchor x="722.0" y="0.0" name="ogonek"/>
  <anchor x="584.0" y="1520.0" name="top"/>
  <anchor x="38.0" y="1480.0" name="topleft"/>
  <anchor x="722.0" y="1480.0" name="topright"/>
  <outline>
    <contour>
      <point x="582.0" y="-18.0" type="curve" smooth="yes"/>
      <point x="878.0" y="-18.0"/>
      <point x="1066.0" y="182.0"/>
      <point x="1066.0" y="740.0" type="curve" smooth="yes"/>
      <point x="1066.0" y="1298.0"/>
      <point x="878.0" y="1498.0"/>
      <point x="582.0" y="1498.0" type="curve" smooth="yes"/>
      <point x="286.0" y="1498.0"/>
      <point x="98.0" y="1298.0"/>
      <point x="98.0" y="740.0" type="curve" smooth="yes"/>
      <point x="98.0" y="182.0"/>
      <point x="286.0" y="-18.0"/>
    </contour>
    <contour>
      <point x="582.0" y="48.0" type="curve" smooth="yes"/>
      <point x="334.0" y="48.0"/>
      <point x="170.0" y="206.0"/>
      <point x="170.0" y="744.0" type="curve" smooth="yes"/>
      <point x="170.0" y="1274.0"/>
      <point x="334.0" y="1432.0"/>
      <point x="582.0" y="1432.0" type="curve" smooth="yes"/>
      <point x="830.0" y="1432.0"/>
      <point x="994.0" y="1274.0"/>
      <point x="994.0" y="736.0" type="curve" smooth="yes"/>
      <point x="994.0" y="206.0"/>
      <point x="830.0" y="48.0"/>
    </contour>
    <contour>
      <point x="162.0" y="-16.0" type="line"/>
      <point x="1056.0" y="1464.0" type="line"/>
      <point x="1002.0" y="1496.0" type="line"/>
      <point x="108.0" y="16.0" type="line"/>
    </contour>
  </outline>
</glyph>
<glyph name="germandbls" format="2">
  <advance width="1128.0"/>
  <unicode hex="00DF"/>
  <outline>
    <contour>
      <point x="728.0" y="-18.0" type="curve" smooth="yes"/>
      <point x="940.0" y="-18.0"/>
      <point x="1064.0" y="92.0"/>
      <point x="1064.0" y="278.0" type="curve" smooth="yes"/>
      <point x="1064.0" y="418.0"/>
      <point x="1010.0" y="516.0"/>
      <point x="818.0" y="570.0" type="curve" smooth="yes"/>
      <point x="726.0" y="596.0" type="line" smooth="yes"/>
      <point x="606.0" y="630.0"/>
      <point x="550.0" y="694.0"/>
      <point x="550.0" y="810.0" type="curve" smooth="yes"/>
      <point x="550.0" y="932.0"/>
      <point x="636.0" y="1030.0"/>
      <point x="820.0" y="1030.0" type="curve" smooth="yes"/>
      <point x="878.0" y="1030.0"/>
      <point x="908.0" y="1024.0"/>
      <point x="950.0" y="1014.0" type="curve"/>
      <point x="958.0" y="1050.0"/>
      <point x="972.0" y="1132.0"/>
      <point x="972.0" y="1210.0" type="curve" smooth="yes"/>
      <point x="972.0" y="1516.0"/>
      <point x="812.0" y="1636.0"/>
      <point x="598.0" y="1636.0" type="curve" smooth="yes"/>
      <point x="360.0" y="1636.0"/>
      <point x="208.0" y="1496.0"/>
      <point x="208.0" y="1172.0" type="curve" smooth="yes"/>
      <point x="208.0" y="0.0" type="line"/>
      <point x="276.0" y="0.0" type="line"/>
      <point x="276.0" y="1166.0" type="line" smooth="yes"/>
      <point x="276.0" y="1468.0"/>
      <point x="404.0" y="1570.0"/>
      <point x="600.0" y="1570.0" type="curve" smooth="yes"/>
      <point x="772.0" y="1570.0"/>
      <point x="908.0" y="1482.0"/>
      <point x="908.0" y="1208.0" type="curve" smooth="yes"/>
      <point x="908.0" y="1154.0"/>
      <point x="902.0" y="1106.0"/>
      <point x="894.0" y="1060.0" type="curve"/>
      <point x="922.0" y="1084.0" type="line"/>
      <point x="886.0" y="1092.0"/>
      <point x="846.0" y="1094.0"/>
      <point x="820.0" y="1094.0" type="curve" smooth="yes"/>
      <point x="602.0" y="1094.0"/>
      <point x="480.0" y="970.0"/>
      <point x="480.0" y="806.0" type="curve" smooth="yes"/>
      <point x="480.0" y="668.0"/>
      <point x="540.0" y="574.0"/>
      <point x="720.0" y="524.0" type="curve" smooth="yes"/>
      <point x="812.0" y="498.0" type="line" smooth="yes"/>
      <point x="930.0" y="464.0"/>
      <point x="994.0" y="406.0"/>
      <point x="994.0" y="274.0" type="curve" smooth="yes"/>
      <point x="994.0" y="128.0"/>
      <point x="896.0" y="48.0"/>
      <point x="724.0" y="48.0" type="curve" smooth="yes"/>
      <point x="654.0" y="48.0"/>
      <point x="586.0" y="58.0"/>
      <point x="498.0" y="86.0" type="curve"/>
      <point x="498.0" y="18.0" type="line"/>
      <point x="568.0" y="-6.0"/>
      <point x="644.0" y="-18.0"/>
    </contour>
    <contour>
      <point x="8.0" y="1014.0" type="line"/>
      <point x="256.0" y="1014.0" type="line"/>
      <point x="256.0" y="1080.0" type="line"/>
      <point x="8.0" y="1080.0" type="line"/>
    </contour>
  </outline>
</glyph>
<glyph name="adieresis" format="2">
  <advance width="852.0"/>
  <unicode hex="00E4"/>
  <anchor x="420.0" y="1200.0" name="_top"/>
  <anchor x="424.0" y="0.0" name="bottom"/>
  <anchor x="718.0" y="0.0" name="ogonek"/>
  <anchor x="420.0" y="1200.0" name="top"/>
  <outline>
    <contour>
      <point x="366.0" y="-16.0" type="curve" smooth="yes"/>
      <point x="480.0" y="-16.0"/>
      <point x="578.0" y="30.0"/>
      <point x="644.0" y="122.0" type="curve"/>
      <point x="652.0" y="122.0" type="line"/>
      <point x="658.0" y="0.0" type="line"/>
      <point x="718.0" y="0.0" type="line"/>
      <point x="718.0" y="754.0" type="line" smooth="yes"/>
      <point x="718.0" y="1012.0"/>
      <point x="600.0" y="1096.0"/>
      <point x="390.0" y="1096.0" type="curve" smooth="yes"/>
      <point x="310.0" y="1096.0"/>
      <point x="208.0" y="1080.0"/>
      <point x="136.0" y="1052.0" type="curve"/>
      <point x="136.0" y="984.0" type="line"/>
      <point x="226.0" y="1016.0"/>
      <point x="318.0" y="1030.0"/>
      <point x="388.0" y="1030.0" type="curve" smooth="yes"/>
      <point x="556.0" y="1030.0"/>
      <point x="650.0" y="972.0"/>
      <point x="650.0" y="756.0" type="curve" smooth="yes"/>
      <point x="650.0" y="222.0" type="line"/>
      <point x="572.0" y="90.0"/>
      <point x="464.0" y="50.0"/>
      <point x="372.0" y="50.0" type="curve" smooth="yes"/>
      <point x="234.0" y="50.0"/>
      <point x="156.0" y="120.0"/>
      <point x="156.0" y="274.0" type="curve" smooth="yes"/>
      <point x="156.0" y="414.0"/>
      <point x="234.0" y="492.0"/>
      <point x="408.0" y="510.0" type="curve" smooth="yes"/>
      <point x="696.0" y="542.0" type="line"/>
      <point x="686.0" y="608.0" type="line"/>
      <point x="410.0" y="576.0" type="line" smooth="yes"/>
      <point x="188.0" y="552.0"/>
      <point x="82.0" y="450.0"/>
      <point x="82.0" y="266.0" type="curve" smooth="yes"/>
      <point x="82.0" y="82.0"/>
      <point x="198.0" y="-16.0"/>
    </contour>
    <contour>
      <point x="580.0" y="1360.0" type="curve" smooth="yes"/>
      <point x="616.0" y="1360.0"/>
      <point x="642.0" y="1384.0"/>
      <point x="642.0" y="1422.0" type="curve" smooth="yes"/>
      <point x="642.0" y="1460.0"/>
      <point x="616.0" y="1486.0"/>
      <point x="580.0" y="1486.0" type="curve" smooth="yes"/>
      <point x="544.0" y="1486.0"/>
      <point x="518.0" y="1460.0"/>
      <point x="518.0" y="1422.0" type="curve" smooth="yes"/>
      <point x="518.0" y="1384.0"/>
      <point x="544.0" y="1360.0"/>
    </contour>
    <contour>
      <point x="260.0" y="1360.0" type="curve" smooth="yes"/>
      <point x="296.0" y="1360.0"/>
      <point x="322.0" y="1384.0"/>
      <point x="322.0" y="1422.0" type="curve" smooth="yes"/>
      <point x="322.0" y="1460.0"/>
      <point x="296.0" y="1486.0"/>
      <point x="260.0" y="1486.0" type="curve" smooth="yes"/>
      <point x="224.0" y="1486.0"/>
      <point x="198.0" y="1460.0"/>
      <point x="198.0" y="1422.0" type="curve" smooth="yes"/>
      <point x="198.0" y="1384.0"/>
      <point x="224.0" y="1360.0"/>
    </contour>
  </outline>
</glyph>
<glyph name="edieresis" format="2">
  <advance width="848.0"/>
  <unicode hex="00EB"/>
  <anchor x="434.0" y="1200.0" name="_top"/>
  <anchor x="434.0" y="0.0" name="bottom"/>
  <anchor x="650.0" y="0.0" name="ogonek"/>
  <anchor x="434.0" y="1200.0" name="top"/>
  <outline>
    <contour>
      <point x="496.0" y="-18.0" type="curve" smooth="yes"/>
      <point x="566.0" y="-18.0"/>
      <point x="638.0" y="-8.0"/>
      <point x="724.0" y="22.0" type="curve"/>
      <point x="724.0" y="90.0" type="line"/>
      <point x="630.0" y="60.0"/>
      <point x="562.0" y="48.0"/>
      <point x="500.0" y="48.0" type="curve" smooth="yes"/>
      <point x="276.0" y="48.0"/>
      <point x="160.0" y="164.0"/>
      <point x="160.0" y="534.0" type="curve" smooth="yes"/>
      <point x="160.0" y="552.0" type="line" smooth="yes"/>
      <point x="160.0" y="928.0"/>
      <point x="282.0" y="1030.0"/>
      <point x="438.0" y="1030.0" type="curve" smooth="yes"/>
      <point x="592.0" y="1030.0"/>
      <point x="700.0" y="928.0"/>
      <point x="700.0" y="552.0" type="curve"/>
      <point x="716.0" y="576.0" type="line"/>
      <point x="132.0" y="576.0" type="line"/>
      <point x="132.0" y="510.0" type="line"/>
      <point x="772.0" y="510.0" type="line"/>
      <point x="772.0" y="540.0" type="line" smooth="yes"/>
      <point x="772.0" y="958.0"/>
      <point x="640.0" y="1096.0"/>
      <point x="438.0" y="1096.0" type="curve" smooth="yes"/>
      <point x="238.0" y="1096.0"/>
      <point x="88.0" y="954.0"/>
      <point x="88.0" y="540.0" type="curve" smooth="yes"/>
      <point x="88.0" y="126.0"/>
      <point x="232.0" y="-18.0"/>
    </contour>
    <contour>
      <point x="594.0" y="1360.0" type="curve" smooth="yes"/>
      <point x="630.0" y="1360.0"/>
      <point x="656.0" y="1384.0"/>
      <point x="656.0" y="1422.0" type="curve" smooth="yes"/>
      <point x="656.0" y="1460.0"/>
      <point x="630.0" y="1486.0"/>
      <point x="594.0" y="1486.0" type="curve" smooth="yes"/>
      <point x="558.0" y="1486.0"/>
      <point x="532.0" y="1460.0"/>
      <point x="532.0" y="1422.0" type="curve" smooth="yes"/>
      <point x="532.0" y="1384.0"/>
      <point x="558.0" y="1360.0"/>
    </contour>
    <contour>
      <point x="274.0" y="1360.0" type="curve" smooth="yes"/>
      <point x="310.0" y="1360.0"/>
      <point x="336.0" y="1384.0"/>
      <point x="336.0" y="1422.0" type="curve" smooth="yes"/>
      <point x="336.0" y="1460.0"/>
      <point x="310.0" y="1486.0"/>
      <point x="274.0" y="1486.0" type="curve" smooth="yes"/>
      <point x="238.0" y="1486.0"/>
      <point x="212.0" y="1460.0"/>
      <point x="212.0" y="1422.0" type="curve" smooth="yes"/>
      <point x="212.0" y="1384.0"/>
      <point x="238.0" y="1360.0"/>
    </contour>
  </outline>
</glyph>
<glyph name="igrave" format="2">
  <advance width="356.0"/>
  <unicode hex="00EC"/>
  <anchor x="178.0" y="1200.0" name="_top"/>
  <anchor x="178.0" y="0.0" name="bottom"/>
  <anchor x="212.0" y="0.0" name="ogonek"/>
  <anchor x="178.0" y="1200.0" name="top"/>
  <outline>
    <contour>
      <point x="144.0" y="0.0" type="line"/>
      <point x="212.0" y="0.0" type="line"/>
      <point x="212.0" y="1080.0" type="line"/>
      <point x="144.0" y="1080.0" type="line"/>
    </contour>
    <contour>
      <point x="150.0" y="1264.0" type="line"/>
      <point x="206.0" y="1264.0" type="line"/>
      <point x="58.0" y="1616.0" type="line"/>
      <point x="-14.0" y="1616.0" type="line"/>
    </contour>
  </outline>
</glyph>
<glyph name="idieresis" format="2">
  <advance width="356.0"/>
  <unicode hex="00EF"/>
  <anchor x="178.0" y="1200.0" name="_top"/>
  <anchor x="178.0" y="0.0" name="bottom"/>
  <anchor x="212.0" y="0.0" name="ogonek"/>
  <anchor x="178.0" y="1200.0" name="top"/>
  <outline>
    <contour>
      <point x="144.0" y="0.0" type="line"/>
      <point x="212.0" y="0.0" type="line"/>
      <point x="212.0" y="1080.0" type="line"/>
      <point x="144.0" y="1080.0" type="line"/>
    </contour>
    <contour>
      <point x="338.0" y="1360.0" type="curve" smooth="yes"/>
      <point x="374.0" y="1360.0"/>
      <point x="400.0" y="1384.0"/>
      <point x="400.0" y="1422.0" type="curve" smooth="yes"/>
      <point x="400.0" y="1460.0"/>
      <point x="374.0" y="1486.0"/>
      <point x="338.0" y="1486.0" type="curve" smooth="yes"/>
      <point x="302.0" y="1486.0"/>
      <point x="276.0" y="1460.0"/>
      <point x="276.0" y="1422.0" type="curve" smooth="yes"/>
      <point x="276.0" y="1384.0"/>
      <point x="302.0" y="1360.0"/>
    </contour>
    <contour>
      <point x="18.0" y="1360.0" type="curve" smooth="yes"/>
      <point x="54.0" y="1360.0"/>
      <point x="80.0" y="1384.0"/>
      <point x="80.0" y="1422.0" type="curve" smooth="yes"/>
      <point x="80.0" y="1460.0"/>
      <point x="54.0" y="1486.0"/>
      <point x="18.0" y="1486.0" type="curve" smooth="yes"/>
      <point x="-18.0" y="1486.0"/>
      <point x="-44.0" y="1460.0"/>
      <point x="-44.0" y="1422.0" type="curve" smooth="yes"/>
      <point x="-44.0" y="1384.0"/>
      <point x="-18.0" y="1360.0"/>
    </contour>
  </outline>
</glyph>
<glyph name="otilde" format="2">
  <advance width="912.0"/>
  <unicode hex="00F5"/>
  <anchor x="456.0" y="1200.0" name="_top"/>
  <anchor x="456.0" y="0.0" name="bottom"/>
  <anchor x="456.0" y="540.0" name="center"/>
  <anchor x="578.0" y="0.0" name="ogonek"/>
  <anchor x="456.0" y="1200.0" name="top"/>
  <anchor x="570.0" y="1080.0" name="topright"/>
  <outline>
    <contour>
      <point x="456.0" y="-18.0" type="curve" smooth="yes"/>
      <point x="680.0" y="-18.0"/>
      <point x="824.0" y="132.0"/>
      <point x="824.0" y="540.0" type="curve" smooth="yes"/>
      <point x="824.0" y="948.0"/>
      <point x="676.0" y="1096.0"/>
      <point x="456.0" y="1096.0" type="curve" smooth="yes"/>
      <point x="232.0" y="1096.0"/>
      <point x="88.0" y="948.0"/>
      <point x="88.0" y="540.0" type="curve" smooth="yes"/>
      <point x="88.0" y="132.0"/>
      <point x="236.0" y="-18.0"/>
    </contour>
    <contour>
      <point x="456.0" y="48.0" type="curve" smooth="yes"/>
      <point x="276.0" y="48.0"/>
      <point x="160.0" y="160.0"/>
      <point x="160.0" y="544.0" type="curve" smooth="yes"/>
      <point x="160.0" y="920.0"/>
      <point x="276.0" y="1030.0"/>
      <point x="456.0" y="1030.0" type="curve" smooth="yes"/>
      <point x="636.0" y="1030.0"/>
      <point x="752.0" y="920.0"/>
      <point x="752.0" y="536.0" type="curve" smooth="yes"/>
      <point x="752.0" y="160.0"/>
      <point x="636.0" y="48.0"/>
    </contour>
    <contour>
      <point x="574.0" y="1380.0" type="curve" smooth="yes"/>
      <point x="630.0" y="1380.0"/>
      <point x="676.0" y="1404.0"/>
      <point x="706.0" y="1442.0" type="curve"/>
      <point x="706.0" y="1508.0" type="line"/>
      <point x="668.0" y="1460.0"/>
      <point x="628.0" y="1436.0"/>
      <point x="574.0" y="1436.0" type="curve" smooth="yes"/>
      <point x="502.0" y="1436.0"/>
      <point x="428.0" y="1514.0"/>
      <point x="338.0" y="1514.0" type="curve" smooth="yes"/>
      <point x="282.0" y="1514.0"/>
      <point x="236.0" y="1490.0"/>
      <point x="206.0" y="1452.0" type="curve"/>
      <point x="206.0" y="1386.0" type="line"/>
      <point x="244.0" y="1434.0"/>
      <point x="284.0" y="1458.0"/>
      <point x="338.0" y="1458.0" type="curve" smooth="yes"/>
      <point x="410.0" y="1458.0"/>
      <point x="484.0" y="1380.0"/>
    </contour>
  </outline>
</glyph>
<glyph name="ebreve" format="2">
  <advance width="848.0"/>
  <unicode hex="0115"/>
  <anchor x="434.0" y="1200.0" name="_top"/>
  <anchor x="434.0" y="0.0" name="bottom"/>
  <anchor x="650.0" y="0.0" name="ogonek"/>
  <anchor x="434.0" y="1200.0" name="top"/>
  <outline>
    <contour>
      <point x="496.0" y="-18.0" type="curve" smooth="yes"/>
      <point x="566.0" y="-18.0"/>
      <point x="638.0" y="-8.0"/>
      <point x="724.0" y="22.0" type="curve"/>
      <point x="724.0" y="90.0" type="line"/>
      <point x="630.0" y="60.0"/>
      <point x="562.0" y="48.0"/>
      <point x="500.0" y="48.0" type="curve" smooth="yes"/>
      <point x="276.0" y="48.0"/>
      <point x="160.0" y="164.0"/>
      <point x="160.0" y="534.0" type="curve" smooth="yes"/>
      <point x="160.0" y="552.0" type="line" smooth="yes"/>
      <point x="160.0" y="928.0"/>
      <point x="282.0" y="1030.0"/>
      <point x="438.0" y="1030.0" type="curve" smooth="yes"/>
      <point x="592.0" y="1030.0"/>
      <point x="700.0" y="928.0"/>
      <point x="700.0" y="552.0" type="curve"/>
      <point x="716.0" y="576.0" type="line"/>
      <point x="132.0" y="576.0" type="line"/>
      <point x="132.0" y="510.0" type="line"/>
      <point x="772.0" y="510.0" type="line"/>
      <point x="772.0" y="540.0" type="line" smooth="yes"/>
      <point x="772.0" y="958.0"/>
      <point x="640.0" y="1096.0"/>
      <point x="438.0" y="1096.0" type="curve" smooth="yes"/>
      <point x="238.0" y="1096.0"/>
      <point x="88.0" y="954.0"/>
      <point x="88.0" y="540.0" type="curve" smooth="yes"/>
      <point x="88.0" y="126.0"/>
      <point x="232.0" y="-18.0"/>
    </contour>
    <contour>
      <point x="436.0" y="1276.0" type="curve" smooth="yes"/>
      <point x="566.0" y="1276.0"/>
      <point x="650.0" y="1374.0"/>
      <point x="656.0" y="1588.0" type="curve"/>
      <point x="600.0" y="1588.0" type="line"/>
      <point x="594.0" y="1404.0"/>
      <point x="536.0" y="1332.0"/>
      <point x="436.0" y="1332.0" type="curve" smooth="yes"/>
      <point x="336.0" y="1332.0"/>
      <point x="278.0" y="1404.0"/>
      <point x="268.0" y="1588.0" type="curve"/>
      <point x="212.0" y="1588.0" type="line"/>
      <point x="218.0" y="1376.0"/>
      <point x="306.0" y="1276.0"/>
    </contour>
  </outline>
</glyph>
<glyph name="Gbreve" format="2">
  <advance width="1106.0"/>
  <unicode hex="011E"/>
  <anchor x="618.0" y="1520.0" name="_top"/>
  <anchor x="618.0" y="0.0" name="bottom"/>
  <anchor x="618.0" y="1520.0" name="top"/>
  <outline>
    <contour>
      <point x="732.0" y="-10.0" type="curve" smooth="yes"/>
      <point x="810.0" y="-10.0"/>
      <point x="880.0" y="-4.0"/>
      <point x="978.0" y="14.0" type="curve"/>
      <point x="978.0" y="720.0" type="line"/>
      <point x="910.0" y="720.0" type="line"/>
      <point x="910.0" y="40.0" type="line"/>
      <point x="932.0" y="76.0" type="line"/>
      <point x="868.0" y="62.0"/>
      <point x="802.0" y="56.0"/>
      <point x="732.0" y="56.0" type="curve" smooth="yes"/>
      <point x="356.0" y="56.0"/>
      <point x="170.0" y="218.0"/>
      <point x="170.0" y="738.0" type="curve" smooth="yes"/>
      <point x="170.0" y="1272.0"/>
      <point x="360.0" y="1432.0"/>
      <point x="678.0" y="1432.0" type="curve" smooth="yes"/>
      <point x="770.0" y="1432.0"/>
      <point x="860.0" y="1422.0"/>
      <point x="960.0" y="1390.0" type="curve"/>
      <point x="960.0" y="1458.0" type="line"/>
      <point x="874.0" y="1484.0"/>
      <point x="774.0" y="1498.0"/>
      <point x="684.0" y="1498.0" type="curve" smooth="yes"/>
      <point x="322.0" y="1498.0"/>
      <point x="98.0" y="1308.0"/>
      <point x="98.0" y="738.0" type="curve" smooth="yes"/>
      <point x="98.0" y="180.0"/>
      <point x="318.0" y="-10.0"/>
    </contour>
    <contour>
      <point x="620.0" y="1628.0" type="curve" smooth="yes"/>
      <point x="766.0" y="1628.0"/>
      <point x="850.0" y="1704.0"/>
      <point x="860.0" y="1860.0" type="curve"/>
      <point x="804.0" y="1860.0" type="line"/>
      <point x="794.0" y="1736.0"/>
      <point x="740.0" y="1686.0"/>
      <point x="620.0" y="1686.0" type="curve" smooth="yes"/>
      <point x="500.0" y="1686.0"/>
      <point x="446.0" y="1736.0"/>
      <point x="432.0" y="1860.0" type="curve"/>
      <point x="376.0" y="1860.0" type="line"/>
      <point x="386.0" y="1706.0"/>
      <point x="474.0" y="1628.0"/>
    </contour>
  </outline>
</glyph>
<glyph name="Gcommaaccent" format="2">
  <advance width="1106.0"/>
  <unicode hex="0122"/>
  <anchor x="618.0" y="0.0" name="_bottom"/>
  <anchor x="618.0" y="0.0" name="bottom"/>
  <anchor x="618.0" y="1520.0" name="top"/>
  <outline>
    <contour>
      <point x="732.0" y="-10.0" type="curve" smooth="yes"/>
      <point x="810.0" y="-10.0"/>
      <point x="880.0" y="-4.0"/>
      <point x="978.0" y="14.0" type="curve"/>
      <point x="978.0" y="720.0" type="line"/>
      <point x="910.0" y="720.0" type="line"/>
      <point x="910.0" y="40.0" type="line"/>
      <point x="932.0" y="76.0" type="line"/>
      <point x="868.0" y="62.0"/>
      <point x="802.0" y="56.0"/>
      <point x="732.0" y="56.0" type="curve" smooth="yes"/>
      <point x="356.0" y="56.0"/>
      <point x="170.0" y="218.0"/>
      <point x="170.0" y="738.0" type="curve" smooth="yes"/>
      <point x="170.0" y="1272.0"/>
      <point x="360.0" y="1432.0"/>
      <point x="678.0" y="1432.0" type="curve" smooth="yes"/>
      <point x="770.0" y="1432.0"/>
      <point x="860.0" y="1422.0"/>
      <point x="960.0" y="1390.0" type="curve"/>
      <point x="960.0" y="1458.0" type="line"/>
      <point x="874.0" y="1484.0"/>
      <point x="774.0" y="1498.0"/>
      <point x="684.0" y="1498.0" type="curve" smooth="yes"/>
      <point x="322.0" y="1498.0"/>
      <point x="98.0" y="1308.0"/>
      <point x="98.0" y="738.0" type="curve" smooth="yes"/>
      <point x="98.0" y="180.0"/>
      <point x="318.0" y="-10.0"/>
    </contour>
    <contour>
      <point x="592.0" y="-448.0" type="curve"/>
      <point x="636.0" y="-448.0" type="line"/>
      <point x="666.0" y="-386.0"/>
      <point x="680.0" y="-318.0"/>
      <point x="680.0" y="-270.0" type="curve" smooth="yes"/>
      <point x="680.0" y="-212.0"/>
      <point x="654.0" y="-184.0"/>
      <point x="614.0" y="-184.0" type="curve" smooth="yes"/>
      <point x="580.0" y="-184.0"/>
      <point x="556.0" y="-210.0"/>
      <point x="556.0" y="-246.0" type="curve" smooth="yes"/>
      <point x="556.0" y="-284.0"/>
      <point x="582.0" y="-310.0"/>
      <point x="618.0" y="-310.0" type="curve" smooth="yes"/>
      <point x="630.0" y="-310.0" type="line"/>
      <point x="626.0" y="-278.0" type="line"/>
      <point x="626.0" y="-326.0"/>
      <point x="620.0" y="-376.0"/>
    </contour>
  </outline>
</glyph>
<glyph name="Ibreve" format="2">
  <advance width="396.0"/>
  <unicode hex="012C"/>
  <anchor x="198.0" y="1520.0" name="_top"/>
  <anchor x="198.0" y="0.0" name="bottom"/>
  <anchor x="232.0" y="0.0" name="ogonek"/>
  <anchor x="198.0" y="1520.0" name="top"/>
  <outline>
    <contour>
      <point x="164.0" y="0.0" type="line"/>
      <point x="232.0" y="0.0" type="line"/>
      <point x="232.0" y="1480.0" type="line"/>
      <point x="164.0" y="1480.0" type="line"/>
    </contour>
    <contour>
      <point x="200.0" y="1628.0" type="curve" smooth="yes"/>
      <point x="346.0" y="1628.0"/>
      <point x="430.0" y="1704.0"/>
      <point x="440.0" y="1860.0" type="curve"/>
      <point x="384.0" y="1860.0" type="line"/>
      <point x="374.0" y="1736.0"/>
      <point x="320.0" y="1686.0"/>
      <point x="200.0" y="1686.0" type="curve" smooth="yes"/>
      <point x="80.0" y="1686.0"/>
      <point x="26.0" y="1736.0"/>
      <point x="12.0" y="1860.0" type="curve"/>
      <point x="-44.0" y="1860.0" type="line"/>
      <point x="-34.0" y="1706.0"/>
      <point x="54.0" y="1628.0"/>
    </contour>
  </outline>
</glyph>
<glyph name="Iogonek" format="2">
  <advance width="396.0"/>
  <unicode hex="012E"/>
  <anchor x="232.0" y="0.0" name="_ogonek"/>
  <anchor x="198.0" y="0.0" name="bottom"/>
  <anchor x="232.0" y="0.0" name="ogonek"/>
  <anchor x="198.0" y="1520.0" name="top"/>
  <outline>
    <contour>
      <point x="164.0" y="0.0" type="line"/>
      <point x="232.0" y="0.0" type="line"/>
      <point x="232.0" y="1480.0" type="line"/>
      <point x="164.0" y="1480.0" type="line"/>
    </contour>
    <contour>
      <point x="198.0" y="-400.0" type="curve" smooth="yes"/>
      <point x="246.0" y="-400.0"/>
      <point x="294.0" y="-388.0"/>
      <point x="344.0" y="-362.0" type="curve"/>
      <point x="344.0" y="-308.0" type="line"/>
      <point x="282.0" y="-338.0"/>
      <point x="238.0" y="-348.0"/>
      <point x="196.0" y="-348.0" type="curve" smooth="yes"/>
      <point x="104.0" y="-348.0"/>
      <point x="56.0" y="-310.0"/>
      <point x="56.0" y="-228.0" type="curve" smooth="yes"/>
      <point x="56.0" y="-148.0"/>
      <point x="102.0" y="-80.0"/>
      <point x="232.0" y="0.0" type="curve"/>
      <point x="204.0" y="46.0" type="line"/>
      <point x="62.0" y="-42.0"/>
      <point x="0.0" y="-128.0"/>
      <point x="0.0" y="-232.0" type="curve" smooth="yes"/>
      <point x="0.0" y="-342.0"/>
      <point x="72.0" y="-400.0"/>
    </contour>
  </outline>
</glyph>
<glyph name="Jcircumflex" format="2">
  <advance width="396.0"/>
  <unicode hex="0134"/>
  <anchor x="198.0" y="1520.0" name="_top"/>
  <anchor x="272.0" y="0.0" name="bottom"/>
  <anchor x="198.0" y="1520.0" name="top"/>
  <outline>
    <contour>
      <point x="44.0" y="-340.0" type="line"/>
      <point x="174.0" y="-136.0"/>
      <point x="224.0" y="22.0"/>
      <point x="232.0" y="256.0" type="curve"/>
      <point x="232.0" y="1480.0" type="line"/>
      <point x="164.0" y="1480.0" type="line"/>
      <point x="164.0" y="286.0" type="line" smooth="yes"/>
      <point x="164.0" y="36.0"/>
      <point x="114.0" y="-116.0"/>
      <point x="-6.0" y="-306.0" type="curve"/>
    </contour>
    <contour>
      <point x="-36.0" y="1616.0" type="line"/>
      <point x="34.0" y="1616.0" type="line"/>
      <point x="206.0" y="1858.0" type="line"/>
      <point x="190.0" y="1858.0" type="line"/>
      <point x="362.0" y="1616.0" type="line"/>
      <point x="432.0" y="1616.0" type="line"/>
      <point x="236.0" y="1888.0" type="line"/>
      <point x="160.0" y="1888.0" type="line"/>
    </contour>
  </outline>
</glyph>
<glyph name="kgreenlandic" format="2">
  <advance width="832.0"/>
  <unicode hex="0138"/>
  <outline>
    <contour>
      <point x="772.0" y="0.0" type="line"/>
      <point x="856.0" y="0.0" type="line"/>
      <point x="434.0" y="564.0" type="line"/>
      <point x="434.0" y="540.0" type="line"/>
      <point x="824.0" y="1080.0" type="line"/>
      <point x="742.0" y="1080.0" type="line"/>
      <point x="360.0" y="552.0" type="line"/>
    </contour>
    <contour>
      <point x="144.0" y="0.0" type="line"/>
      <point x="212.0" y="0.0" type="line"/>
      <point x="212.0" y="1080.0" type="line"/>
      <point x="144.0" y="1080.0" type="line"/>
    </contour>
    <contour>
      <point x="196.0" y="520.0" type="line"/>
      <point x="400.0" y="520.0" type="line"/>
      <point x="400.0" y="584.0" type="line"/>
      <point x="196.0" y="584.0" type="line"/>
    </contour>
  </outline>
</glyph>
<glyph name="lacute" format="2">
  <advance width="356.0"/>
  <unicode hex="013A"/>
  <anchor x="178.0" y="1616.0" name="_top"/>
  <anchor x="178.0" y="0.0" name="bottom"/>
  <anchor x="312.0" y="1616.0" name="caronalt"/>
  <anchor x="350.0" y="794.0" name="periodcentered"/>
  <anchor x="178.0" y="714.0" name="slash"/>
  <anchor x="178.0" y="1616.0" name="top"/>
  <outline>
    <contour>
      <point x="144.0" y="0.0" type="line"/>
      <point x="212.0" y="0.0" type="line"/>
      <point x="212.0" y="1616.0" type="line"/>
      <point x="144.0" y="1616.0" type="line"/>
    </contour>
    <contour>
      <point x="150.0" y="1712.0" type="line"/>
      <point x="206.0" y="1712.0" type="line"/>
      <point x="350.0" y="1984.0" type="line"/>
      <point x="278.0" y="1984.0" type="line"/>
    </contour>
  </outline>
</glyph>
<glyph name="lcaron" format="2">
  <advance width="356.0"/>
  <unicode hex="013E"/>
  <anchor x="312.0" y="1616.0" name="_caronalt"/>
  <anchor x="178.0" y="0.0" name="bottom"/>
  <anchor x="312.0" y="1616.0" name="caronalt"/>
  <anchor x="350.0" y="794.0" name="periodcentered"/>
  <anchor x="178.0" y="714.0" name="slash"/>
  <anchor x="178.0" y="1616.0" name="top"/>
  <outline>
    <contour>
      <point x="144.0" y="0.0" type="line"/>
      <point x="212.0" y="0.0" type="line"/>
      <point x="212.0" y="1616.0" type="line"/>
      <point x="144.0" y="1616.0" type="line"/>
    </contour>
    <contour>
      <point x="294.0" y="1180.0" type="curve"/>
      <point x="340.0" y="1180.0" type="line"/>
      <point x="368.0" y="1322.0"/>
      <point x="376.0" y="1486.0"/>
      <point x="376.0" y="1616.0" type="curve"/>
      <point x="312.0" y="1616.0" type="line"/>
      <point x="312.0" y="1492.0"/>
      <point x="310.0" y="1320.0"/>
    </contour>
  </outline>
</glyph>
<glyph name="Ldot" format="2">
  <advance width="890.0"/>
  <unicode hex="013F"/>
  <anchor x="640.0" y="774.0" name="_periodcentered"/>
  <anchor x="526.0" y="0.0" name="bottom"/>
  <anchor x="578.0" y="1616.0" name="caronalt"/>
  <anchor x="640.0" y="774.0" name="periodcentered"/>
  <anchor x="198.0" y="774.0" name="slash"/>
  <anchor x="198.0" y="1520.0" name="top"/>
  <outline>
    <contour>
      <point x="164.0" y="0.0" type="line"/>
      <point x="886.0" y="0.0" type="line"/>
      <point x="886.0" y="66.0" type="line"/>
      <point x="232.0" y="66.0" type="line"/>
      <point x="232.0" y="1480.0" type="line"/>
      <point x="164.0" y="1480.0" type="line"/>
    </contour>
    <contour>
      <point x="640.0" y="710.0" type="curve" smooth="yes"/>
      <point x="676.0" y="710.0"/>
      <point x="702.0" y="734.0"/>
      <point x="702.0" y="772.0" type="curve" smooth="yes"/>
      <point x="702.0" y="810.0"/>
      <point x="676.0" y="836.0"/>
      <point x="640.0" y="836.0" type="curve" smooth="yes"/>
      <point x="604.0" y="836.0"/>
      <point x="578.0" y="810.0"/>
      <point x="578.0" y="772.0" type="curve" smooth="yes"/>
      <point x="578.0" y="734.0"/>
      <point x="604.0" y="710.0"/>
    </contour>
  </outline>
</glyph>
<glyph name="Lslash" format="2">
  <advance width="890.0"/>
  <unicode hex="0141"/>
  <anchor x="198.0" y="774.0" name="_slash"/>
  <anchor x="526.0" y="0.0" name="bottom"/>
  <anchor x="578.0" y="1616.0" name="caronalt"/>
  <anchor x="640.0" y="774.0" name="periodcentered"/>
  <anchor x="198.0" y="774.0" name="slash"/>
  <anchor x="198.0" y="1520.0" name="top"/>
  <outline>
    <contour>
      <point x="164.0" y="0.0" type="line"/>
      <point x="886.0" y="0.0" type="line"/>
      <point x="886.0" y="66.0" type="line"/>
      <point x="232.0" y="66.0" type="line"/>
      <point x="232.0" y="1480.0" type="line"/>
      <point x="164.0" y="1480.0" type="line"/>
    </contour>
    <contour>
      <point x="36.0" y="568.0" type="line"/>
      <point x="508.0" y="1038.0" type="line"/>
      <point x="468.0" y="1080.0" type="line"/>
      <point x="-4.0" y="610.0" type="line"/>
    </contour>
  </outline>
</glyph>
<glyph name="lslash" format="2">
  <advance width="356.0"/>
  <unicode hex="0142"/>
  <anchor x="178.0" y="714.0" name="_slash"/>
  <anchor x="178.0" y="0.0" name="bottom"/>
  <anchor x="312.0" y="1616.0" name="caronalt"/>
  <anchor x="350.0" y="794.0" name="periodcentered"/>
  <anchor x="178.0" y="714.0" name="slash"/>
  <anchor x="178.0" y="1616.0" name="top"/>
  <outline>
    <contour>
      <point x="144.0" y="0.0" type="line"/>
      <point x="212.0" y="0.0" type="line"/>
      <point x="212.0" y="1616.0" type="line"/>
      <point x="144.0" y="1616.0" type="line"/>
    </contour>
    <contour>
      <point x="46.0" y="542.0" type="line"/>
      <point x="350.0" y="846.0" type="line"/>
      <point x="310.0" y="886.0" type="line"/>
      <point x="6.0" y="582.0" type="line"/>
    </contour>
  </outline>
</glyph>
<glyph name="Ncommaaccent" format="2">
  <advance width="1248.0"/>
  <unicode hex="0145"/>
  <anchor x="624.0" y="0.0" name="_bottom"/>
  <anchor x="624.0" y="0.0" name="bottom"/>
  <anchor x="624.0" y="1520.0" name="top"/>
  <outline>
    <contour>
      <point x="164.0" y="0.0" type="line"/>
      <point x="230.0" y="0.0" type="line"/>
      <point x="230.0" y="1420.0" type="line"/>
      <point x="198.0" y="1420.0" type="line"/>
      <point x="1008.0" y="0.0" type="line"/>
      <point x="1084.0" y="0.0" type="line"/>
      <point x="1084.0" y="1480.0" type="line"/>
      <point x="1018.0" y="1480.0" type="line"/>
      <point x="1018.0" y="60.0" type="line"/>
      <point x="1050.0" y="60.0" type="line"/>
      <point x="240.0" y="1480.0" type="line"/>
      <point x="164.0" y="1480.0" type="line"/>
    </contour>
    <contour>
      <point x="598.0" y="-448.0" type="curve"/>
      <point x="642.0" y="-448.0" type="line"/>
      <point x="672.0" y="-386.0"/>
      <point x="686.0" y="-318.0"/>
      <point x="686.0" y="-270.0" type="curve" smooth="yes"/>
      <point x="686.0" y="-212.0"/>
      <point x="660.0" y="-184.0"/>
      <point x="620.0" y="-184.0" type="curve" smooth="yes"/>
      <point x="586.0" y="-184.0"/>
      <point x="562.0" y="-210.0"/>
      <point x="562.0" y="-246.0" type="curve" smooth="yes"/>
      <point x="562.0" y="-284.0"/>
      <point x="588.0" y="-310.0"/>
      <point x="624.0" y="-310.0" type="curve" smooth="yes"/>
      <point x="636.0" y="-310.0" type="line"/>
      <point x="632.0" y="-278.0" type="line"/>
      <point x="632.0" y="-326.0"/>
      <point x="626.0" y="-376.0"/>
    </contour>
  </outline>
</glyph>
<glyph name="napostrophe" format="2">
  <advance width="930.0"/>
  <unicode hex="0149"/>
  <anchor x="10.0" y="1200.0" name="_apostrophe"/>
  <anchor x="10.0" y="1200.0" name="apostrophe"/>
  <anchor x="470.0" y="0.0" name="bottom"/>
  <anchor x="470.0" y="1200.0" name="top"/>
  <outline>
    <contour>
      <point x="144.0" y="0.0" type="line"/>
      <point x="212.0" y="0.0" type="line"/>
      <point x="212.0" y="850.0" type="line"/>
      <point x="286.0" y="986.0"/>
      <point x="418.0" y="1030.0"/>
      <point x="510.0" y="1030.0" type="curve" smooth="yes"/>
      <point x="640.0" y="1030.0"/>
      <point x="728.0" y="968.0"/>
      <point x="728.0" y="774.0" type="curve" smooth="yes"/>
      <point x="728.0" y="0.0" type="line"/>
      <point x="796.0" y="0.0" type="line"/>
      <point x="796.0" y="776.0" type="line" smooth="yes"/>
      <point x="796.0" y="1020.0"/>
      <point x="674.0" y="1096.0"/>
      <point x="514.0" y="1096.0" type="curve" smooth="yes"/>
      <point x="396.0" y="1096.0"/>
      <point x="292.0" y="1044.0"/>
      <point x="218.0" y="956.0" type="curve"/>
      <point x="210.0" y="956.0" type="line"/>
      <point x="204.0" y="1080.0" type="line"/>
      <point x="144.0" y="1080.0" type="line"/>
    </contour>
    <contour>
      <point x="46.0" y="1360.0" type="curve"/>
      <point x="90.0" y="1360.0" type="line"/>
      <point x="120.0" y="1422.0"/>
      <point x="134.0" y="1490.0"/>
      <point x="134.0" y="1538.0" type="curve" smooth="yes"/>
      <point x="134.0" y="1596.0"/>
      <point x="108.0" y="1624.0"/>
      <point x="68.0" y="1624.0" type="curve" smooth="yes"/>
      <point x="34.0" y="1624.0"/>
      <point x="10.0" y="1598.0"/>
      <point x="10.0" y="1562.0" type="curve" smooth="yes"/>
      <point x="10.0" y="1524.0"/>
      <point x="36.0" y="1498.0"/>
      <point x="72.0" y="1498.0" type="curve" smooth="yes"/>
      <point x="84.0" y="1498.0" type="line"/>
      <point x="80.0" y="1530.0" type="line"/>
      <point x="80.0" y="1482.0"/>
      <point x="74.0" y="1432.0"/>
    </contour>
  </outline>
</glyph>
<glyph name="OE" format="2">
  <advance width="1658.0"/>
  <unicode hex="0152"/>
  <anchor x="934.0" y="0.0" name="bottom"/>
  <anchor x="934.0" y="1520.0" name="top"/>
  <outline>
    <contour>
      <point x="728.0" y="-10.0" type="curve" smooth="yes"/>
      <point x="832.0" y="-10.0"/>
      <point x="886.0" y="0.0"/>
      <point x="946.0" y="0.0" type="curve" smooth="yes"/>
      <point x="1624.0" y="0.0" type="line"/>
      <point x="1624.0" y="66.0" type="line"/>
      <point x="968.0" y="66.0" type="line"/>
      <point x="968.0" y="1414.0" type="line"/>
      <point x="1614.0" y="1414.0" type="line"/>
      <point x="1614.0" y="1480.0" type="line"/>
      <point x="940.0" y="1480.0" type="line" smooth="yes"/>
      <point x="882.0" y="1480.0"/>
      <point x="810.0" y="1494.0"/>
      <point x="700.0" y="1494.0" type="curve" smooth="yes"/>
      <point x="304.0" y="1494.0"/>
      <point x="98.0" y="1258.0"/>
      <point x="98.0" y="740.0" type="curve" smooth="yes"/>
      <point x="98.0" y="206.0"/>
      <point x="322.0" y="-10.0"/>
    </contour>
    <contour>
      <point x="726.0" y="56.0" type="curve" smooth="yes"/>
      <point x="358.0" y="56.0"/>
      <point x="170.0" y="246.0"/>
      <point x="170.0" y="740.0" type="curve" smooth="yes"/>
      <point x="170.0" y="1224.0"/>
      <point x="340.0" y="1428.0"/>
      <point x="704.0" y="1428.0" type="curve" smooth="yes"/>
      <point x="768.0" y="1428.0"/>
      <point x="834.0" y="1424.0"/>
      <point x="900.0" y="1414.0" type="curve"/>
      <point x="900.0" y="66.0" type="line"/>
      <point x="844.0" y="58.0"/>
      <point x="788.0" y="56.0"/>
    </contour>
    <contour>
      <point x="960.0" y="728.0" type="line"/>
      <point x="1524.0" y="728.0" type="line"/>
      <point x="1524.0" y="794.0" type="line"/>
      <point x="960.0" y="794.0" type="line"/>
    </contour>
  </outline>
</glyph>
<glyph name="oe" format="2">
  <advance width="1496.0"/>
  <unicode hex="0153"/>
  <anchor x="780.0" y="0.0" name="bottom"/>
  <anchor x="780.0" y="1200.0" name="top"/>
  <outline>
    <contour>
      <point x="452.0" y="-18.0" type="curve" smooth="yes"/>
      <point x="670.0" y="-18.0"/>
      <point x="810.0" y="132.0"/>
      <point x="810.0" y="540.0" type="curve" smooth="yes"/>
      <point x="810.0" y="948.0"/>
      <point x="666.0" y="1096.0"/>
      <point x="452.0" y="1096.0" type="curve" smooth="yes"/>
      <point x="232.0" y="1096.0"/>
      <point x="88.0" y="948.0"/>
      <point x="88.0" y="540.0" type="curve" smooth="yes"/>
      <point x="88.0" y="132.0"/>
      <point x="236.0" y="-18.0"/>
    </contour>
    <contour>
      <point x="452.0" y="48.0" type="curve" smooth="yes"/>
      <point x="276.0" y="48.0"/>
      <point x="160.0" y="160.0"/>
      <point x="160.0" y="544.0" type="curve" smooth="yes"/>
      <point x="160.0" y="920.0"/>
      <point x="276.0" y="1030.0"/>
      <point x="452.0" y="1030.0" type="curve" smooth="yes"/>
      <point x="628.0" y="1030.0"/>
      <point x="744.0" y="920.0"/>
      <point x="744.0" y="536.0" type="curve" smooth="yes"/>
      <point x="744.0" y="160.0"/>
      <point x="628.0" y="48.0"/>
    </contour>
    <contour>
      <point x="1148.0" y="-18.0" type="curve" smooth="yes"/>
      <point x="1214.0" y="-18.0"/>
      <point x="1286.0" y="-8.0"/>
      <point x="1372.0" y="22.0" type="curve"/>
      <point x="1372.0" y="90.0" type="line"/>
      <point x="1278.0" y="60.0"/>
      <point x="1210.0" y="48.0"/>
      <point x="1152.0" y="48.0" type="curve" smooth="yes"/>
      <point x="932.0" y="48.0"/>
      <point x="816.0" y="164.0"/>
      <point x="816.0" y="534.0" type="curve" smooth="yes"/>
      <point x="816.0" y="552.0" type="line" smooth="yes"/>
      <point x="816.0" y="928.0"/>
      <point x="932.0" y="1032.0"/>
      <point x="1086.0" y="1032.0" type="curve" smooth="yes"/>
      <point x="1240.0" y="1032.0"/>
      <point x="1348.0" y="934.0"/>
      <point x="1348.0" y="540.0" type="curve"/>
      <point x="1364.0" y="576.0" type="line"/>
      <point x="788.0" y="576.0" type="line"/>
      <point x="788.0" y="510.0" type="line"/>
      <point x="1420.0" y="510.0" type="line"/>
      <point x="1420.0" y="540.0" type="line" smooth="yes"/>
      <point x="1420.0" y="962.0"/>
      <point x="1288.0" y="1098.0"/>
      <point x="1086.0" y="1098.0" type="curve" smooth="yes"/>
      <point x="890.0" y="1098.0"/>
      <point x="754.0" y="960.0"/>
      <point x="754.0" y="550.0" type="curve"/>
      <point x="748.0" y="540.0" type="line"/>
      <point x="748.0" y="126.0"/>
      <point x="888.0" y="-18.0"/>
    </contour>
  </outline>
</glyph>
<glyph name="Rcommaaccent" format="2">
  <advance width="1122.0"/>
  <unicode hex="0156"/>
  <anchor x="596.0" y="0.0" name="_bottom"/>
  <anchor x="596.0" y="0.0" name="bottom"/>
  <anchor x="526.0" y="1520.0" name="top"/>
  <outline>
    <contour>
      <point x="164.0" y="0.0" type="line"/>
      <point x="232.0" y="0.0" type="line"/>
      <point x="232.0" y="658.0" type="line"/>
      <point x="280.0" y="654.0"/>
      <point x="328.0" y="652.0"/>
      <point x="406.0" y="652.0" type="curve" smooth="yes"/>
      <point x="774.0" y="652.0"/>
      <point x="964.0" y="796.0"/>
      <point x="960.0" y="1080.0" type="curve" smooth="yes"/>
      <point x="960.0" y="1354.0"/>
      <point x="800.0" y="1494.0"/>
      <point x="468.0" y="1494.0" type="curve" smooth="yes"/>
      <point x="348.0" y="1494.0"/>
      <point x="254.0" y="1482.0"/>
      <point x="164.0" y="1468.0" type="curve"/>
    </contour>
    <contour>
      <point x="1000.0" y="0.0" type="line"/>
      <point x="1080.0" y="0.0" type="line"/>
      <point x="578.0" y="698.0" type="line"/>
      <point x="500.0" y="698.0" type="line"/>
    </contour>
    <contour>
      <point x="400.0" y="716.0" type="curve" smooth="yes"/>
      <point x="342.0" y="716.0"/>
      <point x="300.0" y="718.0"/>
      <point x="232.0" y="722.0" type="curve"/>
      <point x="232.0" y="1410.0" type="line"/>
      <point x="308.0" y="1422.0"/>
      <point x="374.0" y="1428.0"/>
      <point x="462.0" y="1428.0" type="curve" smooth="yes"/>
      <point x="770.0" y="1428.0"/>
      <point x="892.0" y="1314.0"/>
      <point x="892.0" y="1078.0" type="curve" smooth="yes"/>
      <point x="892.0" y="832.0"/>
      <point x="746.0" y="716.0"/>
    </contour>
    <contour>
      <point x="570.0" y="-448.0" type="curve"/>
      <point x="614.0" y="-448.0" type="line"/>
      <point x="644.0" y="-386.0"/>
      <point x="658.0" y="-318.0"/>
      <point x="658.0" y="-270.0" type="curve" smooth="yes"/>
      <point x="658.0" y="-212.0"/>
      <point x="632.0" y="-184.0"/>
      <point x="592.0" y="-184.0" type="curve" smooth="yes"/>
      <point x="558.0" y="-184.0"/>
      <point x="534.0" y="-210.0"/>
      <point x="534.0" y="-246.0" type="curve" smooth="yes"/>
      <point x="534.0" y="-284.0"/>
      <point x="560.0" y="-310.0"/>
      <point x="596.0" y="-310.0" type="curve" smooth="yes"/>
      <point x="608.0" y="-310.0" type="line"/>
      <point x="604.0" y="-278.0" type="line"/>
      <point x="604.0" y="-326.0"/>
      <point x="598.0" y="-376.0"/>
    </contour>
  </outline>
</glyph>
<glyph name="rcaron" format="2">
  <advance width="566.0"/>
  <unicode hex="0159"/>
  <anchor x="324.0" y="1200.0" name="_top"/>
  <anchor x="178.0" y="0.0" name="bottom"/>
  <anchor x="324.0" y="1200.0" name="top"/>
  <outline>
    <contour>
      <point x="144.0" y="0.0" type="line"/>
      <point x="212.0" y="0.0" type="line"/>
      <point x="212.0" y="828.0" type="line"/>
      <point x="272.0" y="952.0"/>
      <point x="390.0" y="1018.0"/>
      <point x="500.0" y="1018.0" type="curve" smooth="yes"/>
      <point x="524.0" y="1018.0"/>
      <point x="536.0" y="1018.0"/>
      <point x="556.0" y="1016.0" type="curve"/>
      <point x="556.0" y="1084.0" type="line"/>
      <point x="544.0" y="1086.0"/>
      <point x="526.0" y="1088.0"/>
      <point x="502.0" y="1088.0" type="curve" smooth="yes"/>
      <point x="394.0" y="1088.0"/>
      <point x="288.0" y="1036.0"/>
      <point x="218.0" y="934.0" type="curve"/>
      <point x="210.0" y="934.0" type="line"/>
      <point x="204.0" y="1080.0" type="line"/>
      <point x="144.0" y="1080.0" type="line"/>
    </contour>
    <contour>
      <point x="286.0" y="1264.0" type="line"/>
      <point x="362.0" y="1264.0" type="line"/>
      <point x="538.0" y="1616.0" type="line"/>
      <point x="474.0" y="1616.0" type="line"/>
      <point x="316.0" y="1290.0" type="line"/>
      <point x="332.0" y="1290.0" type="line"/>
      <point x="174.0" y="1616.0" type="line"/>
      <point x="110.0" y="1616.0" type="line"/>
    </contour>
  </outline>
</glyph>
<glyph name="Utilde" format="2">
  <advance width="1198.0"/>
  <unicode hex="0168"/>
  <anchor x="600.0" y="1520.0" name="_top"/>
  <anchor x="600.0" y="0.0" name="bottom"/>
  <anchor x="718.0" y="0.0" name="ogonek"/>
  <anchor x="600.0" y="1520.0" name="top"/>
  <anchor x="976.0" y="1480.0" name="topright"/>
  <outline>
    <contour>
      <point x="600.0" y="-18.0" type="curve" smooth="yes"/>
      <point x="912.0" y="-18.0"/>
      <point x="1042.0" y="146.0"/>
      <point x="1042.0" y="492.0" type="curve" smooth="yes"/>
      <point x="1042.0" y="1480.0" type="line"/>
      <point x="976.0" y="1480.0" type="line"/>
      <point x="976.0" y="482.0" type="line" smooth="yes"/>
      <point x="976.0" y="190.0"/>
      <point x="870.0" y="48.0"/>
      <point x="600.0" y="48.0" type="curve" smooth="yes"/>
      <point x="330.0" y="48.0"/>
      <point x="224.0" y="190.0"/>
      <point x="224.0" y="482.0" type="curve" smooth="yes"/>
      <point x="224.0" y="1480.0" type="line"/>
      <point x="156.0" y="1480.0" type="line"/>
      <point x="156.0" y="492.0" type="line" smooth="yes"/>
      <point x="156.0" y="146.0"/>
      <point x="288.0" y="-18.0"/>
    </contour>
    <contour>
      <point x="728.0" y="1696.0" type="curve" smooth="yes"/>
      <point x="786.0" y="1696.0"/>
      <point x="832.0" y="1720.0"/>
      <point x="862.0" y="1758.0" type="curve"/>
      <point x="862.0" y="1824.0" type="line"/>
      <point x="824.0" y="1776.0"/>
      <point x="784.0" y="1752.0"/>
      <point x="728.0" y="1752.0" type="curve" smooth="yes"/>
      <point x="646.0" y="1752.0"/>
      <point x="572.0" y="1830.0"/>
      <point x="472.0" y="1830.0" type="curve" smooth="yes"/>
      <point x="414.0" y="1830.0"/>
      <point x="368.0" y="1806.0"/>
      <point x="338.0" y="1768.0" type="curve"/>
      <point x="338.0" y="1702.0" type="line"/>
      <point x="376.0" y="1750.0"/>
      <point x="416.0" y="1774.0"/>
      <point x="472.0" y="1774.0" type="curve" smooth="yes"/>
      <point x="554.0" y="1774.0"/>
      <point x="628.0" y="1696.0"/>
    </contour>
  </outline>
</glyph>
<glyph name="utilde" format="2">
  <advance width="920.0"/>
  <unicode hex="0169"/>
  <anchor x="456.0" y="1200.0" name="_top"/>
  <anchor x="456.0" y="0.0" name="bottom"/>
  <anchor x="776.0" y="0.0" name="ogonek"/>
  <anchor x="456.0" y="1200.0" name="top"/>
  <anchor x="708.0" y="1080.0" name="topright"/>
  <outline>
    <contour>
      <point x="414.0" y="-18.0" type="curve" smooth="yes"/>
      <point x="518.0" y="-18.0"/>
      <point x="624.0" y="26.0"/>
      <point x="702.0" y="120.0" type="curve"/>
      <point x="710.0" y="120.0" type="line"/>
      <point x="716.0" y="0.0" type="line"/>
      <point x="776.0" y="0.0" type="line"/>
      <point x="776.0" y="1080.0" type="line"/>
      <point x="708.0" y="1080.0" type="line"/>
      <point x="708.0" y="226.0" type="line"/>
      <point x="636.0" y="92.0"/>
      <point x="504.0" y="48.0"/>
      <point x="416.0" y="48.0" type="curve" smooth="yes"/>
      <point x="290.0" y="48.0"/>
      <point x="202.0" y="110.0"/>
      <point x="202.0" y="304.0" type="curve" smooth="yes"/>
      <point x="202.0" y="1080.0" type="line"/>
      <point x="134.0" y="1080.0" type="line"/>
      <point x="134.0" y="308.0" type="line" smooth="yes"/>
      <point x="134.0" y="58.0"/>
      <point x="256.0" y="-18.0"/>
    </contour>
    <contour>
      <point x="574.0" y="1380.0" type="curve" smooth="yes"/>
      <point x="630.0" y="1380.0"/>
      <point x="676.0" y="1404.0"/>
      <point x="706.0" y="1442.0" type="curve"/>
      <point x="706.0" y="1508.0" type="line"/>
      <point x="668.0" y="1460.0"/>
      <point x="628.0" y="1436.0"/>
      <point x="574.0" y="1436.0" type="curve" smooth="yes"/>
      <point x="502.0" y="1436.0"/>
      <point x="428.0" y="1514.0"/>
      <point x="338.0" y="1514.0" type="curve" smooth="yes"/>
      <point x="282.0" y="1514.0"/>
      <point x="236.0" y="1490.0"/>
      <point x="206.0" y="1452.0" type="curve"/>
      <point x="206.0" y="1386.0" type="line"/>
      <point x="244.0" y="1434.0"/>
      <point x="284.0" y="1458.0"/>
      <point x="338.0" y="1458.0" type="curve" smooth="yes"/>
      <point x="410.0" y="1458.0"/>
      <point x="484.0" y="1380.0"/>
    </contour>
  </outline>
</glyph>
<glyph name="Uring" format="2">
  <advance width="1198.0"/>
  <unicode hex="016E"/>
  <anchor x="600.0" y="1520.0" name="_top"/>
  <anchor x="600.0" y="0.0" name="bottom"/>
  <anchor x="718.0" y="0.0" name="ogonek"/>
  <anchor x="600.0" y="1520.0" name="top"/>
  <anchor x="976.0" y="1480.0" name="topright"/>
  <outline>
    <contour>
      <point x="600.0" y="-18.0" type="curve" smooth="yes"/>
      <point x="912.0" y="-18.0"/>
      <point x="1042.0" y="146.0"/>
      <point x="1042.0" y="492.0" type="curve" smooth="yes"/>
      <point x="1042.0" y="1480.0" type="line"/>
      <point x="976.0" y="1480.0" type="line"/>
      <point x="976.0" y="482.0" type="line" smooth="yes"/>
      <point x="976.0" y="190.0"/>
      <point x="870.0" y="48.0"/>
      <point x="600.0" y="48.0" type="curve" smooth="yes"/>
      <point x="330.0" y="48.0"/>
      <point x="224.0" y="190.0"/>
      <point x="224.0" y="482.0" type="curve" smooth="yes"/>
      <point x="224.0" y="1480.0" type="line"/>
      <point x="156.0" y="1480.0" type="line"/>
      <point x="156.0" y="492.0" type="line" smooth="yes"/>
      <point x="156.0" y="146.0"/>
      <point x="288.0" y="-18.0"/>
    </contour>
    <contour>
      <point x="600.0" y="1610.0" type="curve" smooth="yes"/>
      <point x="706.0" y="1610.0"/>
      <point x="784.0" y="1688.0"/>
      <point x="784.0" y="1794.0" type="curve" smooth="yes"/>
      <point x="784.0" y="1900.0"/>
      <point x="706.0" y="1978.0"/>
      <point x="600.0" y="1978.0" type="curve" smooth="yes"/>
      <point x="494.0" y="1978.0"/>
      <point x="416.0" y="1900.0"/>
      <point x="416.0" y="1794.0" type="curve" smooth="yes"/>
      <point x="416.0" y="1688.0"/>
      <point x="494.0" y="1610.0"/>
    </contour>
    <contour>
      <point x="600.0" y="1662.0" type="curve" smooth="yes"/>
      <point x="524.0" y="1662.0"/>
      <point x="470.0" y="1712.0"/>
      <point x="470.0" y="1794.0" type="curve" smooth="yes"/>
      <point x="470.0" y="1876.0"/>
      <point x="524.0" y="1926.0"/>
      <point x="600.0" y="1926.0" type="curve" smooth="yes"/>
      <point x="676.0" y="1926.0"/>
      <point x="730.0" y="1876.0"/>
      <point x="730.0" y="1794.0" type="curve" smooth="yes"/>
      <point x="730.0" y="1712.0"/>
      <point x="676.0" y="1662.0"/>
    </contour>
  </outline>
</glyph>
<glyph name="Uogonek" format="2">
  <advance width="1198.0"/>
  <unicode hex="0172"/>
  <outline>
    <contour>
      <point x="684.0" y="-400.0" type="curve" smooth="yes"/>
      <point x="732.0" y="-400.0"/>
      <point x="780.0" y="-388.0"/>
      <point x="830.0" y="-362.0" type="curve"/>
      <point x="830.0" y="-308.0" type="line"/>
      <point x="768.0" y="-338.0"/>
      <point x="724.0" y="-348.0"/>
      <point x="682.0" y="-348.0" type="curve" smooth="yes"/>
      <point x="590.0" y="-348.0"/>
      <point x="542.0" y="-310.0"/>
      <point x="542.0" y="-228.0" type="curve" smooth="yes"/>
      <point x="542.0" y="-150.0"/>
      <point x="586.0" y="-58.0"/>
      <point x="780.0" y="6.0" type="curve" smooth="yes"/>
      <point x="982.0" y="72.0"/>
      <point x="1042.0" y="252.0"/>
      <point x="1042.0" y="492.0" type="curve" smooth="yes"/>
      <point x="1042.0" y="1480.0" type="line"/>
      <point x="976.0" y="1480.0" type="line"/>
      <point x="976.0" y="482.0" type="line" smooth="yes"/>
      <point x="976.0" y="190.0"/>
      <point x="870.0" y="48.0"/>
      <point x="600.0" y="48.0" type="curve" smooth="yes"/>
      <point x="330.0" y="48.0"/>
      <point x="224.0" y="190.0"/>
      <point x="224.0" y="482.0" type="curve" smooth="yes"/>
      <point x="224.0" y="1480.0" type="line"/>
      <point x="156.0" y="1480.0" type="line"/>
      <point x="156.0" y="492.0" type="line" smooth="yes"/>
      <point x="156.0" y="146.0"/>
      <point x="288.0" y="-18.0"/>
      <point x="600.0" y="-18.0" type="curve" smooth="yes"/>
      <point x="640.0" y="-18.0" type="line"/>
      <point x="632.0" y="-4.0" type="line"/>
      <point x="528.0" y="-66.0"/>
      <point x="486.0" y="-144.0"/>
      <point x="486.0" y="-232.0" type="curve" smooth="yes"/>
      <point x="486.0" y="-342.0"/>
      <point x="558.0" y="-400.0"/>
    </contour>
  </outline>
</glyph>
<glyph name="Zdotaccent" format="2">
  <advance width="950.0"/>
  <unicode hex="017B"/>
  <anchor x="476.0" y="1520.0" name="_top"/>
  <anchor x="476.0" y="0.0" name="bottom"/>
  <anchor x="476.0" y="1520.0" name="top"/>
  <outline>
    <contour>
      <point x="56.0" y="0.0" type="line"/>
      <point x="894.0" y="0.0" type="line"/>
      <point x="894.0" y="64.0" type="line"/>
      <point x="114.0" y="64.0" type="line"/>
      <point x="130.0" y="38.0" type="line"/>
      <point x="884.0" y="1440.0" type="line"/>
      <point x="884.0" y="1480.0" type="line"/>
      <point x="66.0" y="1480.0" type="line"/>
      <point x="66.0" y="1416.0" type="line"/>
      <point x="826.0" y="1416.0" type="line"/>
      <point x="810.0" y="1442.0" type="line"/>
      <point x="56.0" y="40.0" type="line"/>
    </contour>
    <contour>
      <point x="476.0" y="1690.0" type="curve" smooth="yes"/>
      <point x="512.0" y="1690.0"/>
      <point x="538.0" y="1714.0"/>
      <point x="538.0" y="1752.0" type="curve" smooth="yes"/>
      <point x="538.0" y="1790.0"/>
      <point x="512.0" y="1816.0"/>
      <point x="476.0" y="1816.0" type="curve" smooth="yes"/>
      <point x="440.0" y="1816.0"/>
      <point x="414.0" y="1790.0"/>
      <point x="414.0" y="1752.0" type="curve" smooth="yes"/>
      <point x="414.0" y="1714.0"/>
      <point x="440.0" y="1690.0"/>
    </contour>
  </outline>
</glyph>
<glyph name="Oogonek" format="2">
  <advance width="1164.0"/>
  <unicode hex="01EA"/>
  <outline>
    <contour>
      <point x="688.0" y="-400.0" type="curve" smooth="yes"/>
      <point x="736.0" y="-400.0"/>
      <point x="784.0" y="-388.0"/>
      <point x="834.0" y="-362.0" type="curve"/>
      <point x="834.0" y="-308.0" type="line"/>
      <point x="772.0" y="-338.0"/>
      <point x="728.0" y="-348.0"/>
      <point x="686.0" y="-348.0" type="curve" smooth="yes"/>
      <point x="594.0" y="-348.0"/>
      <point x="546.0" y="-310.0"/>
      <point x="546.0" y="-228.0" type="curve" smooth="yes"/>
      <point x="546.0" y="-140.0"/>
      <point x="608.0" y="-54.0"/>
      <point x="756.0" y="10.0" type="curve" smooth="yes"/>
      <point x="950.0" y="94.0"/>
      <point x="1066.0" y="300.0"/>
      <point x="1066.0" y="740.0" type="curve" smooth="yes"/>
      <point x="1066.0" y="1298.0"/>
      <point x="878.0" y="1498.0"/>
      <point x="582.0" y="1498.0" type="curve" smooth="yes"/>
      <point x="286.0" y="1498.0"/>
      <point x="98.0" y="1298.0"/>
      <point x="98.0" y="740.0" type="curve" smooth="yes"/>
      <point x="98.0" y="182.0"/>
      <point x="290.0" y="-18.0"/>
      <point x="582.0" y="-18.0" type="curve" smooth="yes"/>
      <point x="634.0" y="-18.0" type="line"/>
      <point x="634.0" y="-2.0" type="line"/>
      <point x="528.0" y="-68.0"/>
      <point x="488.0" y="-148.0"/>
      <point x="488.0" y="-232.0" type="curve" smooth="yes"/>
      <point x="488.0" y="-342.0"/>
      <point x="562.0" y="-400.0"/>
    </contour>
    <contour>
      <point x="582.0" y="48.0" type="curve" smooth="yes"/>
      <point x="334.0" y="48.0"/>
      <point x="170.0" y="206.0"/>
      <point x="170.0" y="744.0" type="curve" smooth="yes"/>
      <point x="170.0" y="1274.0"/>
      <point x="334.0" y="1432.0"/>
      <point x="582.0" y="1432.0" type="curve" smooth="yes"/>
      <point x="830.0" y="1432.0"/>
      <point x="994.0" y="1274.0"/>
      <point x="994.0" y="736.0" type="curve" smooth="yes"/>
      <point x="994.0" y="206.0"/>
      <point x="830.0" y="48.0"/>
    </contour>
  </outline>
</glyph>
<glyph name="Ainvertedbreve" format="2">
  <advance width="1130.0"/>
  <unicode hex="0202"/>
  <anchor x="566.0" y="1520.0" name="_top"/>
  <anchor x="566.0" y="0.0" name="bottom"/>
  <anchor x="1104.0" y="0.0" name="ogonek"/>
  <anchor x="566.0" y="1520.0" name="top"/>
  <outline>
    <contour>
      <point x="26.0" y="0.0" type="line"/>
      <point x="98.0" y="0.0" type="line"/>
      <point x="576.0" y="1440.0" type="line"/>
      <point x="552.0" y="1440.0" type="line"/>
      <point x="1030.0" y="0.0" type="line"/>
      <point x="1104.0" y="0.0" type="line"/>
      <point x="608.0" y="1480.0" type="line"/>
      <point x="522.0" y="1480.0" type="line"/>
    </contour>
    <contour>
      <point x="246.0" y="528.0" type="line"/>
      <point x="884.0" y="528.0" type="line"/>
      <point x="864.0" y="594.0" type="line"/>
      <point x="266.0" y="594.0" type="line"/>
    </contour>
    <contour>
      <point x="324.0" y="1644.0" type="curve"/>
      <point x="380.0" y="1644.0" type="line"/>
      <point x="390.0" y="1768.0"/>
      <point x="444.0" y="1818.0"/>
      <point x="564.0" y="1818.0" type="curve" smooth="yes"/>
      <point x="684.0" y="1818.0"/>
      <point x="738.0" y="1768.0"/>
      <point x="752.0" y="1644.0" type="curve"/>
      <point x="808.0" y="1644.0" type="line"/>
      <point x="798.0" y="1798.0"/>
      <point x="710.0" y="1876.0"/>
      <point x="564.0" y="1876.0" type="curve" smooth="yes"/>
      <point x="418.0" y="1876.0"/>
      <point x="334.0" y="1800.0"/>
    </contour>
  </outline>
</glyph>
<glyph name="idblgrave" format="2">
  <advance width="356.0"/>
  <unicode hex="0209"/>
  <anchor x="178.0" y="1200.0" name="_top"/>
  <anchor x="178.0" y="0.0" name="bottom"/>
  <anchor x="212.0" y="0.0" name="ogonek"/>
  <anchor x="178.0" y="1200.0" name="top"/>
  <outline>
    <contour>
      <point x="144.0" y="0.0" type="line"/>
      <point x="212.0" y="0.0" type="line"/>
      <point x="212.0" y="1080.0" type="line"/>
      <point x="144.0" y="1080.0" type="line"/>
    </contour>
    <contour>
      <point x="278.0" y="1264.0" type="line"/>
      <point x="332.0" y="1264.0" type="line"/>
      <point x="248.0" y="1616.0" type="line"/>
      <point x="182.0" y="1616.0" type="line"/>
    </contour>
    <contour>
      <point x="24.0" y="1264.0" type="line"/>
      <point x="78.0" y="1264.0" type="line"/>
      <point x="-6.0" y="1616.0" type="line"/>
      <point x="-72.0" y="1616.0" type="line"/>
    </contour>
  </outline>
</glyph>
<glyph name="tcommaaccent" format="2">
  <advance width="592.0"/>
  <unicode hex="021B"/>
  <anchor x="394.0" y="0.0" name="_bottom"/>
  <anchor x="394.0" y="0.0" name="bottom"/>
  <anchor x="468.0" y="1616.0" name="caronalt"/>
  <anchor x="200.0" y="660.0" name="stroke"/>
  <anchor x="234.0" y="1480.0" name="top"/>
  <anchor x="568.0" y="1616.0" name="topright"/>
  <outline>
    <contour>
      <point x="468.0" y="-18.0" type="curve" smooth="yes"/>
      <point x="506.0" y="-18.0"/>
      <point x="552.0" y="-12.0"/>
      <point x="588.0" y="-4.0" type="curve"/>
      <point x="588.0" y="64.0" type="line"/>
      <point x="548.0" y="54.0"/>
      <point x="508.0" y="48.0"/>
      <point x="472.0" y="48.0" type="curve" smooth="yes"/>
      <point x="336.0" y="48.0"/>
      <point x="268.0" y="108.0"/>
      <point x="268.0" y="290.0" type="curve" smooth="yes"/>
      <point x="268.0" y="1480.0" type="line"/>
      <point x="208.0" y="1480.0" type="line"/>
      <point x="200.0" y="1080.0" type="line"/>
      <point x="200.0" y="278.0" type="line" smooth="yes"/>
      <point x="200.0" y="64.0"/>
      <point x="302.0" y="-18.0"/>
    </contour>
    <contour>
      <point x="0.0" y="1016.0" type="line"/>
      <point x="568.0" y="1016.0" type="line"/>
      <point x="568.0" y="1080.0" type="line"/>
      <point x="0.0" y="1080.0" type="line"/>
    </contour>
    <contour>
      <point x="368.0" y="-448.0" type="curve"/>
      <point x="412.0" y="-448.0" type="line"/>
      <point x="442.0" y="-386.0"/>
      <point x="456.0" y="-318.0"/>
      <point x="456.0" y="-270.0" type="curve" smooth="yes"/>
      <point x="456.0" y="-212.0"/>
      <point x="430.0" y="-184.0"/>
      <point x="390.0" y="-184.0" type="curve" smooth="yes"/>
      <point x="356.0" y="-184.0"/>
      <point x="332.0" y="-210.0"/>
      <point x="332.0" y="-246.0" type="curve" smooth="yes"/>
      <point x="332.0" y="-284.0"/>
      <point x="358.0" y="-310.0"/>
      <point x="394.0" y="-310.0" type="curve" smooth="yes"/>
      <point x="406.0" y="-310.0" type="line"/>
      <point x="402.0" y="-278.0" type="line"/>
      <point x="402.0" y="-326.0"/>
      <point x="396.0" y="-376.0"/>
    </contour>
  </outline>
</glyph>
<glyph name="jdotless" format="2">
  <advance width="356.0"/>
  <unicode hex="0237"/>
  <anchor x="178.0" y="1200.0" name="top"/>
  <outline>
    <contour>
      <point x="24.0" y="-460.0" type="line"/>
      <point x="154.0" y="-256.0"/>
      <point x="212.0" y="-98.0"/>
      <point x="212.0" y="176.0" type="curve" smooth="yes"/>
      <point x="212.0" y="1080.0" type="line"/>
      <point x="144.0" y="1080.0" type="line"/>
      <point x="144.0" y="166.0" type="line" smooth="yes"/>
      <point x="144.0" y="-84.0"/>
      <point x="94.0" y="-236.0"/>
      <point x="-26.0" y="-426.0" type="curve"/>
    </contour>
  </outline>
</glyph>
<glyph name="commaturnedmod" format="2">
  <advance width="800.0"/>
  <unicode hex="02BB"/>
  <anchor x="400.0" y="1200.0" name="_top"/>
  <anchor x="400.0" y="1616.0" name="top"/>
  <outline>
    <contour>
      <point x="404.0" y="1360.0" type="curve" smooth="yes"/>
      <point x="438.0" y="1360.0"/>
      <point x="462.0" y="1386.0"/>
      <point x="462.0" y="1422.0" type="curve" smooth="yes"/>
      <point x="462.0" y="1460.0"/>
      <point x="436.0" y="1486.0"/>
      <point x="400.0" y="1486.0" type="curve" smooth="yes"/>
      <point x="388.0" y="1486.0" type="line"/>
      <point x="392.0" y="1454.0" type="line"/>
      <point x="392.0" y="1502.0"/>
      <point x="398.0" y="1552.0"/>
      <point x="426.0" y="1624.0" type="curve"/>
      <point x="382.0" y="1624.0" type="line"/>
      <point x="352.0" y="1562.0"/>
      <point x="338.0" y="1494.0"/>
      <point x="338.0" y="1446.0" type="curve" smooth="yes"/>
      <point x="338.0" y="1388.0"/>
      <point x="364.0" y="1360.0"/>
    </contour>
  </outline>
</glyph>
<glyph name="apostrophemod" format="2">
  <advance width="800.0"/>
  <unicode hex="02BC"/>
  <anchor x="400.0" y="1200.0" name="_apostrophe"/>
  <outline>
    <contour>
      <point x="436.0" y="1360.0" type="curve"/>
      <point x="480.0" y="1360.0" type="line"/>
      <point x="510.0" y="1422.0"/>
      <point x="524.0" y="1490.0"/>
      <point x="524.0" y="1538.0" type="curve" smooth="yes"/>
      <point x="524.0" y="1596.0"/>
      <point x="498.0" y="1624.0"/>
      <point x="458.0" y="1624.0" type="curve" smooth="yes"/>
      <point x="424.0" y="1624.0"/>
      <point x="400.0" y="1598.0"/>
      <point x="400.0" y="1562.0" type="curve" smooth="yes"/>
      <point x="400.0" y="1524.0"/>
      <point x="426.0" y="1498.0"/>
      <point x="462.0" y="1498.0" type="curve" smooth="yes"/>
      <point x="474.0" y="1498.0" type="line"/>
      <point x="470.0" y="1530.0" type="line"/>
      <point x="470.0" y="1482.0"/>
      <point x="464.0" y="1432.0"/>
    </contour>
  </outline>
</glyph>
<glyph name="ringhalfright" format="2">
  <advance width="800.0"/>
  <unicode hex="02BE"/>
  <anchor x="400.0" y="1200.0" name="_top"/>
  <anchor x="400.0" y="1556.0" name="top"/>
  <outline>
    <contour>
      <point x="400.0" y="1260.0" type="line"/>
      <point x="506.0" y="1260.0"/>
      <point x="584.0" y="1338.0"/>
      <point x="584.0" y="1444.0" type="curve" smooth="yes"/>
      <point x="584.0" y="1550.0"/>
      <point x="506.0" y="1628.0"/>
      <point x="400.0" y="1628.0" type="curve"/>
      <point x="400.0" y="1576.0" type="line"/>
      <point x="476.0" y="1576.0"/>
      <point x="530.0" y="1526.0"/>
      <point x="530.0" y="1444.0" type="curve" smooth="yes"/>
      <point x="530.0" y="1362.0"/>
      <point x="476.0" y="1312.0"/>
      <point x="400.0" y="1312.0" type="curve"/>
    </contour>
  </outline>
</glyph>
<glyph name="ringhalfleft" format="2">
  <advance width="800.0"/>
  <unicode hex="02BF"/>
  <anchor x="400.0" y="1200.0" name="_top"/>
  <anchor x="400.0" y="1556.0" name="top"/>
  <outline>
    <contour>
      <point x="400.0" y="1260.0" type="curve"/>
      <point x="400.0" y="1312.0" type="line"/>
      <point x="324.0" y="1312.0"/>
      <point x="270.0" y="1362.0"/>
      <point x="270.0" y="1444.0" type="curve" smooth="yes"/>
      <point x="270.0" y="1526.0"/>
      <point x="324.0" y="1576.0"/>
      <point x="400.0" y="1576.0" type="curve"/>
      <point x="400.0" y="1628.0" type="line"/>
      <point x="294.0" y="1628.0"/>
      <point x="216.0" y="1550.0"/>
      <point x="216.0" y="1444.0" type="curve" smooth="yes"/>
      <point x="216.0" y="1338.0"/>
      <point x="294.0" y="1260.0"/>
    </contour>
  </outline>
</glyph>
<glyph name="verticallinemod" format="2">
  <advance width="800.0"/>
  <unicode hex="02C8"/>
  <outline>
    <contour>
      <point x="370.0" y="1218.0" type="line"/>
      <point x="430.0" y="1218.0" type="line"/>
      <point x="430.0" y="1618.0" type="line"/>
      <point x="370.0" y="1618.0" type="line"/>
    </contour>
  </outline>
</glyph>
<glyph name="verticallinelowmod" format="2">
  <advance width="800.0"/>
  <unicode hex="02CC"/>
  <outline>
    <contour>
      <point x="370.0" y="-440.0" type="line"/>
      <point x="430.0" y="-440.0" type="line"/>
      <point x="430.0" y="-40.0" type="line"/>
      <point x="370.0" y="-40.0" type="line"/>
    </contour>
  </outline>
</glyph>
<glyph name="ogonek" format="2">
  <advance width="800.0"/>
  <unicode hex="02DB"/>
  <anchor x="400.0" y="0.0" name="_ogonek"/>
  <outline>
    <contour>
      <point x="366.0" y="-400.0" type="curve" smooth="yes"/>
      <point x="412.0" y="-400.0"/>
      <point x="462.0" y="-386.0"/>
      <point x="498.0" y="-360.0" type="curve"/>
      <point x="498.0" y="-304.0" type="line"/>
      <point x="458.0" y="-332.0"/>
      <point x="412.0" y="-348.0"/>
      <point x="364.0" y="-348.0" type="curve" smooth="yes"/>
      <point x="288.0" y="-348.0"/>
      <point x="244.0" y="-306.0"/>
      <point x="244.0" y="-228.0" type="curve" smooth="yes"/>
      <point x="244.0" y="-148.0"/>
      <point x="290.0" y="-80.0"/>
      <point x="400.0" y="0.0" type="curve"/>
      <point x="372.0" y="46.0" type="line"/>
      <point x="244.0" y="-46.0"/>
      <point x="188.0" y="-132.0"/>
      <point x="188.0" y="-232.0" type="curve" smooth="yes"/>
      <point x="188.0" y="-338.0"/>
      <point x="254.0" y="-400.0"/>
    </contour>
  </outline>
</glyph>
<glyph name="dotaccentcomb" format="2">
  <unicode hex="0307"/>
  <anchor x="400.0" y="1200.0" name="_top"/>
  <anchor x="400.0" y="1556.0" name="top"/>
  <outline>
    <contour>
      <point x="400.0" y="1360.0" type="curve" smooth="yes"/>
      <point x="436.0" y="1360.0"/>
      <point x="462.0" y="1384.0"/>
      <point x="462.0" y="1422.0" type="curve" smooth="yes"/>
      <point x="462.0" y="1460.0"/>
      <point x="436.0" y="1486.0"/>
      <point x="400.0" y="1486.0" type="curve" smooth="yes"/>
      <point x="364.0" y="1486.0"/>
      <point x="338.0" y="1460.0"/>
      <point x="338.0" y="1422.0" type="curve" smooth="yes"/>
      <point x="338.0" y="1384.0"/>
      <point x="364.0" y="1360.0"/>
    </contour>
  </outline>
</glyph>
<glyph name="hookabovecomb" format="2">
  <unicode hex="0309"/>
  <anchor x="400.0" y="1200.0" name="_top"/>
  <anchor x="400.0" y="1616.0" name="top"/>
  <outline>
    <contour>
      <point x="368.0" y="1264.0" type="curve"/>
      <point x="430.0" y="1264.0" type="line"/>
      <point x="430.0" y="1378.0"/>
      <point x="572.0" y="1372.0"/>
      <point x="572.0" y="1498.0" type="curve" smooth="yes"/>
      <point x="572.0" y="1578.0"/>
      <point x="518.0" y="1628.0"/>
      <point x="398.0" y="1628.0" type="curve" smooth="yes"/>
      <point x="350.0" y="1628.0"/>
      <point x="298.0" y="1618.0"/>
      <point x="262.0" y="1604.0" type="curve"/>
      <point x="262.0" y="1548.0" type="line"/>
      <point x="302.0" y="1564.0"/>
      <point x="358.0" y="1572.0"/>
      <point x="400.0" y="1572.0" type="curve" smooth="yes"/>
      <point x="484.0" y="1572.0"/>
      <point x="512.0" y="1546.0"/>
      <point x="512.0" y="1496.0" type="curve" smooth="yes"/>
      <point x="512.0" y="1412.0"/>
      <point x="368.0" y="1404.0"/>
    </contour>
  </outline>
</glyph>
<glyph name="caroncomb" format="2">
  <unicode hex="030C"/>
  <anchor x="400.0" y="1200.0" name="_top"/>
  <anchor x="400.0" y="1556.0" name="top"/>
  <outline>
    <contour>
      <point x="362.0" y="1264.0" type="line"/>
      <point x="438.0" y="1264.0" type="line"/>
      <point x="614.0" y="1616.0" type="line"/>
      <point x="550.0" y="1616.0" type="line"/>
      <point x="392.0" y="1290.0" type="line"/>
      <point x="408.0" y="1290.0" type="line"/>
      <point x="250.0" y="1616.0" type="line"/>
      <point x="186.0" y="1616.0" type="line"/>
    </contour>
  </outline>
</glyph>
<glyph name="dblgravecomb" format="2">
  <unicode hex="030F"/>
  <anchor x="400.0" y="1200.0" name="_top"/>
  <anchor x="400.0" y="1616.0" name="top"/>
  <outline>
    <contour>
      <point x="500.0" y="1264.0" type="line"/>
      <point x="554.0" y="1264.0" type="line"/>
      <point x="470.0" y="1616.0" type="line"/>
      <point x="404.0" y="1616.0" type="line"/>
    </contour>
    <contour>
      <point x="246.0" y="1264.0" type="line"/>
      <point x="300.0" y="1264.0" type="line"/>
      <point x="216.0" y="1616.0" type="line"/>
      <point x="150.0" y="1616.0" type="line"/>
    </contour>
  </outline>
</glyph>
<glyph name="horncomb" format="2">
  <unicode hex="031B"/>
  <anchor x="400.0" y="1480.0" name="_topright"/>
  <anchor x="600.0" y="1480.0" name="topright"/>
  <outline>
    <contour>
      <point x="400.0" y="1414.0" type="line"/>
      <point x="448.0" y="1414.0" type="line" smooth="yes"/>
      <point x="576.0" y="1414.0"/>
      <point x="676.0" y="1494.0"/>
      <point x="676.0" y="1642.0" type="curve" smooth="yes"/>
      <point x="676.0" y="1702.0"/>
      <point x="668.0" y="1740.0"/>
      <point x="652.0" y="1786.0" type="curve"/>
      <point x="586.0" y="1786.0" type="line"/>
      <point x="600.0" y="1740.0"/>
      <point x="610.0" y="1700.0"/>
      <point x="610.0" y="1644.0" type="curve" smooth="yes"/>
      <point x="610.0" y="1528.0"/>
      <point x="532.0" y="1480.0"/>
      <point x="432.0" y="1480.0" type="curve" smooth="yes"/>
      <point x="400.0" y="1480.0" type="line"/>
    </contour>
  </outline>
</glyph>
<glyph name="macronbelowcomb" format="2">
  <unicode hex="0331"/>
  <anchor x="400.0" y="0.0" name="_bottom"/>
  <anchor x="400.0" y="-440.0" name="bottom"/>
  <outline>
    <contour>
      <point x="180.0" y="-276.0" type="line"/>
      <point x="620.0" y="-276.0" type="line"/>
      <point x="620.0" y="-218.0" type="line"/>
      <point x="180.0" y="-218.0" type="line"/>
    </contour>
  </outline>
</glyph>
<glyph name="pi" format="2">
  <advance width="1114.0"/>
  <unicode hex="03C0"/>
  <outline>
    <contour>
      <point x="990.0" y="-18.0" type="curve" smooth="yes"/>
      <point x="1028.0" y="-18.0"/>
      <point x="1074.0" y="-12.0"/>
      <point x="1110.0" y="-4.0" type="curve"/>
      <point x="1110.0" y="64.0" type="line"/>
      <point x="1070.0" y="54.0"/>
      <point x="1030.0" y="48.0"/>
      <point x="994.0" y="48.0" type="curve" smooth="yes"/>
      <point x="858.0" y="48.0"/>
      <point x="790.0" y="108.0"/>
      <point x="790.0" y="290.0" type="curve" smooth="yes"/>
      <point x="790.0" y="1046.0" type="line"/>
      <point x="718.0" y="1046.0" type="line"/>
      <point x="722.0" y="278.0" type="line" smooth="yes"/>
      <point x="724.0" y="64.0"/>
      <point x="824.0" y="-18.0"/>
    </contour>
    <contour>
      <point x="200.0" y="-2.0" type="line"/>
      <point x="268.0" y="-2.0" type="line"/>
      <point x="268.0" y="1046.0" type="line"/>
      <point x="200.0" y="1046.0" type="line"/>
    </contour>
    <contour>
      <point x="0.0" y="1016.0" type="line"/>
      <point x="990.0" y="1016.0" type="line"/>
      <point x="990.0" y="1080.0" type="line"/>
      <point x="0.0" y="1080.0" type="line"/>
    </contour>
  </outline>
</glyph>
<glyph name="ddotbelow" format="2">
  <advance width="914.0"/>
  <unicode hex="1E0D"/>
  <anchor x="454.0" y="0.0" name="_bottom"/>
  <anchor x="454.0" y="0.0" name="bottom"/>
  <anchor x="870.0" y="1616.0" name="caronalt"/>
  <anchor x="454.0" y="540.0" name="center"/>
  <anchor x="770.0" y="1356.0" name="stroke"/>
  <anchor x="454.0" y="1200.0" name="top"/>
  <anchor x="868.0" y="1080.0" name="topright"/>
  <outline>
    <contour>
      <point x="446.0" y="-18.0" type="curve" smooth="yes"/>
      <point x="560.0" y="-18.0"/>
      <point x="648.0" y="40.0"/>
      <point x="696.0" y="106.0" type="curve"/>
      <point x="704.0" y="106.0" type="line"/>
      <point x="710.0" y="0.0" type="line"/>
      <point x="770.0" y="0.0" type="line"/>
      <point x="770.0" y="1616.0" type="line"/>
      <point x="702.0" y="1616.0" type="line"/>
      <point x="702.0" y="1086.0" type="line"/>
      <point x="654.0" y="1092.0"/>
      <point x="596.0" y="1096.0"/>
      <point x="548.0" y="1096.0" type="curve" smooth="yes"/>
      <point x="256.0" y="1096.0"/>
      <point x="88.0" y="924.0"/>
      <point x="88.0" y="518.0" type="curve" smooth="yes"/>
      <point x="88.0" y="102.0"/>
      <point x="254.0" y="-18.0"/>
    </contour>
    <contour>
      <point x="448.0" y="48.0" type="curve" smooth="yes"/>
      <point x="288.0" y="48.0"/>
      <point x="160.0" y="136.0"/>
      <point x="160.0" y="526.0" type="curve" smooth="yes"/>
      <point x="160.0" y="892.0"/>
      <point x="298.0" y="1030.0"/>
      <point x="546.0" y="1030.0" type="curve" smooth="yes"/>
      <point x="596.0" y="1030.0"/>
      <point x="662.0" y="1024.0"/>
      <point x="702.0" y="1016.0" type="curve"/>
      <point x="702.0" y="208.0" type="line"/>
      <point x="650.0" y="102.0"/>
      <point x="546.0" y="48.0"/>
    </contour>
    <contour>
      <point x="454.0" y="-310.0" type="curve" smooth="yes"/>
      <point x="490.0" y="-310.0"/>
      <point x="516.0" y="-286.0"/>
      <point x="516.0" y="-248.0" type="curve" smooth="yes"/>
      <point x="516.0" y="-210.0"/>
      <point x="490.0" y="-184.0"/>
      <point x="454.0" y="-184.0" type="curve" smooth="yes"/>
      <point x="418.0" y="-184.0"/>
      <point x="392.0" y="-210.0"/>
      <point x="392.0" y="-248.0" type="curve" smooth="yes"/>
      <point x="392.0" y="-286.0"/>
      <point x="418.0" y="-310.0"/>
    </contour>
  </outline>
</glyph>
<glyph name="Emacrongrave" format="2">
  <advance width="946.0"/>
  <unicode hex="1E14"/>
  <anchor x="556.0" y="0.0" name="bottom"/>
  <anchor x="832.0" y="0.0" name="ogonek"/>
  <anchor x="556.0" y="1520.0" name="top"/>
  <anchor x="36.0" y="1480.0" name="topleft"/>
  <outline>
    <contour>
      <point x="164.0" y="0.0" type="line"/>
      <point x="912.0" y="0.0" type="line"/>
      <point x="912.0" y="66.0" type="line"/>
      <point x="232.0" y="66.0" type="line"/>
      <point x="232.0" y="1414.0" type="line"/>
      <point x="902.0" y="1414.0" type="line"/>
      <point x="902.0" y="1480.0" type="line"/>
      <point x="164.0" y="1480.0" type="line"/>
    </contour>
    <contour>
      <point x="224.0" y="728.0" type="line"/>
      <point x="812.0" y="728.0" type="line"/>
      <point x="812.0" y="794.0" type="line"/>
      <point x="224.0" y="794.0" type="line"/>
    </contour>
    <contour>
      <point x="528.0" y="1884.0" type="line"/>
      <point x="584.0" y="1884.0" type="line"/>
      <point x="456.0" y="2116.0" type="line"/>
      <point x="384.0" y="2116.0" type="line"/>
    </contour>
    <component base="macroncomb.case" xOffset="156.0"/>
  </outline>
</glyph>
<glyph name="ecedillabreve" format="2">
  <advance width="848.0"/>
  <unicode hex="1E1D"/>
  <anchor x="434.0" y="0.0" name="_bottom"/>
  <anchor x="434.0" y="0.0" name="bottom"/>
  <anchor x="650.0" y="0.0" name="ogonek"/>
  <anchor x="434.0" y="1200.0" name="top"/>
  <outline>
    <contour>
      <point x="496.0" y="-18.0" type="curve" smooth="yes"/>
      <point x="566.0" y="-18.0"/>
      <point x="638.0" y="-8.0"/>
      <point x="724.0" y="22.0" type="curve"/>
      <point x="724.0" y="90.0" type="line"/>
      <point x="630.0" y="60.0"/>
      <point x="562.0" y="48.0"/>
      <point x="500.0" y="48.0" type="curve" smooth="yes"/>
      <point x="276.0" y="48.0"/>
      <point x="160.0" y="164.0"/>
      <point x="160.0" y="534.0" type="curve" smooth="yes"/>
      <point x="160.0" y="552.0" type="line" smooth="yes"/>
      <point x="160.0" y="928.0"/>
      <point x="282.0" y="1030.0"/>
      <point x="438.0" y="1030.0" type="curve" smooth="yes"/>
      <point x="592.0" y="1030.0"/>
      <point x="700.0" y="928.0"/>
      <point x="700.0" y="552.0" type="curve"/>
      <point x="716.0" y="576.0" type="line"/>
      <point x="132.0" y="576.0" type="line"/>
      <point x="132.0" y="510.0" type="line"/>
      <point x="772.0" y="510.0" type="line"/>
      <point x="772.0" y="540.0" type="line" smooth="yes"/>
      <point x="772.0" y="958.0"/>
      <point x="640.0" y="1096.0"/>
      <point x="438.0" y="1096.0" type="curve" smooth="yes"/>
      <point x="238.0" y="1096.0"/>
      <point x="88.0" y="954.0"/>
      <point x="88.0" y="540.0" type="curve" smooth="yes"/>
      <point x="88.0" y="126.0"/>
      <point x="232.0" y="-18.0"/>
    </contour>
    <contour>
      <point x="430.0" y="-400.0" type="curve" smooth="yes"/>
      <point x="536.0" y="-400.0"/>
      <point x="596.0" y="-342.0"/>
      <point x="596.0" y="-258.0" type="curve" smooth="yes"/>
      <point x="596.0" y="-170.0"/>
      <point x="542.0" y="-114.0"/>
      <point x="434.0" y="-114.0" type="curve"/>
      <point x="464.0" y="-142.0" type="line"/>
      <point x="464.0" y="20.0" type="line"/>
      <point x="408.0" y="20.0" type="line"/>
      <point x="408.0" y="-164.0" type="line"/>
      <point x="434.0" y="-164.0" type="line" smooth="yes"/>
      <point x="504.0" y="-164.0"/>
      <point x="542.0" y="-194.0"/>
      <point x="542.0" y="-258.0" type="curve" smooth="yes"/>
      <point x="542.0" y="-316.0"/>
      <point x="508.0" y="-348.0"/>
      <point x="436.0" y="-348.0" type="curve" smooth="yes"/>
      <point x="390.0" y="-348.0"/>
      <point x="340.0" y="-340.0"/>
      <point x="286.0" y="-310.0" type="curve"/>
      <point x="286.0" y="-366.0" type="line"/>
      <point x="324.0" y="-388.0"/>
      <point x="382.0" y="-400.0"/>
    </contour>
    <contour>
      <point x="436.0" y="1276.0" type="curve" smooth="yes"/>
      <point x="566.0" y="1276.0"/>
      <point x="650.0" y="1374.0"/>
      <point x="656.0" y="1588.0" type="curve"/>
      <point x="600.0" y="1588.0" type="line"/>
      <point x="594.0" y="1404.0"/>
      <point x="536.0" y="1332.0"/>
      <point x="436.0" y="1332.0" type="curve" smooth="yes"/>
      <point x="336.0" y="1332.0"/>
      <point x="278.0" y="1404.0"/>
      <point x="268.0" y="1588.0" type="curve"/>
      <point x="212.0" y="1588.0" type="line"/>
      <point x="218.0" y="1376.0"/>
      <point x="306.0" y="1276.0"/>
    </contour>
  </outline>
</glyph>
<glyph name="Ldotbelow" format="2">
  <advance width="890.0"/>
  <unicode hex="1E36"/>
  <anchor x="526.0" y="0.0" name="_bottom"/>
  <anchor x="526.0" y="0.0" name="bottom"/>
  <anchor x="578.0" y="1616.0" name="caronalt"/>
  <anchor x="640.0" y="774.0" name="periodcentered"/>
  <anchor x="198.0" y="774.0" name="slash"/>
  <anchor x="198.0" y="1520.0" name="top"/>
  <outline>
    <contour>
      <point x="164.0" y="0.0" type="line"/>
      <point x="886.0" y="0.0" type="line"/>
      <point x="886.0" y="66.0" type="line"/>
      <point x="232.0" y="66.0" type="line"/>
      <point x="232.0" y="1480.0" type="line"/>
      <point x="164.0" y="1480.0" type="line"/>
    </contour>
    <contour>
      <point x="526.0" y="-310.0" type="curve" smooth="yes"/>
      <point x="562.0" y="-310.0"/>
      <point x="588.0" y="-286.0"/>
      <point x="588.0" y="-248.0" type="curve" smooth="yes"/>
      <point x="588.0" y="-210.0"/>
      <point x="562.0" y="-184.0"/>
      <point x="526.0" y="-184.0" type="curve" smooth="yes"/>
      <point x="490.0" y="-184.0"/>
      <point x="464.0" y="-210.0"/>
      <point x="464.0" y="-248.0" type="curve" smooth="yes"/>
      <point x="464.0" y="-286.0"/>
      <point x="490.0" y="-310.0"/>
    </contour>
  </outline>
</glyph>
<glyph name="Ndotbelow" format="2">
  <advance width="1248.0"/>
  <unicode hex="1E46"/>
  <anchor x="624.0" y="0.0" name="_bottom"/>
  <anchor x="624.0" y="0.0" name="bottom"/>
  <anchor x="624.0" y="1520.0" name="top"/>
  <outline>
    <contour>
      <point x="164.0" y="0.0" type="line"/>
      <point x="230.0" y="0.0" type="line"/>
      <point x="230.0" y="1420.0" type="line"/>
      <point x="198.0" y="1420.0" type="line"/>
      <point x="1008.0" y="0.0" type="line"/>
      <point x="1084.0" y="0.0" type="line"/>
      <point x="1084.0" y="1480.0" type="line"/>
      <point x="1018.0" y="1480.0" type="line"/>
      <point x="1018.0" y="60.0" type="line"/>
      <point x="1050.0" y="60.0" type="line"/>
      <point x="240.0" y="1480.0" type="line"/>
      <point x="164.0" y="1480.0" type="line"/>
    </contour>
    <contour>
      <point x="624.0" y="-310.0" type="curve" smooth="yes"/>
      <point x="660.0" y="-310.0"/>
      <point x="686.0" y="-286.0"/>
      <point x="686.0" y="-248.0" type="curve" smooth="yes"/>
      <point x="686.0" y="-210.0"/>
      <point x="660.0" y="-184.0"/>
      <point x="624.0" y="-184.0" type="curve" smooth="yes"/>
      <point x="588.0" y="-184.0"/>
      <point x="562.0" y="-210.0"/>
      <point x="562.0" y="-248.0" type="curve" smooth="yes"/>
      <point x="562.0" y="-286.0"/>
      <point x="588.0" y="-310.0"/>
    </contour>
  </outline>
</glyph>
<glyph name="Otildeacute" format="2">
  <advance width="1164.0"/>
  <unicode hex="1E4C"/>
  <anchor x="582.0" y="0.0" name="bottom"/>
  <anchor x="582.0" y="740.0" name="center"/>
  <anchor x="722.0" y="0.0" name="ogonek"/>
  <anchor x="582.0" y="1520.0" name="top"/>
  <anchor x="38.0" y="1480.0" name="topleft"/>
  <anchor x="722.0" y="1480.0" name="topright"/>
  <outline>
    <contour>
      <point x="582.0" y="-18.0" type="curve" smooth="yes"/>
      <point x="878.0" y="-18.0"/>
      <point x="1066.0" y="182.0"/>
      <point x="1066.0" y="740.0" type="curve" smooth="yes"/>
      <point x="1066.0" y="1298.0"/>
      <point x="878.0" y="1498.0"/>
      <point x="582.0" y="1498.0" type="curve" smooth="yes"/>
      <point x="286.0" y="1498.0"/>
      <point x="98.0" y="1298.0"/>
      <point x="98.0" y="740.0" type="curve" smooth="yes"/>
      <point x="98.0" y="182.0"/>
      <point x="286.0" y="-18.0"/>
    </contour>
    <contour>
      <point x="582.0" y="48.0" type="curve" smooth="yes"/>
      <point x="334.0" y="48.0"/>
      <point x="170.0" y="206.0"/>
      <point x="170.0" y="744.0" type="curve" smooth="yes"/>
      <point x="170.0" y="1274.0"/>
      <point x="334.0" y="1432.0"/>
      <point x="582.0" y="1432.0" type="curve" smooth="yes"/>
      <point x="830.0" y="1432.0"/>
      <point x="994.0" y="1274.0"/>
      <point x="994.0" y="736.0" type="curve" smooth="yes"/>
      <point x="994.0" y="206.0"/>
      <point x="830.0" y="48.0"/>
    </contour>
    <contour>
      <point x="554.0" y="1884.0" type="line"/>
      <point x="610.0" y="1884.0" type="line"/>
      <point x="754.0" y="2116.0" type="line"/>
      <point x="682.0" y="2116.0" type="line"/>
    </contour>
    <component base="tildecomb.case" xOffset="182.0"/>
  </outline>
</glyph>
<glyph name="Tlinebelow" format="2">
  <advance width="980.0"/>
  <unicode hex="1E6E"/>
  <anchor x="490.0" y="0.0" name="_bottom"/>
  <anchor x="490.0" y="0.0" name="bottom"/>
  <anchor x="490.0" y="800.0" name="center"/>
  <anchor x="490.0" y="1520.0" name="top"/>
  <outline>
    <contour>
      <point x="456.0" y="0.0" type="line"/>
      <point x="524.0" y="0.0" type="line"/>
      <point x="524.0" y="1414.0" type="line"/>
      <point x="972.0" y="1414.0" type="line"/>
      <point x="972.0" y="1480.0" type="line"/>
      <point x="8.0" y="1480.0" type="line"/>
      <point x="8.0" y="1414.0" type="line"/>
      <point x="456.0" y="1414.0" type="line"/>
    </contour>
    <contour>
      <point x="250.0" y="-276.0" type="line"/>
      <point x="730.0" y="-276.0" type="line"/>
      <point x="730.0" y="-218.0" type="line"/>
      <point x="250.0" y="-218.0" type="line"/>
    </contour>
  </outline>
</glyph>
<glyph name="Wdieresis" format="2">
  <advance width="1772.0"/>
  <unicode hex="1E84"/>
  <anchor x="888.0" y="1520.0" name="_top"/>
  <anchor x="888.0" y="0.0" name="bottom"/>
  <anchor x="888.0" y="1520.0" name="top"/>
  <outline>
    <contour>
      <point x="434.0" y="0.0" type="line"/>
      <point x="528.0" y="0.0" type="line"/>
      <point x="894.0" y="1430.0" type="line"/>
      <point x="880.0" y="1430.0" type="line"/>
      <point x="1244.0" y="0.0" type="line"/>
      <point x="1338.0" y="0.0" type="line"/>
      <point x="1716.0" y="1480.0" type="line"/>
      <point x="1648.0" y="1480.0" type="line"/>
      <point x="1284.0" y="40.0" type="line"/>
      <point x="1300.0" y="40.0" type="line"/>
      <point x="934.0" y="1480.0" type="line"/>
      <point x="840.0" y="1480.0" type="line"/>
      <point x="474.0" y="40.0" type="line"/>
      <point x="490.0" y="40.0" type="line"/>
      <point x="128.0" y="1480.0" type="line"/>
      <point x="56.0" y="1480.0" type="line"/>
    </contour>
    <contour>
      <point x="1068.0" y="1690.0" type="curve" smooth="yes"/>
      <point x="1104.0" y="1690.0"/>
      <point x="1130.0" y="1714.0"/>
      <point x="1130.0" y="1752.0" type="curve" smooth="yes"/>
      <point x="1130.0" y="1790.0"/>
      <point x="1104.0" y="1816.0"/>
      <point x="1068.0" y="1816.0" type="curve" smooth="yes"/>
      <point x="1032.0" y="1816.0"/>
      <point x="1006.0" y="1790.0"/>
      <point x="1006.0" y="1752.0" type="curve" smooth="yes"/>
      <point x="1006.0" y="1714.0"/>
      <point x="1032.0" y="1690.0"/>
    </contour>
    <contour>
      <point x="708.0" y="1690.0" type="curve" smooth="yes"/>
      <point x="744.0" y="1690.0"/>
      <point x="770.0" y="1714.0"/>
      <point x="770.0" y="1752.0" type="curve" smooth="yes"/>
      <point x="770.0" y="1790.0"/>
      <point x="744.0" y="1816.0"/>
      <point x="708.0" y="1816.0" type="curve" smooth="yes"/>
      <point x="672.0" y="1816.0"/>
      <point x="646.0" y="1790.0"/>
      <point x="646.0" y="1752.0" type="curve" smooth="yes"/>
      <point x="646.0" y="1714.0"/>
      <point x="672.0" y="1690.0"/>
    </contour>
  </outline>
</glyph>
<glyph name="Ydotaccent" format="2">
  <advance width="980.0"/>
  <unicode hex="1E8E"/>
  <anchor x="490.0" y="1520.0" name="_top"/>
  <anchor x="490.0" y="0.0" name="bottom"/>
  <anchor x="490.0" y="1520.0" name="top"/>
  <anchor x="12.0" y="1480.0" name="topleft"/>
  <outline>
    <contour>
      <point x="456.0" y="0.0" type="line"/>
      <point x="524.0" y="0.0" type="line"/>
      <point x="524.0" y="708.0" type="line"/>
      <point x="508.0" y="652.0" type="line"/>
      <point x="994.0" y="1480.0" type="line"/>
      <point x="918.0" y="1480.0" type="line"/>
      <point x="476.0" y="724.0" type="line"/>
      <point x="504.0" y="724.0" type="line"/>
      <point x="56.0" y="1480.0" type="line"/>
      <point x="-22.0" y="1480.0" type="line"/>
      <point x="472.0" y="652.0" type="line"/>
      <point x="456.0" y="708.0" type="line"/>
    </contour>
    <contour>
      <point x="490.0" y="1690.0" type="curve" smooth="yes"/>
      <point x="526.0" y="1690.0"/>
      <point x="552.0" y="1714.0"/>
      <point x="552.0" y="1752.0" type="curve" smooth="yes"/>
      <point x="552.0" y="1790.0"/>
      <point x="526.0" y="1816.0"/>
      <point x="490.0" y="1816.0" type="curve" smooth="yes"/>
      <point x="454.0" y="1816.0"/>
      <point x="428.0" y="1790.0"/>
      <point x="428.0" y="1752.0" type="curve" smooth="yes"/>
      <point x="428.0" y="1714.0"/>
      <point x="454.0" y="1690.0"/>
    </contour>
  </outline>
</glyph>
<glyph name="ydotaccent" format="2">
  <advance width="858.0"/>
  <unicode hex="1E8F"/>
  <anchor x="430.0" y="1200.0" name="_top"/>
  <anchor x="636.0" y="0.0" name="bottom"/>
  <anchor x="430.0" y="1200.0" name="top"/>
  <outline>
    <contour>
      <point x="254.0" y="-440.0" type="line"/>
      <point x="326.0" y="-440.0" type="line"/>
      <point x="846.0" y="1080.0" type="line"/>
      <point x="770.0" y="1080.0" type="line"/>
      <point x="418.0" y="34.0" type="line"/>
      <point x="406.0" y="0.0" type="line"/>
    </contour>
    <contour>
      <point x="382.0" y="0.0" type="line"/>
      <point x="452.0" y="0.0" type="line"/>
      <point x="88.0" y="1080.0" type="line"/>
      <point x="12.0" y="1080.0" type="line"/>
    </contour>
    <contour>
      <point x="430.0" y="1360.0" type="curve" smooth="yes"/>
      <point x="466.0" y="1360.0"/>
      <point x="492.0" y="1384.0"/>
      <point x="492.0" y="1422.0" type="curve" smooth="yes"/>
      <point x="492.0" y="1460.0"/>
      <point x="466.0" y="1486.0"/>
      <point x="430.0" y="1486.0" type="curve" smooth="yes"/>
      <point x="394.0" y="1486.0"/>
      <point x="368.0" y="1460.0"/>
      <point x="368.0" y="1422.0" type="curve" smooth="yes"/>
      <point x="368.0" y="1384.0"/>
      <point x="394.0" y="1360.0"/>
    </contour>
  </outline>
</glyph>
<glyph name="Ahookabove" format="2">
  <advance width="1130.0"/>
  <unicode hex="1EA2"/>
  <anchor x="566.0" y="1520.0" name="_top"/>
  <anchor x="566.0" y="0.0" name="bottom"/>
  <anchor x="1104.0" y="0.0" name="ogonek"/>
  <anchor x="566.0" y="1520.0" name="top"/>
  <outline>
    <contour>
      <point x="26.0" y="0.0" type="line"/>
      <point x="98.0" y="0.0" type="line"/>
      <point x="576.0" y="1440.0" type="line"/>
      <point x="552.0" y="1440.0" type="line"/>
      <point x="1030.0" y="0.0" type="line"/>
      <point x="1104.0" y="0.0" type="line"/>
      <point x="608.0" y="1480.0" type="line"/>
      <point x="522.0" y="1480.0" type="line"/>
    </contour>
    <contour>
      <point x="246.0" y="528.0" type="line"/>
      <point x="884.0" y="528.0" type="line"/>
      <point x="864.0" y="594.0" type="line"/>
      <point x="266.0" y="594.0" type="line"/>
    </contour>
    <contour>
      <point x="536.0" y="1616.0" type="curve"/>
      <point x="596.0" y="1616.0" type="line"/>
      <point x="604.0" y="1694.0"/>
      <point x="748.0" y="1676.0"/>
      <point x="748.0" y="1784.0" type="curve" smooth="yes"/>
      <point x="748.0" y="1842.0"/>
      <point x="692.0" y="1888.0"/>
      <point x="576.0" y="1888.0" type="curve" smooth="yes"/>
      <point x="512.0" y="1888.0"/>
      <point x="444.0" y="1874.0"/>
      <point x="398.0" y="1852.0" type="curve"/>
      <point x="398.0" y="1796.0" type="line"/>
      <point x="456.0" y="1822.0"/>
      <point x="520.0" y="1834.0"/>
      <point x="576.0" y="1834.0" type="curve" smooth="yes"/>
      <point x="666.0" y="1834.0"/>
      <point x="688.0" y="1812.0"/>
      <point x="688.0" y="1782.0" type="curve" smooth="yes"/>
      <point x="688.0" y="1708.0"/>
      <point x="542.0" y="1728.0"/>
    </contour>
  </outline>
</glyph>
<glyph name="Abrevehookabove" format="2">
  <advance width="1130.0"/>
  <unicode hex="1EB2"/>
  <anchor x="566.0" y="1520.0" name="_top"/>
  <anchor x="566.0" y="0.0" name="bottom"/>
  <anchor x="1104.0" y="0.0" name="ogonek"/>
  <anchor x="566.0" y="1520.0" name="top"/>
  <outline>
    <contour>
      <point x="26.0" y="0.0" type="line"/>
      <point x="98.0" y="0.0" type="line"/>
      <point x="576.0" y="1440.0" type="line"/>
      <point x="552.0" y="1440.0" type="line"/>
      <point x="1030.0" y="0.0" type="line"/>
      <point x="1104.0" y="0.0" type="line"/>
      <point x="608.0" y="1480.0" type="line"/>
      <point x="522.0" y="1480.0" type="line"/>
    </contour>
    <contour>
      <point x="246.0" y="528.0" type="line"/>
      <point x="884.0" y="528.0" type="line"/>
      <point x="864.0" y="594.0" type="line"/>
      <point x="266.0" y="594.0" type="line"/>
    </contour>
    <contour>
      <point x="564.0" y="1628.0" type="curve" smooth="yes"/>
      <point x="710.0" y="1628.0"/>
      <point x="798.0" y="1706.0"/>
      <point x="808.0" y="1860.0" type="curve"/>
      <point x="752.0" y="1860.0" type="line"/>
      <point x="738.0" y="1736.0"/>
      <point x="684.0" y="1686.0"/>
      <point x="564.0" y="1686.0" type="curve" smooth="yes"/>
      <point x="444.0" y="1686.0"/>
      <point x="390.0" y="1736.0"/>
      <point x="380.0" y="1860.0" type="curve"/>
      <point x="324.0" y="1860.0" type="line"/>
      <point x="334.0" y="1704.0"/>
      <point x="418.0" y="1628.0"/>
    </contour>
    <contour>
      <point x="536.0" y="1848.0" type="curve"/>
      <point x="596.0" y="1848.0" type="line"/>
      <point x="604.0" y="1926.0"/>
      <point x="748.0" y="1908.0"/>
      <point x="748.0" y="2016.0" type="curve" smooth="yes"/>
      <point x="748.0" y="2074.0"/>
      <point x="692.0" y="2120.0"/>
      <point x="576.0" y="2120.0" type="curve" smooth="yes"/>
      <point x="512.0" y="2120.0"/>
      <point x="444.0" y="2106.0"/>
      <point x="398.0" y="2084.0" type="curve"/>
      <point x="398.0" y="2028.0" type="line"/>
      <point x="456.0" y="2054.0"/>
      <point x="520.0" y="2066.0"/>
      <point x="576.0" y="2066.0" type="curve" smooth="yes"/>
      <point x="666.0" y="2066.0"/>
      <point x="688.0" y="2044.0"/>
      <point x="688.0" y="2014.0" type="curve" smooth="yes"/>
      <point x="688.0" y="1940.0"/>
      <point x="542.0" y="1960.0"/>
    </contour>
  </outline>
</glyph>
<glyph name="Ehookabove" format="2">
  <advance width="946.0"/>
  <unicode hex="1EBA"/>
  <anchor x="556.0" y="1520.0" name="_top"/>
  <anchor x="556.0" y="0.0" name="bottom"/>
  <anchor x="832.0" y="0.0" name="ogonek"/>
  <anchor x="556.0" y="1520.0" name="top"/>
  <anchor x="36.0" y="1480.0" name="topleft"/>
  <outline>
    <contour>
      <point x="164.0" y="0.0" type="line"/>
      <point x="912.0" y="0.0" type="line"/>
      <point x="912.0" y="66.0" type="line"/>
      <point x="232.0" y="66.0" type="line"/>
      <point x="232.0" y="1414.0" type="line"/>
      <point x="902.0" y="1414.0" type="line"/>
      <point x="902.0" y="1480.0" type="line"/>
      <point x="164.0" y="1480.0" type="line"/>
    </contour>
    <contour>
      <point x="224.0" y="728.0" type="line"/>
      <point x="812.0" y="728.0" type="line"/>
      <point x="812.0" y="794.0" type="line"/>
      <point x="224.0" y="794.0" type="line"/>
    </contour>
    <contour>
      <point x="526.0" y="1616.0" type="curve"/>
      <point x="586.0" y="1616.0" type="line"/>
      <point x="594.0" y="1694.0"/>
      <point x="738.0" y="1676.0"/>
      <point x="738.0" y="1784.0" type="curve" smooth="yes"/>
      <point x="738.0" y="1842.0"/>
      <point x="682.0" y="1888.0"/>
      <point x="566.0" y="1888.0" type="curve" smooth="yes"/>
      <point x="502.0" y="1888.0"/>
      <point x="434.0" y="1874.0"/>
      <point x="388.0" y="1852.0" type="curve"/>
      <point x="388.0" y="1796.0" type="line"/>
      <point x="446.0" y="1822.0"/>
      <point x="510.0" y="1834.0"/>
      <point x="566.0" y="1834.0" type="curve" smooth="yes"/>
      <point x="656.0" y="1834.0"/>
      <point x="678.0" y="1812.0"/>
      <point x="678.0" y="1782.0" type="curve" smooth="yes"/>
      <point x="678.0" y="1708.0"/>
      <point x="532.0" y="1728.0"/>
    </contour>
  </outline>
</glyph>
<glyph name="Ecircumflexdotbelow" format="2">
  <advance width="946.0"/>
  <unicode hex="1EC6"/>
  <anchor x="556.0" y="0.0" name="_bottom"/>
  <anchor x="556.0" y="0.0" name="bottom"/>
  <anchor x="832.0" y="0.0" name="ogonek"/>
  <anchor x="556.0" y="1520.0" name="top"/>
  <anchor x="36.0" y="1480.0" name="topleft"/>
  <outline>
    <contour>
      <point x="164.0" y="0.0" type="line"/>
      <point x="912.0" y="0.0" type="line"/>
      <point x="912.0" y="66.0" type="line"/>
      <point x="232.0" y="66.0" type="line"/>
      <point x="232.0" y="1414.0" type="line"/>
      <point x="902.0" y="1414.0" type="line"/>
      <point x="902.0" y="1480.0" type="line"/>
      <point x="164.0" y="1480.0" type="line"/>
    </contour>
    <contour>
      <point x="224.0" y="728.0" type="line"/>
      <point x="812.0" y="728.0" type="line"/>
      <point x="812.0" y="794.0" type="line"/>
      <point x="224.0" y="794.0" type="line"/>
    </contour>
    <contour>
      <point x="556.0" y="-310.0" type="curve" smooth="yes"/>
      <point x="592.0" y="-310.0"/>
      <point x="618.0" y="-286.0"/>
      <point x="618.0" y="-248.0" type="curve" smooth="yes"/>
      <point x="618.0" y="-210.0"/>
      <point x="592.0" y="-184.0"/>
      <point x="556.0" y="-184.0" type="curve" smooth="yes"/>
      <point x="520.0" y="-184.0"/>
      <point x="494.0" y="-210.0"/>
      <point x="494.0" y="-248.0" type="curve" smooth="yes"/>
      <point x="494.0" y="-286.0"/>
      <point x="520.0" y="-310.0"/>
    </contour>
    <contour>
      <point x="322.0" y="1616.0" type="line"/>
      <point x="392.0" y="1616.0" type="line"/>
      <point x="564.0" y="1858.0" type="line"/>
      <point x="548.0" y="1858.0" type="line"/>
      <point x="720.0" y="1616.0" type="line"/>
      <point x="790.0" y="1616.0" type="line"/>
      <point x="594.0" y="1888.0" type="line"/>
      <point x="518.0" y="1888.0" type="line"/>
    </contour>
  </outline>
</glyph>
<glyph name="Ocircumflexhookabove" format="2">
  <advance width="1164.0"/>
  <unicode hex="1ED4"/>
  <anchor x="582.0" y="1520.0" name="_top"/>
  <anchor x="582.0" y="0.0" name="bottom"/>
  <anchor x="582.0" y="740.0" name="center"/>
  <anchor x="722.0" y="0.0" name="ogonek"/>
  <anchor x="582.0" y="1520.0" name="top"/>
  <anchor x="38.0" y="1480.0" name="topleft"/>
  <anchor x="722.0" y="1480.0" name="topright"/>
  <outline>
    <contour>
      <point x="582.0" y="-18.0" type="curve" smooth="yes"/>
      <point x="878.0" y="-18.0"/>
      <point x="1066.0" y="182.0"/>
      <point x="1066.0" y="740.0" type="curve" smooth="yes"/>
      <point x="1066.0" y="1298.0"/>
      <point x="878.0" y="1498.0"/>
      <point x="582.0" y="1498.0" type="curve" smooth="yes"/>
      <point x="286.0" y="1498.0"/>
      <point x="98.0" y="1298.0"/>
      <point x="98.0" y="740.0" type="curve" smooth="yes"/>
      <point x="98.0" y="182.0"/>
      <point x="286.0" y="-18.0"/>
    </contour>
    <contour>
      <point x="582.0" y="48.0" type="curve" smooth="yes"/>
      <point x="334.0" y="48.0"/>
      <point x="170.0" y="206.0"/>
      <point x="170.0" y="744.0" type="curve" smooth="yes"/>
      <point x="170.0" y="1274.0"/>
      <point x="334.0" y="1432.0"/>
      <point x="582.0" y="1432.0" type="curve" smooth="yes"/>
      <point x="830.0" y="1432.0"/>
      <point x="994.0" y="1274.0"/>
      <point x="994.0" y="736.0" type="curve" smooth="yes"/>
      <point x="994.0" y="206.0"/>
      <point x="830.0" y="48.0"/>
    </contour>
    <contour>
      <point x="348.0" y="1616.0" type="line"/>
      <point x="418.0" y="1616.0" type="line"/>
      <point x="590.0" y="1858.0" type="line"/>
      <point x="574.0" y="1858.0" type="line"/>
      <point x="746.0" y="1616.0" type="line"/>
      <point x="816.0" y="1616.0" type="line"/>
      <point x="620.0" y="1888.0" type="line"/>
      <point x="544.0" y="1888.0" type="line"/>
    </contour>
    <contour>
      <point x="758.0" y="1792.0" type="curve"/>
      <point x="818.0" y="1792.0" type="line"/>
      <point x="826.0" y="1870.0"/>
      <point x="970.0" y="1852.0"/>
      <point x="970.0" y="1960.0" type="curve" smooth="yes"/>
      <point x="970.0" y="2018.0"/>
      <point x="914.0" y="2064.0"/>
      <point x="798.0" y="2064.0" type="curve" smooth="yes"/>
      <point x="734.0" y="2064.0"/>
      <point x="666.0" y="2050.0"/>
      <point x="620.0" y="2028.0" type="curve"/>
      <point x="620.0" y="1972.0" type="line"/>
      <point x="678.0" y="1998.0"/>
      <point x="742.0" y="2010.0"/>
      <point x="798.0" y="2010.0" type="curve" smooth="yes"/>
      <point x="888.0" y="2010.0"/>
      <point x="910.0" y="1988.0"/>
      <point x="910.0" y="1958.0" type="curve" smooth="yes"/>
      <point x="910.0" y="1884.0"/>
      <point x="764.0" y="1904.0"/>
    </contour>
  </outline>
</glyph>
<glyph name="ocircumflexdotbelow" format="2">
  <advance width="912.0"/>
  <unicode hex="1ED9"/>
  <anchor x="456.0" y="0.0" name="_bottom"/>
  <anchor x="456.0" y="0.0" name="bottom"/>
  <anchor x="456.0" y="540.0" name="center"/>
  <anchor x="578.0" y="0.0" name="ogonek"/>
  <anchor x="456.0" y="1200.0" name="top"/>
  <anchor x="570.0" y="1080.0" name="topright"/>
  <outline>
    <contour>
      <point x="456.0" y="-18.0" type="curve" smooth="yes"/>
      <point x="680.0" y="-18.0"/>
      <point x="824.0" y="132.0"/>
      <point x="824.0" y="540.0" type="curve" smooth="yes"/>
      <point x="824.0" y="948.0"/>
      <point x="676.0" y="1096.0"/>
      <point x="456.0" y="1096.0" type="curve" smooth="yes"/>
      <point x="232.0" y="1096.0"/>
      <point x="88.0" y="948.0"/>
      <point x="88.0" y="540.0" type="curve" smooth="yes"/>
      <point x="88.0" y="132.0"/>
      <point x="236.0" y="-18.0"/>
    </contour>
    <contour>
      <point x="456.0" y="48.0" type="curve" smooth="yes"/>
      <point x="276.0" y="48.0"/>
      <point x="160.0" y="160.0"/>
      <point x="160.0" y="544.0" type="curve" smooth="yes"/>
      <point x="160.0" y="920.0"/>
      <point x="276.0" y="1030.0"/>
      <point x="456.0" y="1030.0" type="curve" smooth="yes"/>
      <point x="636.0" y="1030.0"/>
      <point x="752.0" y="920.0"/>
      <point x="752.0" y="536.0" type="curve" smooth="yes"/>
      <point x="752.0" y="160.0"/>
      <point x="636.0" y="48.0"/>
    </contour>
    <contour>
      <point x="456.0" y="-310.0" type="curve" smooth="yes"/>
      <point x="492.0" y="-310.0"/>
      <point x="518.0" y="-286.0"/>
      <point x="518.0" y="-248.0" type="curve" smooth="yes"/>
      <point x="518.0" y="-210.0"/>
      <point x="492.0" y="-184.0"/>
      <point x="456.0" y="-184.0" type="curve" smooth="yes"/>
      <point x="420.0" y="-184.0"/>
      <point x="394.0" y="-210.0"/>
      <point x="394.0" y="-248.0" type="curve" smooth="yes"/>
      <point x="394.0" y="-286.0"/>
      <point x="420.0" y="-310.0"/>
    </contour>
    <contour>
      <point x="242.0" y="1264.0" type="line"/>
      <point x="306.0" y="1264.0" type="line"/>
      <point x="464.0" y="1590.0" type="line"/>
      <point x="448.0" y="1590.0" type="line"/>
      <point x="606.0" y="1264.0" type="line"/>
      <point x="670.0" y="1264.0" type="line"/>
      <point x="494.0" y="1616.0" type="line"/>
      <point x="418.0" y="1616.0" type="line"/>
    </contour>
  </outline>
</glyph>
<glyph name="ohorntilde" format="2">
  <advance width="912.0"/>
  <unicode hex="1EE1"/>
  <outline>
    <contour>
      <point x="456.0" y="-18.0" type="curve" smooth="yes"/>
      <point x="680.0" y="-18.0"/>
      <point x="824.0" y="132.0"/>
      <point x="824.0" y="540.0" type="curve" smooth="yes"/>
      <point x="824.0" y="806.0"/>
      <point x="764.0" y="970.0"/>
      <point x="638.0" y="1050.0" type="curve"/>
      <point x="618.0" y="1024.0" type="line"/>
      <point x="746.0" y="1024.0"/>
      <point x="846.0" y="1104.0"/>
      <point x="846.0" y="1252.0" type="curve" smooth="yes"/>
      <point x="846.0" y="1312.0"/>
      <point x="838.0" y="1350.0"/>
      <point x="822.0" y="1396.0" type="curve"/>
      <point x="756.0" y="1396.0" type="line"/>
      <point x="770.0" y="1350.0"/>
      <point x="780.0" y="1310.0"/>
      <point x="780.0" y="1254.0" type="curve" smooth="yes"/>
      <point x="780.0" y="1138.0"/>
      <point x="702.0" y="1090.0"/>
      <point x="602.0" y="1090.0" type="curve" smooth="yes"/>
      <point x="564.0" y="1090.0"/>
      <point x="512.0" y="1096.0"/>
      <point x="456.0" y="1096.0" type="curve" smooth="yes"/>
      <point x="232.0" y="1096.0"/>
      <point x="88.0" y="948.0"/>
      <point x="88.0" y="540.0" type="curve" smooth="yes"/>
      <point x="88.0" y="132.0"/>
      <point x="236.0" y="-18.0"/>
    </contour>
    <contour>
      <point x="456.0" y="48.0" type="curve" smooth="yes"/>
      <point x="276.0" y="48.0"/>
      <point x="160.0" y="160.0"/>
      <point x="160.0" y="544.0" type="curve" smooth="yes"/>
      <point x="160.0" y="920.0"/>
      <point x="276.0" y="1030.0"/>
      <point x="456.0" y="1030.0" type="curve" smooth="yes"/>
      <point x="636.0" y="1030.0"/>
      <point x="752.0" y="920.0"/>
      <point x="752.0" y="536.0" type="curve" smooth="yes"/>
      <point x="752.0" y="160.0"/>
      <point x="636.0" y="48.0"/>
    </contour>
    <contour>
      <point x="574.0" y="1380.0" type="curve" smooth="yes"/>
      <point x="630.0" y="1380.0"/>
      <point x="676.0" y="1404.0"/>
      <point x="706.0" y="1442.0" type="curve"/>
      <point x="706.0" y="1508.0" type="line"/>
      <point x="668.0" y="1460.0"/>
      <point x="628.0" y="1436.0"/>
      <point x="574.0" y="1436.0" type="curve" smooth="yes"/>
      <point x="502.0" y="1436.0"/>
      <point x="428.0" y="1514.0"/>
      <point x="338.0" y="1514.0" type="curve" smooth="yes"/>
      <point x="282.0" y="1514.0"/>
      <point x="236.0" y="1490.0"/>
      <point x="206.0" y="1452.0" type="curve"/>
      <point x="206.0" y="1386.0" type="line"/>
      <point x="244.0" y="1434.0"/>
      <point x="284.0" y="1458.0"/>
      <point x="338.0" y="1458.0" type="curve" smooth="yes"/>
      <point x="410.0" y="1458.0"/>
      <point x="484.0" y="1380.0"/>
    </contour>
  </outline>
</glyph>
<glyph name="uhookabove" format="2">
  <advance width="920.0"/>
  <unicode hex="1EE7"/>
  <anchor x="456.0" y="1200.0" name="_top"/>
  <anchor x="456.0" y="0.0" name="bottom"/>
  <anchor x="776.0" y="0.0" name="ogonek"/>
  <anchor x="456.0" y="1200.0" name="top"/>
  <anchor x="708.0" y="1080.0" name="topright"/>
  <outline>
    <contour>
      <point x="414.0" y="-18.0" type="curve" smooth="yes"/>
      <point x="518.0" y="-18.0"/>
      <point x="624.0" y="26.0"/>
      <point x="702.0" y="120.0" type="curve"/>
      <point x="710.0" y="120.0" type="line"/>
      <point x="716.0" y="0.0" type="line"/>
      <point x="776.0" y="0.0" type="line"/>
      <point x="776.0" y="1080.0" type="line"/>
      <point x="708.0" y="1080.0" type="line"/>
      <point x="708.0" y="226.0" type="line"/>
      <point x="636.0" y="92.0"/>
      <point x="504.0" y="48.0"/>
      <point x="416.0" y="48.0" type="curve" smooth="yes"/>
      <point x="290.0" y="48.0"/>
      <point x="202.0" y="110.0"/>
      <point x="202.0" y="304.0" type="curve" smooth="yes"/>
      <point x="202.0" y="1080.0" type="line"/>
      <point x="134.0" y="1080.0" type="line"/>
      <point x="134.0" y="308.0" type="line" smooth="yes"/>
      <point x="134.0" y="58.0"/>
      <point x="256.0" y="-18.0"/>
    </contour>
    <contour>
      <point x="424.0" y="1264.0" type="curve"/>
      <point x="486.0" y="1264.0" type="line"/>
      <point x="486.0" y="1378.0"/>
      <point x="628.0" y="1372.0"/>
      <point x="628.0" y="1498.0" type="curve" smooth="yes"/>
      <point x="628.0" y="1578.0"/>
      <point x="574.0" y="1628.0"/>
      <point x="454.0" y="1628.0" type="curve" smooth="yes"/>
      <point x="406.0" y="1628.0"/>
      <point x="354.0" y="1618.0"/>
      <point x="318.0" y="1604.0" type="curve"/>
      <point x="318.0" y="1548.0" type="line"/>
      <point x="358.0" y="1564.0"/>
      <point x="414.0" y="1572.0"/>
      <point x="456.0" y="1572.0" type="curve" smooth="yes"/>
      <point x="540.0" y="1572.0"/>
      <point x="568.0" y="1546.0"/>
      <point x="568.0" y="1496.0" type="curve" smooth="yes"/>
      <point x="568.0" y="1412.0"/>
      <point x="424.0" y="1404.0"/>
    </contour>
  </outline>
</glyph>
<glyph name="uhorntilde" format="2">
  <advance width="940.0"/>
  <unicode hex="1EEF"/>
  <outline>
    <contour>
      <point x="414.0" y="-18.0" type="curve" smooth="yes"/>
      <point x="518.0" y="-18.0"/>
      <point x="624.0" y="26.0"/>
      <point x="702.0" y="120.0" type="curve"/>
      <point x="710.0" y="120.0" type="line"/>
      <point x="716.0" y="0.0" type="line"/>
      <point x="776.0" y="0.0" type="line"/>
      <point x="776.0" y="1044.0" type="line"/>
      <point x="756.0" y="1014.0" type="line"/>
      <point x="884.0" y="1014.0"/>
      <point x="984.0" y="1094.0"/>
      <point x="984.0" y="1242.0" type="curve" smooth="yes"/>
      <point x="984.0" y="1302.0"/>
      <point x="976.0" y="1340.0"/>
      <point x="960.0" y="1386.0" type="curve"/>
      <point x="894.0" y="1386.0" type="line"/>
      <point x="908.0" y="1340.0"/>
      <point x="918.0" y="1300.0"/>
      <point x="918.0" y="1244.0" type="curve" smooth="yes"/>
      <point x="918.0" y="1128.0"/>
      <point x="840.0" y="1080.0"/>
      <point x="740.0" y="1080.0" type="curve" smooth="yes"/>
      <point x="708.0" y="1080.0" type="line"/>
      <point x="708.0" y="226.0" type="line"/>
      <point x="636.0" y="92.0"/>
      <point x="504.0" y="48.0"/>
      <point x="416.0" y="48.0" type="curve" smooth="yes"/>
      <point x="290.0" y="48.0"/>
      <point x="202.0" y="110.0"/>
      <point x="202.0" y="304.0" type="curve" smooth="yes"/>
      <point x="202.0" y="1080.0" type="line"/>
      <point x="134.0" y="1080.0" type="line"/>
      <point x="134.0" y="308.0" type="line" smooth="yes"/>
      <point x="134.0" y="58.0"/>
      <point x="256.0" y="-18.0"/>
    </contour>
    <contour>
      <point x="574.0" y="1380.0" type="curve" smooth="yes"/>
      <point x="630.0" y="1380.0"/>
      <point x="676.0" y="1404.0"/>
      <point x="706.0" y="1442.0" type="curve"/>
      <point x="706.0" y="1508.0" type="line"/>
      <point x="668.0" y="1460.0"/>
      <point x="628.0" y="1436.0"/>
      <point x="574.0" y="1436.0" type="curve" smooth="yes"/>
      <point x="502.0" y="1436.0"/>
      <point x="428.0" y="1514.0"/>
      <point x="338.0" y="1514.0" type="curve" smooth="yes"/>
      <point x="282.0" y="1514.0"/>
      <point x="236.0" y="1490.0"/>
      <point x="206.0" y="1452.0" type="curve"/>
      <point x="206.0" y="1386.0" type="line"/>
      <point x="244.0" y="1434.0"/>
      <point x="284.0" y="1458.0"/>
      <point x="338.0" y="1458.0" type="curve" smooth="yes"/>
      <point x="410.0" y="1458.0"/>
      <point x="484.0" y="1380.0"/>
    </contour>
  </outline>
</glyph>
<glyph name="figuredash" format="2">
  <advance width="1000.0"/>
  <unicode hex="2012"/>
  <outline>
    <contour>
      <point x="144.0" y="528.0" type="line"/>
      <point x="856.0" y="528.0" type="line"/>
      <point x="856.0" y="592.0" type="line"/>
      <point x="144.0" y="592.0" type="line"/>
    </contour>
  </outline>
</glyph>
<glyph name="quoteright" format="2">
  <advance width="360.0"/>
  <unicode hex="2019"/>
  <outline>
    <contour>
      <point x="130.0" y="1210.0" type="curve"/>
      <point x="174.0" y="1210.0" type="line"/>
      <point x="212.0" y="1304.0"/>
      <point x="242.0" y="1418.0"/>
      <point x="242.0" y="1542.0" type="curve" smooth="yes"/>
      <point x="242.0" y="1602.0"/>
      <point x="216.0" y="1626.0"/>
      <point x="178.0" y="1626.0" type="curve" smooth="yes"/>
      <point x="142.0" y="1626.0"/>
      <point x="118.0" y="1600.0"/>
      <point x="118.0" y="1564.0" type="curve" smooth="yes"/>
      <point x="118.0" y="1526.0"/>
      <point x="144.0" y="1500.0"/>
      <point x="180.0" y="1500.0" type="curve" smooth="yes"/>
      <point x="192.0" y="1500.0" type="line"/>
      <point x="188.0" y="1522.0" type="line"/>
      <point x="188.0" y="1420.0"/>
      <point x="166.0" y="1324.0"/>
    </contour>
  </outline>
</glyph>
<glyph name="ellipsis" format="2">
  <advance width="1040.0"/>
  <unicode hex="2026"/>
  <outline>
    <contour>
      <point x="180.0" y="-10.0" type="curve" smooth="yes"/>
      <point x="216.0" y="-10.0"/>
      <point x="242.0" y="14.0"/>
      <point x="242.0" y="52.0" type="curve" smooth="yes"/>
      <point x="242.0" y="90.0"/>
      <point x="216.0" y="116.0"/>
      <point x="180.0" y="116.0" type="curve" smooth="yes"/>
      <point x="144.0" y="116.0"/>
      <point x="118.0" y="90.0"/>
      <point x="118.0" y="52.0" type="curve" smooth="yes"/>
      <point x="118.0" y="14.0"/>
      <point x="144.0" y="-10.0"/>
    </contour>
    <contour>
      <point x="520.0" y="-10.0" type="curve" smooth="yes"/>
      <point x="556.0" y="-10.0"/>
      <point x="582.0" y="14.0"/>
      <point x="582.0" y="52.0" type="curve" smooth="yes"/>
      <point x="582.0" y="90.0"/>
      <point x="556.0" y="116.0"/>
      <point x="520.0" y="116.0" type="curve" smooth="yes"/>
      <point x="484.0" y="116.0"/>
      <point x="458.0" y="90.0"/>
      <point x="458.0" y="52.0" type="curve" smooth="yes"/>
      <point x="458.0" y="14.0"/>
      <point x="484.0" y="-10.0"/>
    </contour>
    <contour>
      <point x="860.0" y="-10.0" type="curve" smooth="yes"/>
      <point x="896.0" y="-10.0"/>
      <point x="922.0" y="14.0"/>
      <point x="922.0" y="52.0" type="curve" smooth="yes"/>
      <point x="922.0" y="90.0"/>
      <point x="896.0" y="116.0"/>
      <point x="860.0" y="116.0" type="curve" smooth="yes"/>
      <point x="824.0" y="116.0"/>
      <point x="798.0" y="90.0"/>
      <point x="798.0" y="52.0" type="curve" smooth="yes"/>
      <point x="798.0" y="14.0"/>
      <point x="824.0" y="-10.0"/>
    </contour>
  </outline>
</glyph>
<glyph name="perthousand" format="2">
  <advance width="2214.0"/>
  <unicode hex="2030"/>
  <outline>
    <contour>
      <point x="1838.0" y="-18.0" type="curve" smooth="yes"/>
      <point x="2006.0" y="-18.0"/>
      <point x="2118.0" y="98.0"/>
      <point x="2118.0" y="442.0" type="curve" smooth="yes"/>
      <point x="2118.0" y="786.0"/>
      <point x="2004.0" y="902.0"/>
      <point x="1838.0" y="902.0" type="curve" smooth="yes"/>
      <point x="1672.0" y="902.0"/>
      <point x="1558.0" y="786.0"/>
      <point x="1558.0" y="442.0" type="curve" smooth="yes"/>
      <point x="1558.0" y="98.0"/>
      <point x="1670.0" y="-18.0"/>
    </contour>
    <contour>
      <point x="1838.0" y="44.0" type="curve" smooth="yes"/>
      <point x="1710.0" y="44.0"/>
      <point x="1624.0" y="136.0"/>
      <point x="1624.0" y="444.0" type="curve" smooth="yes"/>
      <point x="1624.0" y="748.0"/>
      <point x="1710.0" y="840.0"/>
      <point x="1838.0" y="840.0" type="curve" smooth="yes"/>
      <point x="1966.0" y="840.0"/>
      <point x="2052.0" y="748.0"/>
      <point x="2052.0" y="440.0" type="curve" smooth="yes"/>
      <point x="2052.0" y="136.0"/>
      <point x="1966.0" y="44.0"/>
    </contour>
    <component base="percent"/>
  </outline>
</glyph>
<glyph name="minute" format="2">
  <advance width="344.0"/>
  <unicode hex="2032"/>
  <outline>
    <contour>
      <point x="152.0" y="956.0" type="line"/>
      <point x="192.0" y="956.0" type="line"/>
      <point x="212.0" y="1616.0" type="line"/>
      <point x="132.0" y="1616.0" type="line"/>
    </contour>
  </outline>
</glyph>
<glyph name="second" format="2">
  <advance width="594.0"/>
  <unicode hex="2033"/>
  <outline>
    <contour>
      <point x="152.0" y="956.0" type="line"/>
      <point x="192.0" y="956.0" type="line"/>
      <point x="212.0" y="1616.0" type="line"/>
      <point x="132.0" y="1616.0" type="line"/>
    </contour>
    <contour>
      <point x="402.0" y="956.0" type="line"/>
      <point x="442.0" y="956.0" type="line"/>
      <point x="462.0" y="1616.0" type="line"/>
      <point x="382.0" y="1616.0" type="line"/>
    </contour>
  </outline>
</glyph>
<glyph name="guilsinglleft" format="2">
  <advance width="436.0"/>
  <unicode hex="2039"/>
  <outline>
    <contour>
      <point x="298.0" y="140.0" type="line"/>
      <point x="366.0" y="140.0" type="line"/>
      <point x="178.0" y="560.0" type="line"/>
      <point x="366.0" y="980.0" type="line"/>
      <point x="298.0" y="980.0" type="line"/>
      <point x="110.0" y="560.0" type="line"/>
    </contour>
  </outline>
</glyph>
<glyph name="foursuperior" format="2">
  <advance width="680.0"/>
  <unicode hex="2074"/>
  <outline>
    <contour>
      <point x="34.0" y="116.0" type="line"/>
      <point x="650.0" y="116.0" type="line"/>
      <point x="650.0" y="176.0" type="line"/>
      <point x="88.0" y="176.0" type="line"/>
      <point x="102.0" y="156.0" type="line"/>
      <point x="446.0" y="864.0" type="line"/>
      <point x="378.0" y="864.0" type="line"/>
      <point x="34.0" y="156.0" type="line"/>
    </contour>
    <contour>
      <point x="456.0" y="-136.0" type="line"/>
      <point x="518.0" y="-136.0" type="line"/>
      <point x="518.0" y="526.0" type="line"/>
      <point x="468.0" y="526.0" type="line"/>
      <point x="456.0" y="176.0" type="line"/>
    </contour>
  </outline>
</glyph>
<glyph name="fourinferior" format="2">
  <advance width="680.0"/>
  <unicode hex="2084"/>
  <outline>
    <contour>
      <point x="34.0" y="868.0" type="line"/>
      <point x="650.0" y="868.0" type="line"/>
      <point x="650.0" y="928.0" type="line"/>
      <point x="88.0" y="928.0" type="line"/>
      <point x="102.0" y="908.0" type="line"/>
      <point x="446.0" y="1616.0" type="line"/>
      <point x="378.0" y="1616.0" type="line"/>
      <point x="34.0" y="908.0" type="line"/>
    </contour>
    <contour>
      <point x="456.0" y="616.0" type="line"/>
      <point x="518.0" y="616.0" type="line"/>
      <point x="518.0" y="1278.0" type="line"/>
      <point x="468.0" y="1278.0" type="line"/>
      <point x="456.0" y="928.0" type="line"/>
    </contour>
  </outline>
</glyph>
<glyph name="sixinferior" format="2">
  <advance width="680.0"/>
  <unicode hex="2086"/>
  <outline>
    <contour>
      <point x="382.0" y="604.0" type="curve" smooth="yes"/>
      <point x="520.0" y="604.0"/>
      <point x="632.0" y="698.0"/>
      <point x="632.0" y="896.0" type="curve" smooth="yes"/>
      <point x="632.0" y="1092.0"/>
      <point x="514.0" y="1182.0"/>
      <point x="370.0" y="1182.0" type="curve" smooth="yes"/>
      <point x="272.0" y="1182.0"/>
      <point x="184.0" y="1140.0"/>
      <point x="140.0" y="1074.0" type="curve"/>
      <point x="140.0" y="998.0" type="line"/>
      <point x="186.0" y="1088.0"/>
      <point x="280.0" y="1122.0"/>
      <point x="362.0" y="1122.0" type="curve" smooth="yes"/>
      <point x="476.0" y="1122.0"/>
      <point x="568.0" y="1056.0"/>
      <point x="568.0" y="892.0" type="curve" smooth="yes"/>
      <point x="568.0" y="728.0"/>
      <point x="482.0" y="664.0"/>
      <point x="382.0" y="664.0" type="curve" smooth="yes"/>
      <point x="258.0" y="664.0"/>
      <point x="160.0" y="754.0"/>
      <point x="160.0" y="1068.0" type="curve" smooth="yes"/>
      <point x="160.0" y="1090.0" type="line" smooth="yes"/>
      <point x="160.0" y="1450.0"/>
      <point x="262.0" y="1566.0"/>
      <point x="444.0" y="1566.0" type="curve" smooth="yes"/>
      <point x="498.0" y="1566.0"/>
      <point x="548.0" y="1558.0"/>
      <point x="590.0" y="1538.0" type="curve"/>
      <point x="590.0" y="1602.0" type="line"/>
      <point x="550.0" y="1620.0"/>
      <point x="496.0" y="1628.0"/>
      <point x="446.0" y="1628.0" type="curve" smooth="yes"/>
      <point x="222.0" y="1628.0"/>
      <point x="96.0" y="1480.0"/>
      <point x="96.0" y="1084.0" type="curve" smooth="yes"/>
      <point x="96.0" y="714.0"/>
      <point x="220.0" y="604.0"/>
    </contour>
  </outline>
</glyph>
<glyph name="lira" format="2">
  <advance width="1048.0"/>
  <unicode hex="20A4"/>
  <outline>
    <contour>
      <point x="288.0" y="32.0" type="line"/>
      <point x="356.0" y="32.0" type="line"/>
      <point x="356.0" y="1096.0" type="line" smooth="yes"/>
      <point x="356.0" y="1332.0"/>
      <point x="480.0" y="1432.0"/>
      <point x="718.0" y="1432.0" type="curve" smooth="yes"/>
      <point x="802.0" y="1432.0"/>
      <point x="882.0" y="1422.0"/>
      <point x="968.0" y="1394.0" type="curve"/>
      <point x="968.0" y="1462.0" type="line"/>
      <point x="900.0" y="1486.0"/>
      <point x="800.0" y="1498.0"/>
      <point x="720.0" y="1498.0" type="curve" smooth="yes"/>
      <point x="442.0" y="1498.0"/>
      <point x="288.0" y="1366.0"/>
      <point x="288.0" y="1096.0" type="curve" smooth="yes"/>
    </contour>
    <contour>
      <point x="80.0" y="0.0" type="line"/>
      <point x="998.0" y="0.0" type="line"/>
      <point x="998.0" y="64.0" type="line"/>
      <point x="80.0" y="64.0" type="line"/>
    </contour>
    <contour>
      <point x="80.0" y="546.0" type="line"/>
      <point x="828.0" y="546.0" type="line"/>
      <point x="828.0" y="610.0" type="line"/>
      <point x="80.0" y="610.0" type="line"/>
    </contour>
    <contour>
      <point x="80.0" y="890.0" type="line"/>
      <point x="828.0" y="890.0" type="line"/>
      <point x="828.0" y="954.0" type="line"/>
      <point x="80.0" y="954.0" type="line"/>
    </contour>
  </outline>
</glyph>
<glyph name="naira" format="2">
  <advance width="1496.0"/>
  <unicode hex="20A6"/>
  <outline>
    <contour>
      <point x="288.0" y="0.0" type="line"/>
      <point x="354.0" y="0.0" type="line"/>
      <point x="354.0" y="1420.0" type="line"/>
      <point x="322.0" y="1420.0" type="line"/>
      <point x="1132.0" y="0.0" type="line"/>
      <point x="1208.0" y="0.0" type="line"/>
      <point x="1208.0" y="1480.0" type="line"/>
      <point x="1142.0" y="1480.0" type="line"/>
      <point x="1142.0" y="60.0" type="line"/>
      <point x="1174.0" y="60.0" type="line"/>
      <point x="364.0" y="1480.0" type="line"/>
      <point x="288.0" y="1480.0" type="line"/>
    </contour>
    <contour>
      <point x="80.0" y="546.0" type="line"/>
      <point x="324.0" y="546.0" type="line"/>
      <point x="324.0" y="610.0" type="line"/>
      <point x="80.0" y="610.0" type="line"/>
    </contour>
    <contour>
      <point x="80.0" y="890.0" type="line"/>
      <point x="324.0" y="890.0" type="line"/>
      <point x="324.0" y="954.0" type="line"/>
      <point x="80.0" y="954.0" type="line"/>
    </contour>
    <contour>
      <point x="1172.0" y="546.0" type="line"/>
      <point x="1416.0" y="546.0" type="line"/>
      <point x="1416.0" y="610.0" type="line"/>
      <point x="1172.0" y="610.0" type="line"/>
    </contour>
    <contour>
      <point x="1172.0" y="890.0" type="line"/>
      <point x="1416.0" y="890.0" type="line"/>
      <point x="1416.0" y="954.0" type="line"/>
      <point x="1172.0" y="954.0" type="line"/>
    </contour>
  </outline>
</glyph>
<glyph name="won" format="2">
  <advance width="1872.0"/>
  <unicode hex="20A9"/>
  <outline>
    <contour>
      <point x="484.0" y="0.0" type="line"/>
      <point x="578.0" y="0.0" type="line"/>
      <point x="944.0" y="1430.0" type="line"/>
      <point x="930.0" y="1430.0" type="line"/>
      <point x="1294.0" y="0.0" type="line"/>
      <point x="1388.0" y="0.0" type="line"/>
      <point x="1766.0" y="1480.0" type="line"/>
      <point x="1698.0" y="1480.0" type="line"/>
      <point x="1334.0" y="40.0" type="line"/>
      <point x="1350.0" y="40.0" type="line"/>
      <point x="984.0" y="1480.0" type="line"/>
      <point x="890.0" y="1480.0" type="line"/>
      <point x="524.0" y="40.0" type="line"/>
      <point x="540.0" y="40.0" type="line"/>
      <point x="178.0" y="1480.0" type="line"/>
      <point x="106.0" y="1480.0" type="line"/>
    </contour>
    <contour>
      <point x="80.0" y="546.0" type="line"/>
      <point x="376.0" y="546.0" type="line"/>
      <point x="360.0" y="610.0" type="line"/>
      <point x="80.0" y="610.0" type="line"/>
    </contour>
    <contour>
      <point x="80.0" y="890.0" type="line"/>
      <point x="286.0" y="890.0" type="line"/>
      <point x="268.0" y="954.0" type="line"/>
      <point x="80.0" y="954.0" type="line"/>
    </contour>
    <contour>
      <point x="1490.0" y="546.0" type="line"/>
      <point x="1792.0" y="546.0" type="line"/>
      <point x="1792.0" y="610.0" type="line"/>
      <point x="1506.0" y="610.0" type="line"/>
    </contour>
    <contour>
      <point x="1576.0" y="890.0" type="line"/>
      <point x="1792.0" y="890.0" type="line"/>
      <point x="1792.0" y="954.0" type="line"/>
      <point x="1592.0" y="954.0" type="line"/>
    </contour>
  </outline>
</glyph>
<glyph name="cedi" format="2">
  <advance width="930.0"/>
  <unicode hex="20B5"/>
  <outline>
    <contour>
      <point x="634.0" y="-18.0" type="curve" smooth="yes"/>
      <point x="740.0" y="-18.0"/>
      <point x="834.0" y="4.0"/>
      <point x="912.0" y="32.0" type="curve"/>
      <point x="912.0" y="100.0" type="line"/>
      <point x="810.0" y="64.0"/>
      <point x="728.0" y="48.0"/>
      <point x="632.0" y="48.0" type="curve" smooth="yes"/>
      <point x="346.0" y="48.0"/>
      <point x="170.0" y="200.0"/>
      <point x="170.0" y="742.0" type="curve" smooth="yes"/>
      <point x="170.0" y="1270.0"/>
      <point x="338.0" y="1432.0"/>
      <point x="640.0" y="1432.0" type="curve" smooth="yes"/>
      <point x="730.0" y="1432.0"/>
      <point x="812.0" y="1424.0"/>
      <point x="912.0" y="1390.0" type="curve"/>
      <point x="912.0" y="1458.0" type="line"/>
      <point x="826.0" y="1484.0"/>
      <point x="734.0" y="1498.0"/>
      <point x="648.0" y="1498.0" type="curve" smooth="yes"/>
      <point x="300.0" y="1498.0"/>
      <point x="98.0" y="1304.0"/>
      <point x="98.0" y="738.0" type="curve" smooth="yes"/>
      <point x="98.0" y="164.0"/>
      <point x="306.0" y="-18.0"/>
    </contour>
    <contour>
      <point x="578.0" y="-240.0" type="line"/>
      <point x="642.0" y="-240.0" type="line"/>
      <point x="642.0" y="0.0" type="line"/>
      <point x="578.0" y="0.0" type="line"/>
    </contour>
    <contour>
      <point x="578.0" y="1480.0" type="line"/>
      <point x="642.0" y="1480.0" type="line"/>
      <point x="642.0" y="1720.0" type="line"/>
      <point x="578.0" y="1720.0" type="line"/>
    </contour>
  </outline>
</glyph>
<glyph name="liraTurkish" format="2">
  <advance width="1008.0"/>
  <unicode hex="20BA"/>
  <outline>
    <contour>
      <point x="700.0" y="-18.0" type="curve" smooth="yes"/>
      <point x="780.0" y="-18.0"/>
      <point x="900.0" y="-6.0"/>
      <point x="968.0" y="18.0" type="curve"/>
      <point x="968.0" y="86.0" type="line"/>
      <point x="882.0" y="58.0"/>
      <point x="782.0" y="48.0"/>
      <point x="698.0" y="48.0" type="curve" smooth="yes"/>
      <point x="460.0" y="48.0"/>
      <point x="356.0" y="128.0"/>
      <point x="356.0" y="304.0" type="curve" smooth="yes"/>
      <point x="356.0" y="1480.0" type="line"/>
      <point x="288.0" y="1480.0" type="line"/>
      <point x="288.0" y="298.0" type="line" smooth="yes"/>
      <point x="288.0" y="94.0"/>
      <point x="422.0" y="-18.0"/>
    </contour>
    <contour>
      <point x="80.0" y="542.0" type="line"/>
      <point x="828.0" y="928.0" type="line"/>
      <point x="828.0" y="996.0" type="line"/>
      <point x="80.0" y="610.0" type="line"/>
    </contour>
    <contour>
      <point x="80.0" y="886.0" type="line"/>
      <point x="828.0" y="1272.0" type="line"/>
      <point x="828.0" y="1340.0" type="line"/>
      <point x="80.0" y="954.0" type="line"/>
    </contour>
  </outline>
</glyph>
<glyph name="trademark" format="2">
  <advance width="1728.0"/>
  <unicode hex="2122"/>
  <outline>
    <contour>
      <point x="304.0" y="480.0" type="line"/>
      <point x="368.0" y="480.0" type="line"/>
      <point x="368.0" y="1416.0" type="line"/>
      <point x="664.0" y="1416.0" type="line"/>
      <point x="664.0" y="1480.0" type="line"/>
      <point x="8.0" y="1480.0" type="line"/>
      <point x="8.0" y="1416.0" type="line"/>
      <point x="304.0" y="1416.0" type="line"/>
    </contour>
    <contour>
      <point x="764.0" y="480.0" type="line"/>
      <point x="826.0" y="480.0" type="line"/>
      <point x="826.0" y="1416.0" type="line"/>
      <point x="798.0" y="1416.0" type="line"/>
      <point x="1136.0" y="616.0" type="line"/>
      <point x="1200.0" y="616.0" type="line"/>
      <point x="1536.0" y="1416.0" type="line"/>
      <point x="1512.0" y="1416.0" type="line"/>
      <point x="1512.0" y="480.0" type="line"/>
      <point x="1574.0" y="480.0" type="line"/>
      <point x="1574.0" y="1480.0" type="line"/>
      <point x="1500.0" y="1480.0" type="line"/>
      <point x="1160.0" y="664.0" type="line"/>
      <point x="1180.0" y="664.0" type="line"/>
      <point x="838.0" y="1480.0" type="line"/>
      <point x="764.0" y="1480.0" type="line"/>
    </contour>
  </outline>
</glyph>
<glyph name="Ohm" format="2">
  <advance width="1164.0"/>
  <unicode hex="2126"/>
  <outline>
    <contour>
      <point x="98.0" y="0.0" type="line"/>
      <point x="500.0" y="0.0" type="line"/>
      <point x="500.0" y="64.0" type="line"/>
      <point x="268.0" y="228.0"/>
      <point x="170.0" y="448.0"/>
      <point x="170.0" y="784.0" type="curve" smooth="yes"/>
      <point x="170.0" y="1274.0"/>
      <point x="334.0" y="1432.0"/>
      <point x="582.0" y="1432.0" type="curve" smooth="yes"/>
      <point x="830.0" y="1432.0"/>
      <point x="994.0" y="1274.0"/>
      <point x="994.0" y="784.0" type="curve" smooth="yes"/>
      <point x="994.0" y="448.0"/>
      <point x="896.0" y="228.0"/>
      <point x="664.0" y="64.0" type="curve"/>
      <point x="664.0" y="0.0" type="line"/>
      <point x="1066.0" y="0.0" type="line"/>
      <point x="1066.0" y="66.0" type="line"/>
      <point x="740.0" y="66.0" type="line"/>
      <point x="760.0" y="58.0" type="line"/>
      <point x="966.0" y="220.0"/>
      <point x="1066.0" y="458.0"/>
      <point x="1066.0" y="780.0" type="curve" smooth="yes"/>
      <point x="1066.0" y="1298.0"/>
      <point x="878.0" y="1498.0"/>
      <point x="582.0" y="1498.0" type="curve" smooth="yes"/>
      <point x="286.0" y="1498.0"/>
      <point x="98.0" y="1298.0"/>
      <point x="98.0" y="780.0" type="curve" smooth="yes"/>
      <point x="98.0" y="458.0"/>
      <point x="198.0" y="220.0"/>
      <point x="404.0" y="58.0" type="curve"/>
      <point x="424.0" y="66.0" type="line"/>
      <point x="98.0" y="66.0" type="line"/>
    </contour>
  </outline>
</glyph>
<glyph name="leftArrow" format="2">
  <advance width="1310.0"/>
  <unicode hex="2190"/>
  <outline>
    <contour>
      <point x="620.0" y="284.0" type="line"/>
      <point x="664.0" y="328.0" type="line"/>
      <point x="266.0" y="726.0" type="line"/>
      <point x="1166.0" y="726.0" type="line"/>
      <point x="1166.0" y="794.0" type="line"/>
      <point x="266.0" y="794.0" type="line"/>
      <point x="664.0" y="1192.0" type="line"/>
      <point x="620.0" y="1236.0" type="line"/>
      <point x="144.0" y="760.0" type="line"/>
    </contour>
  </outline>
</glyph>
<glyph name="rightArrow" format="2">
  <advance width="1310.0"/>
  <unicode hex="2192"/>
  <outline>
    <contour>
      <point x="690.0" y="284.0" type="line"/>
      <point x="1166.0" y="760.0" type="line"/>
      <point x="690.0" y="1236.0" type="line"/>
      <point x="646.0" y="1192.0" type="line"/>
      <point x="1044.0" y="794.0" type="line"/>
      <point x="144.0" y="794.0" type="line"/>
      <point x="144.0" y="726.0" type="line"/>
      <point x="1044.0" y="726.0" type="line"/>
      <point x="646.0" y="328.0" type="line"/>
    </contour>
  </outline>
</glyph>
<glyph name="downArrow" format="2">
  <advance width="1240.0"/>
  <unicode hex="2193"/>
  <outline>
    <contour>
      <point x="620.0" y="250.0" type="line"/>
      <point x="1096.0" y="726.0" type="line"/>
      <point x="1052.0" y="770.0" type="line"/>
      <point x="654.0" y="372.0" type="line"/>
      <point x="654.0" y="1272.0" type="line"/>
      <point x="586.0" y="1272.0" type="line"/>
      <point x="586.0" y="372.0" type="line"/>
      <point x="188.0" y="770.0" type="line"/>
      <point x="144.0" y="726.0" type="line"/>
    </contour>
  </outline>
</glyph>
<glyph name="partialdiff" format="2">
  <advance width="952.0"/>
  <unicode hex="2202"/>
  <outline>
    <contour>
      <point x="412.0" y="-18.0" type="curve" smooth="yes"/>
      <point x="646.0" y="-18.0"/>
      <point x="828.0" y="142.0"/>
      <point x="828.0" y="690.0" type="curve" smooth="yes"/>
      <point x="828.0" y="1282.0"/>
      <point x="646.0" y="1498.0"/>
      <point x="320.0" y="1498.0" type="curve" smooth="yes"/>
      <point x="248.0" y="1498.0"/>
      <point x="172.0" y="1486.0"/>
      <point x="110.0" y="1458.0" type="curve"/>
      <point x="110.0" y="1390.0" type="line"/>
      <point x="172.0" y="1418.0"/>
      <point x="246.0" y="1432.0"/>
      <point x="324.0" y="1432.0" type="curve" smooth="yes"/>
      <point x="602.0" y="1432.0"/>
      <point x="758.0" y="1248.0"/>
      <point x="758.0" y="704.0" type="curve" smooth="yes"/>
      <point x="758.0" y="692.0" type="line" smooth="yes"/>
      <point x="758.0" y="180.0"/>
      <point x="606.0" y="48.0"/>
      <point x="410.0" y="48.0" type="curve" smooth="yes"/>
      <point x="254.0" y="48.0"/>
      <point x="120.0" y="148.0"/>
      <point x="120.0" y="464.0" type="curve" smooth="yes"/>
      <point x="120.0" y="782.0"/>
      <point x="264.0" y="882.0"/>
      <point x="442.0" y="882.0" type="curve" smooth="yes"/>
      <point x="570.0" y="882.0"/>
      <point x="714.0" y="830.0"/>
      <point x="786.0" y="692.0" type="curve"/>
      <point x="786.0" y="784.0" type="line"/>
      <point x="720.0" y="886.0"/>
      <point x="586.0" y="948.0"/>
      <point x="438.0" y="948.0" type="curve" smooth="yes"/>
      <point x="224.0" y="948.0"/>
      <point x="50.0" y="814.0"/>
      <point x="50.0" y="468.0" type="curve" smooth="yes"/>
      <point x="50.0" y="116.0"/>
      <point x="214.0" y="-18.0"/>
    </contour>
  </outline>
</glyph>
<glyph name="product" format="2">
  <advance width="1160.0"/>
  <unicode hex="220F"/>
  <outline>
    <contour>
      <point x="164.0" y="-440.0" type="line"/>
      <point x="232.0" y="-440.0" type="line"/>
      <point x="232.0" y="1414.0" type="line"/>
      <point x="928.0" y="1414.0" type="line"/>
      <point x="928.0" y="-440.0" type="line"/>
      <point x="996.0" y="-440.0" type="line"/>
      <point x="996.0" y="1480.0" type="line"/>
      <point x="164.0" y="1480.0" type="line"/>
    </contour>
  </outline>
</glyph>
<glyph name="infinity" format="2">
  <advance width="1594.0"/>
  <unicode hex="221E"/>
  <outline>
    <contour>
      <point x="1184.0" y="436.0" type="curve" smooth="yes"/>
      <point x="1366.0" y="436.0"/>
      <point x="1506.0" y="562.0"/>
      <point x="1506.0" y="760.0" type="curve" smooth="yes"/>
      <point x="1506.0" y="958.0"/>
      <point x="1368.0" y="1084.0"/>
      <point x="1184.0" y="1084.0" type="curve" smooth="yes"/>
      <point x="812.0" y="1084.0"/>
      <point x="742.0" y="500.0"/>
      <point x="416.0" y="500.0" type="curve" smooth="yes"/>
      <point x="274.0" y="500.0"/>
      <point x="154.0" y="590.0"/>
      <point x="154.0" y="760.0" type="curve" smooth="yes"/>
      <point x="154.0" y="930.0"/>
      <point x="272.0" y="1020.0"/>
      <point x="416.0" y="1020.0" type="curve" smooth="yes"/>
      <point x="742.0" y="1020.0"/>
      <point x="812.0" y="436.0"/>
    </contour>
    <contour>
      <point x="410.0" y="436.0" type="curve" smooth="yes"/>
      <point x="782.0" y="436.0"/>
      <point x="852.0" y="1020.0"/>
      <point x="1178.0" y="1020.0" type="curve" smooth="yes"/>
      <point x="1322.0" y="1020.0"/>
      <point x="1440.0" y="930.0"/>
      <point x="1440.0" y="760.0" type="curve" smooth="yes"/>
      <point x="1440.0" y="590.0"/>
      <point x="1320.0" y="500.0"/>
      <point x="1178.0" y="500.0" type="curve" smooth="yes"/>
      <point x="852.0" y="500.0"/>
      <point x="782.0" y="1084.0"/>
      <point x="410.0" y="1084.0" type="curve" smooth="yes"/>
      <point x="226.0" y="1084.0"/>
      <point x="88.0" y="958.0"/>
      <point x="88.0" y="760.0" type="curve" smooth="yes"/>
      <point x="88.0" y="562.0"/>
      <point x="228.0" y="436.0"/>
    </contour>
  </outline>
</glyph>
<glyph name="notequal" format="2">
  <advance width="1016.0"/>
  <unicode hex="2260"/>
  <outline>
    <contour>
      <point x="200.0" y="408.0" type="line"/>
      <point x="860.0" y="1068.0" type="line"/>
      <point x="816.0" y="1112.0" type="line"/>
      <point x="156.0" y="452.0" type="line"/>
    </contour>
    <contour>
      <point x="144.0" y="546.0" type="line"/>
      <point x="872.0" y="546.0" type="line"/>
      <point x="872.0" y="610.0" type="line"/>
      <point x="144.0" y="610.0" type="line"/>
    </contour>
    <contour>
      <point x="144.0" y="910.0" type="line"/>
      <point x="872.0" y="910.0" type="line"/>
      <point x="872.0" y="974.0" type="line"/>
      <point x="144.0" y="974.0" type="line"/>
    </contour>
  </outline>
</glyph>
<glyph name="acutecomb_dotaccentcomb.case" format="2">
  <outline>
    <contour>
      <point x="360.0" y="1848.0" type="curve" smooth="yes"/>
      <point x="396.0" y="1848.0"/>
      <point x="422.0" y="1872.0"/>
      <point x="422.0" y="1910.0" type="curve" smooth="yes"/>
      <point x="422.0" y="1948.0"/>
      <point x="396.0" y="1974.0"/>
      <point x="360.0" y="1974.0" type="curve" smooth="yes"/>
      <point x="324.0" y="1974.0"/>
      <point x="298.0" y="1948.0"/>
      <point x="298.0" y="1910.0" type="curve" smooth="yes"/>
      <point x="298.0" y="1872.0"/>
      <point x="324.0" y="1848.0"/>
    </contour>
    <component base="acutecomb.case"/>
  </outline>
</glyph>
<glyph name="acutecomb_dotaccentcomb" format="2">
  <outline>
    <contour>
      <point x="360.0" y="1576.0" type="curve" smooth="yes"/>
      <point x="396.0" y="1576.0"/>
      <point x="422.0" y="1600.0"/>
      <point x="422.0" y="1638.0" type="curve" smooth="yes"/>
      <point x="422.0" y="1676.0"/>
      <point x="396.0" y="1702.0"/>
      <point x="360.0" y="1702.0" type="curve" smooth="yes"/>
      <point x="324.0" y="1702.0"/>
      <point x="298.0" y="1676.0"/>
      <point x="298.0" y="1638.0" type="curve" smooth="yes"/>
      <point x="298.0" y="1600.0"/>
      <point x="324.0" y="1576.0"/>
    </contour>
    <component base="acutecomb"/>
  </outline>
</glyph>
<glyph name="approxequal.osf" format="2">
  <advance width="1016.0"/>
  <outline>
    <contour>
      <point x="680.0" y="652.0" type="curve" smooth="yes"/>
      <point x="758.0" y="652.0"/>
      <point x="828.0" y="684.0"/>
      <point x="872.0" y="742.0" type="curve"/>
      <point x="872.0" y="822.0" type="line"/>
      <point x="818.0" y="750.0"/>
      <point x="754.0" y="714.0"/>
      <point x="678.0" y="714.0" type="curve" smooth="yes"/>
      <point x="574.0" y="714.0"/>
      <point x="468.0" y="830.0"/>
      <point x="336.0" y="830.0" type="curve" smooth="yes"/>
      <point x="258.0" y="830.0"/>
      <point x="188.0" y="798.0"/>
      <point x="144.0" y="740.0" type="curve"/>
      <point x="144.0" y="660.0" type="line"/>
      <point x="198.0" y="732.0"/>
      <point x="262.0" y="768.0"/>
      <point x="338.0" y="768.0" type="curve" smooth="yes"/>
      <point x="442.0" y="768.0"/>
      <point x="548.0" y="652.0"/>
    </contour>
    <contour>
      <point x="680.0" y="290.0" type="curve" smooth="yes"/>
      <point x="758.0" y="290.0"/>
      <point x="828.0" y="322.0"/>
      <point x="872.0" y="380.0" type="curve"/>
      <point x="872.0" y="460.0" type="line"/>
      <point x="818.0" y="388.0"/>
      <point x="754.0" y="352.0"/>
      <point x="678.0" y="352.0" type="curve" smooth="yes"/>
      <point x="574.0" y="352.0"/>
      <point x="468.0" y="468.0"/>
      <point x="336.0" y="468.0" type="curve" smooth="yes"/>
      <point x="258.0" y="468.0"/>
      <point x="188.0" y="436.0"/>
      <point x="144.0" y="378.0" type="curve"/>
      <point x="144.0" y="298.0" type="line"/>
      <point x="198.0" y="370.0"/>
      <point x="262.0" y="406.0"/>
      <point x="338.0" y="406.0" type="curve" smooth="yes"/>
      <point x="442.0" y="406.0"/>
      <point x="548.0" y="290.0"/>
    </contour>
  </outline>
</glyph>
<glyph name="asciicircum.osf" format="2">
  <advance width="1000.0"/>
  <outline>
    <contour>
      <point x="114.0" y="340.0" type="line"/>
      <point x="190.0" y="340.0" type="line"/>
      <point x="504.0" y="1038.0" type="line"/>
      <point x="496.0" y="1038.0" type="line"/>
      <point x="810.0" y="340.0" type="line"/>
      <point x="886.0" y="340.0" type="line"/>
      <point x="546.0" y="1080.0" type="line"/>
      <point x="452.0" y="1080.0" type="line"/>
    </contour>
  </outline>
</glyph>
<glyph name="asciitilde.osf" format="2">
  <advance width="1016.0"/>
  <outline>
    <contour>
      <point x="680.0" y="464.0" type="curve" smooth="yes"/>
      <point x="758.0" y="464.0"/>
      <point x="828.0" y="496.0"/>
      <point x="872.0" y="554.0" type="curve"/>
      <point x="872.0" y="636.0" type="line"/>
      <point x="818.0" y="564.0"/>
      <point x="754.0" y="528.0"/>
      <point x="678.0" y="528.0" type="curve" smooth="yes"/>
      <point x="574.0" y="528.0"/>
      <point x="468.0" y="644.0"/>
      <point x="336.0" y="644.0" type="curve" smooth="yes"/>
      <point x="258.0" y="644.0"/>
      <point x="188.0" y="612.0"/>
      <point x="144.0" y="554.0" type="curve"/>
      <point x="144.0" y="472.0" type="line"/>
      <point x="198.0" y="544.0"/>
      <point x="262.0" y="580.0"/>
      <point x="338.0" y="580.0" type="curve" smooth="yes"/>
      <point x="442.0" y="580.0"/>
      <point x="548.0" y="464.0"/>
    </contour>
  </outline>
</glyph>
<glyph name="asciitilde.tf" format="2">
  <advance width="1000.0"/>
  <outline>
    <contour>
      <point x="672.0" y="664.0" type="curve" smooth="yes"/>
      <point x="750.0" y="664.0"/>
      <point x="820.0" y="696.0"/>
      <point x="864.0" y="754.0" type="curve"/>
      <point x="864.0" y="836.0" type="line"/>
      <point x="810.0" y="764.0"/>
      <point x="746.0" y="728.0"/>
      <point x="670.0" y="728.0" type="curve" smooth="yes"/>
      <point x="566.0" y="728.0"/>
      <point x="460.0" y="844.0"/>
      <point x="328.0" y="844.0" type="curve" smooth="yes"/>
      <point x="250.0" y="844.0"/>
      <point x="180.0" y="812.0"/>
      <point x="136.0" y="754.0" type="curve"/>
      <point x="136.0" y="672.0" type="line"/>
      <point x="190.0" y="744.0"/>
      <point x="254.0" y="780.0"/>
      <point x="330.0" y="780.0" type="curve" smooth="yes"/>
      <point x="434.0" y="780.0"/>
      <point x="540.0" y="664.0"/>
    </contour>
  </outline>
</glyph>
<glyph name="bracketleft.sc" format="2">
  <advance width="506.0"/>
  <outline>
    <contour>
      <point x="184.0" y="-240.0" type="line"/>
      <point x="546.0" y="-240.0" type="line"/>
      <point x="546.0" y="-176.0" type="line"/>
      <point x="252.0" y="-176.0" type="line"/>
      <point x="252.0" y="1416.0" type="line"/>
      <point x="546.0" y="1416.0" type="line"/>
      <point x="546.0" y="1480.0" type="line"/>
      <point x="184.0" y="1480.0" type="line"/>
    </contour>
  </outline>
</glyph>
<glyph name="brevecomb.case" format="2">
  <anchor x="400.0" y="1520.0" name="_top"/>
  <anchor x="400.0" y="1788.0" name="top"/>
  <outline>
    <contour>
      <point x="402.0" y="1628.0" type="curve" smooth="yes"/>
      <point x="548.0" y="1628.0"/>
      <point x="632.0" y="1704.0"/>
      <point x="642.0" y="1860.0" type="curve"/>
      <point x="586.0" y="1860.0" type="line"/>
      <point x="576.0" y="1736.0"/>
      <point x="522.0" y="1686.0"/>
      <point x="402.0" y="1686.0" type="curve" smooth="yes"/>
      <point x="282.0" y="1686.0"/>
      <point x="228.0" y="1736.0"/>
      <point x="214.0" y="1860.0" type="curve"/>
      <point x="158.0" y="1860.0" type="line"/>
      <point x="168.0" y="1706.0"/>
      <point x="256.0" y="1628.0"/>
    </contour>
  </outline>
</glyph>
<glyph name="brevecomb_gravecomb" format="2">
  <anchor x="400.0" y="1200.0" name="_top"/>
  <outline>
    <contour>
      <point x="402.0" y="1276.0" type="curve" smooth="yes"/>
      <point x="532.0" y="1276.0"/>
      <point x="616.0" y="1374.0"/>
      <point x="622.0" y="1588.0" type="curve"/>
      <point x="566.0" y="1588.0" type="line"/>
      <point x="560.0" y="1404.0"/>
      <point x="502.0" y="1332.0"/>
      <point x="402.0" y="1332.0" type="curve" smooth="yes"/>
      <point x="302.0" y="1332.0"/>
      <point x="244.0" y="1404.0"/>
      <point x="234.0" y="1588.0" type="curve"/>
      <point x="178.0" y="1588.0" type="line"/>
      <point x="184.0" y="1376.0"/>
      <point x="272.0" y="1276.0"/>
    </contour>
    <contour>
      <point x="372.0" y="1596.0" type="line"/>
      <point x="428.0" y="1596.0" type="line"/>
      <point x="300.0" y="1868.0" type="line"/>
      <point x="228.0" y="1868.0" type="line"/>
    </contour>
  </outline>
</glyph>
<glyph name="breveinvertedcomb.sc" format="2">
  <anchor x="400.0" y="1520.0" name="_top"/>
  <anchor x="400.0" y="1848.0" name="top"/>
  <outline>
    <contour>
      <point x="158.0" y="1644.0" type="curve"/>
      <point x="214.0" y="1644.0" type="line"/>
      <point x="224.0" y="1768.0"/>
      <point x="278.0" y="1818.0"/>
      <point x="398.0" y="1818.0" type="curve" smooth="yes"/>
      <point x="518.0" y="1818.0"/>
      <point x="572.0" y="1768.0"/>
      <point x="586.0" y="1644.0" type="curve"/>
      <point x="642.0" y="1644.0" type="line"/>
      <point x="632.0" y="1798.0"/>
      <point x="544.0" y="1876.0"/>
      <point x="398.0" y="1876.0" type="curve" smooth="yes"/>
      <point x="252.0" y="1876.0"/>
      <point x="168.0" y="1800.0"/>
    </contour>
  </outline>
</glyph>
<glyph name="bulletoperator.osf" format="2">
  <advance width="360.0"/>
  <anchor x="180.0" y="560.0" name="_periodcentered"/>
  <outline>
    <contour>
      <point x="180.0" y="496.0" type="curve" smooth="yes"/>
      <point x="216.0" y="496.0"/>
      <point x="242.0" y="520.0"/>
      <point x="242.0" y="558.0" type="curve" smooth="yes"/>
      <point x="242.0" y="596.0"/>
      <point x="216.0" y="622.0"/>
      <point x="180.0" y="622.0" type="curve" smooth="yes"/>
      <point x="144.0" y="622.0"/>
      <point x="118.0" y="596.0"/>
      <point x="118.0" y="558.0" type="curve" smooth="yes"/>
      <point x="118.0" y="520.0"/>
      <point x="144.0" y="496.0"/>
    </contour>
  </outline>
</glyph>
<glyph name="bulletoperator.tosf" format="2">
  <advance width="1000.0"/>
  <anchor x="500.0" y="560.0" name="_periodcentered"/>
  <outline>
    <contour>
      <point x="500.0" y="496.0" type="curve" smooth="yes"/>
      <point x="536.0" y="496.0"/>
      <point x="562.0" y="520.0"/>
      <point x="562.0" y="558.0" type="curve" smooth="yes"/>
      <point x="562.0" y="596.0"/>
      <point x="536.0" y="622.0"/>
      <point x="500.0" y="622.0" type="curve" smooth="yes"/>
      <point x="464.0" y="622.0"/>
      <point x="438.0" y="596.0"/>
      <point x="438.0" y="558.0" type="curve" smooth="yes"/>
      <point x="438.0" y="520.0"/>
      <point x="464.0" y="496.0"/>
    </contour>
  </outline>
</glyph>
<glyph name="caroncomb.alt.case" format="2">
  <anchor x="400.0" y="1616.0" name="_caronalt"/>
  <outline>
    <contour>
      <point x="382.0" y="1140.0" type="curve"/>
      <point x="428.0" y="1140.0" type="line"/>
      <point x="456.0" y="1282.0"/>
      <point x="464.0" y="1446.0"/>
      <point x="464.0" y="1616.0" type="curve"/>
      <point x="400.0" y="1616.0" type="line"/>
      <point x="400.0" y="1452.0"/>
      <point x="398.0" y="1280.0"/>
    </contour>
  </outline>
</glyph>
<glyph name="caroncomb.alt" format="2">
  <anchor x="400.0" y="1616.0" name="_caronalt"/>
  <outline>
    <contour>
      <point x="382.0" y="1180.0" type="curve"/>
      <point x="428.0" y="1180.0" type="line"/>
      <point x="456.0" y="1322.0"/>
      <point x="464.0" y="1486.0"/>
      <point x="464.0" y="1616.0" type="curve"/>
      <point x="400.0" y="1616.0" type="line"/>
      <point x="400.0" y="1492.0"/>
      <point x="398.0" y="1320.0"/>
    </contour>
  </outline>
</glyph>
<glyph name="caroncomb_dotaccentcomb.case" format="2">
  <advance width="800.0"/>
  <outline>
    <contour>
      <point x="400.0" y="1888.0" type="curve" smooth="yes"/>
      <point x="436.0" y="1888.0"/>
      <point x="462.0" y="1912.0"/>
      <point x="462.0" y="1950.0" type="curve" smooth="yes"/>
      <point x="462.0" y="1988.0"/>
      <point x="436.0" y="2014.0"/>
      <point x="400.0" y="2014.0" type="curve" smooth="yes"/>
      <point x="364.0" y="2014.0"/>
      <point x="338.0" y="1988.0"/>
      <point x="338.0" y="1950.0" type="curve" smooth="yes"/>
      <point x="338.0" y="1912.0"/>
      <point x="364.0" y="1888.0"/>
    </contour>
    <component base="caroncomb.case"/>
  </outline>
</glyph>
<glyph name="caroncomb_dotaccentcomb" format="2">
  <advance width="800.0"/>
  <outline>
    <contour>
      <point x="400.0" y="1614.0" type="curve" smooth="yes"/>
      <point x="436.0" y="1614.0"/>
      <point x="462.0" y="1638.0"/>
      <point x="462.0" y="1676.0" type="curve" smooth="yes"/>
      <point x="462.0" y="1714.0"/>
      <point x="436.0" y="1740.0"/>
      <point x="400.0" y="1740.0" type="curve" smooth="yes"/>
      <point x="364.0" y="1740.0"/>
      <point x="338.0" y="1714.0"/>
      <point x="338.0" y="1676.0" type="curve" smooth="yes"/>
      <point x="338.0" y="1638.0"/>
      <point x="364.0" y="1614.0"/>
    </contour>
    <component base="caroncomb"/>
  </outline>
</glyph>
<glyph name="cent.tf" format="2">
  <advance width="1000.0"/>
  <outline>
    <contour>
      <point x="628.0" y="-18.0" type="curve" smooth="yes"/>
      <point x="724.0" y="-18.0"/>
      <point x="824.0" y="0.0"/>
      <point x="920.0" y="36.0" type="curve"/>
      <point x="920.0" y="104.0" type="line"/>
      <point x="808.0" y="64.0"/>
      <point x="716.0" y="48.0"/>
      <point x="634.0" y="48.0" type="curve" smooth="yes"/>
      <point x="366.0" y="48.0"/>
      <point x="220.0" y="192.0"/>
      <point x="220.0" y="544.0" type="curve" smooth="yes"/>
      <point x="220.0" y="888.0"/>
      <point x="366.0" y="1030.0"/>
      <point x="670.0" y="1030.0" type="curve" smooth="yes"/>
      <point x="762.0" y="1030.0"/>
      <point x="838.0" y="1016.0"/>
      <point x="920.0" y="992.0" type="curve"/>
      <point x="920.0" y="1060.0" type="line"/>
      <point x="838.0" y="1084.0"/>
      <point x="760.0" y="1096.0"/>
      <point x="672.0" y="1096.0" type="curve" smooth="yes"/>
      <point x="332.0" y="1096.0"/>
      <point x="148.0" y="922.0"/>
      <point x="148.0" y="540.0" type="curve" smooth="yes"/>
      <point x="148.0" y="156.0"/>
      <point x="322.0" y="-18.0"/>
    </contour>
    <contour>
      <point x="596.0" y="-240.0" type="line"/>
      <point x="660.0" y="-240.0" type="line"/>
      <point x="660.0" y="0.0" type="line"/>
      <point x="596.0" y="0.0" type="line"/>
    </contour>
    <contour>
      <point x="596.0" y="1080.0" type="line"/>
      <point x="660.0" y="1080.0" type="line"/>
      <point x="660.0" y="1300.0" type="line"/>
      <point x="596.0" y="1300.0" type="line"/>
    </contour>
  </outline>
</glyph>
<glyph name="circumflexcomb_acutecomb" format="2">
  <anchor x="400.0" y="1200.0" name="_top"/>
  <outline>
    <contour>
      <point x="186.0" y="1264.0" type="line"/>
      <point x="250.0" y="1264.0" type="line"/>
      <point x="408.0" y="1590.0" type="line"/>
      <point x="392.0" y="1590.0" type="line"/>
      <point x="550.0" y="1264.0" type="line"/>
      <point x="614.0" y="1264.0" type="line"/>
      <point x="438.0" y="1616.0" type="line"/>
      <point x="362.0" y="1616.0" type="line"/>
    </contour>
    <contour>
      <point x="578.0" y="1596.0" type="line"/>
      <point x="634.0" y="1596.0" type="line"/>
      <point x="778.0" y="1868.0" type="line"/>
      <point x="706.0" y="1868.0" type="line"/>
    </contour>
  </outline>
</glyph>
<glyph name="circumflexcomb_gravecomb.case" format="2">
  <anchor x="400.0" y="1520.0" name="_top"/>
  <outline>
    <contour>
      <point x="166.0" y="1616.0" type="line"/>
      <point x="236.0" y="1616.0" type="line"/>
      <point x="408.0" y="1858.0" type="line"/>
      <point x="392.0" y="1858.0" type="line"/>
      <point x="564.0" y="1616.0" type="line"/>
      <point x="634.0" y="1616.0" type="line"/>
      <point x="438.0" y="1888.0" type="line"/>
      <point x="362.0" y="1888.0" type="line"/>
    </contour>
    <contour>
      <point x="598.0" y="1792.0" type="line"/>
      <point x="654.0" y="1792.0" type="line"/>
      <point x="526.0" y="2064.0" type="line"/>
      <point x="454.0" y="2064.0" type="line"/>
    </contour>
  </outline>
</glyph>
<glyph name="circumflexcomb_gravecomb" format="2">
  <anchor x="400.0" y="1200.0" name="_top"/>
  <outline>
    <contour>
      <point x="186.0" y="1264.0" type="line"/>
      <point x="250.0" y="1264.0" type="line"/>
      <point x="408.0" y="1590.0" type="line"/>
      <point x="392.0" y="1590.0" type="line"/>
      <point x="550.0" y="1264.0" type="line"/>
      <point x="614.0" y="1264.0" type="line"/>
      <point x="438.0" y="1616.0" type="line"/>
      <point x="362.0" y="1616.0" type="line"/>
    </contour>
    <contour>
      <point x="578.0" y="1596.0" type="line"/>
      <point x="634.0" y="1596.0" type="line"/>
      <point x="506.0" y="1868.0" type="line"/>
      <point x="434.0" y="1868.0" type="line"/>
    </contour>
  </outline>
</glyph>
<glyph name="circumflexcomb_hookabovecomb.case" format="2">
  <anchor x="400.0" y="1520.0" name="_top"/>
  <outline>
    <contour>
      <point x="166.0" y="1616.0" type="line"/>
      <point x="236.0" y="1616.0" type="line"/>
      <point x="408.0" y="1858.0" type="line"/>
      <point x="392.0" y="1858.0" type="line"/>
      <point x="564.0" y="1616.0" type="line"/>
      <point x="634.0" y="1616.0" type="line"/>
      <point x="438.0" y="1888.0" type="line"/>
      <point x="362.0" y="1888.0" type="line"/>
    </contour>
    <contour>
      <point x="576.0" y="1792.0" type="curve"/>
      <point x="636.0" y="1792.0" type="line"/>
      <point x="644.0" y="1870.0"/>
      <point x="788.0" y="1852.0"/>
      <point x="788.0" y="1960.0" type="curve" smooth="yes"/>
      <point x="788.0" y="2018.0"/>
      <point x="732.0" y="2064.0"/>
      <point x="616.0" y="2064.0" type="curve" smooth="yes"/>
      <point x="552.0" y="2064.0"/>
      <point x="484.0" y="2050.0"/>
      <point x="438.0" y="2028.0" type="curve"/>
      <point x="438.0" y="1972.0" type="line"/>
      <point x="496.0" y="1998.0"/>
      <point x="560.0" y="2010.0"/>
      <point x="616.0" y="2010.0" type="curve" smooth="yes"/>
      <point x="706.0" y="2010.0"/>
      <point x="728.0" y="1988.0"/>
      <point x="728.0" y="1958.0" type="curve" smooth="yes"/>
      <point x="728.0" y="1884.0"/>
      <point x="582.0" y="1904.0"/>
    </contour>
  </outline>
</glyph>
<glyph name="circumflexcomb_hookabovecomb" format="2">
  <guideline x="612.0" y="1434.0" angle="90.0"/>
  <anchor x="400.0" y="1200.0" name="_top"/>
  <outline>
    <contour>
      <point x="186.0" y="1264.0" type="line"/>
      <point x="250.0" y="1264.0" type="line"/>
      <point x="408.0" y="1590.0" type="line"/>
      <point x="392.0" y="1590.0" type="line"/>
      <point x="550.0" y="1264.0" type="line"/>
      <point x="614.0" y="1264.0" type="line"/>
      <point x="438.0" y="1616.0" type="line"/>
      <point x="362.0" y="1616.0" type="line"/>
    </contour>
    <contour>
      <point x="554.0" y="1596.0" type="curve"/>
      <point x="614.0" y="1596.0" type="line"/>
      <point x="622.0" y="1674.0"/>
      <point x="766.0" y="1656.0"/>
      <point x="766.0" y="1764.0" type="curve" smooth="yes"/>
      <point x="766.0" y="1822.0"/>
      <point x="710.0" y="1868.0"/>
      <point x="594.0" y="1868.0" type="curve" smooth="yes"/>
      <point x="530.0" y="1868.0"/>
      <point x="462.0" y="1854.0"/>
      <point x="416.0" y="1832.0" type="curve"/>
      <point x="416.0" y="1776.0" type="line"/>
      <point x="474.0" y="1802.0"/>
      <point x="538.0" y="1814.0"/>
      <point x="594.0" y="1814.0" type="curve" smooth="yes"/>
      <point x="684.0" y="1814.0"/>
      <point x="706.0" y="1792.0"/>
      <point x="706.0" y="1762.0" type="curve" smooth="yes"/>
      <point x="706.0" y="1688.0"/>
      <point x="560.0" y="1708.0"/>
    </contour>
  </outline>
</glyph>
<glyph name="circumflexcomb_tildecomb.case" format="2">
  <anchor x="400.0" y="1520.0" name="_top"/>
  <outline>
    <contour>
      <point x="166.0" y="1616.0" type="line"/>
      <point x="236.0" y="1616.0" type="line"/>
      <point x="408.0" y="1858.0" type="line"/>
      <point x="392.0" y="1858.0" type="line"/>
      <point x="564.0" y="1616.0" type="line"/>
      <point x="634.0" y="1616.0" type="line"/>
      <point x="438.0" y="1888.0" type="line"/>
      <point x="362.0" y="1888.0" type="line"/>
    </contour>
    <contour>
      <point x="510.0" y="1934.0" type="curve" smooth="yes"/>
      <point x="562.0" y="1934.0"/>
      <point x="606.0" y="1958.0"/>
      <point x="634.0" y="1996.0" type="curve"/>
      <point x="634.0" y="2062.0" type="line"/>
      <point x="598.0" y="2014.0"/>
      <point x="560.0" y="1990.0"/>
      <point x="510.0" y="1990.0" type="curve" smooth="yes"/>
      <point x="444.0" y="1990.0"/>
      <point x="374.0" y="2068.0"/>
      <point x="290.0" y="2068.0" type="curve" smooth="yes"/>
      <point x="238.0" y="2068.0"/>
      <point x="194.0" y="2044.0"/>
      <point x="166.0" y="2006.0" type="curve"/>
      <point x="166.0" y="1940.0" type="line"/>
      <point x="202.0" y="1988.0"/>
      <point x="240.0" y="2012.0"/>
      <point x="290.0" y="2012.0" type="curve" smooth="yes"/>
      <point x="356.0" y="2012.0"/>
      <point x="426.0" y="1934.0"/>
    </contour>
  </outline>
</glyph>
<glyph name="colonsign.tf" format="2">
  <advance width="1000.0"/>
  <outline>
    <contour>
      <point x="672.0" y="-18.0" type="curve" smooth="yes"/>
      <point x="766.0" y="-18.0"/>
      <point x="862.0" y="0.0"/>
      <point x="950.0" y="32.0" type="curve"/>
      <point x="950.0" y="100.0" type="line"/>
      <point x="842.0" y="62.0"/>
      <point x="758.0" y="48.0"/>
      <point x="670.0" y="48.0" type="curve" smooth="yes"/>
      <point x="378.0" y="48.0"/>
      <point x="208.0" y="208.0"/>
      <point x="208.0" y="742.0" type="curve" smooth="yes"/>
      <point x="208.0" y="1272.0"/>
      <point x="378.0" y="1432.0"/>
      <point x="678.0" y="1432.0" type="curve" smooth="yes"/>
      <point x="758.0" y="1432.0"/>
      <point x="842.0" y="1426.0"/>
      <point x="950.0" y="1390.0" type="curve"/>
      <point x="950.0" y="1458.0" type="line"/>
      <point x="858.0" y="1486.0"/>
      <point x="766.0" y="1498.0"/>
      <point x="686.0" y="1498.0" type="curve" smooth="yes"/>
      <point x="332.0" y="1498.0"/>
      <point x="136.0" y="1298.0"/>
      <point x="136.0" y="738.0" type="curve" smooth="yes"/>
      <point x="136.0" y="180.0"/>
      <point x="332.0" y="-18.0"/>
    </contour>
    <contour>
      <point x="156.0" y="-240.0" type="line"/>
      <point x="220.0" y="-240.0" type="line"/>
      <point x="320.0" y="144.0" type="line"/>
      <point x="274.0" y="214.0" type="line"/>
    </contour>
    <contour>
      <point x="376.0" y="-240.0" type="line"/>
      <point x="440.0" y="-240.0" type="line"/>
      <point x="512.0" y="36.0" type="line"/>
      <point x="452.0" y="52.0" type="line"/>
    </contour>
    <contour>
      <point x="596.0" y="1452.0" type="line"/>
      <point x="660.0" y="1452.0" type="line"/>
      <point x="730.0" y="1720.0" type="line"/>
      <point x="666.0" y="1720.0" type="line"/>
    </contour>
    <contour>
      <point x="816.0" y="1452.0" type="line"/>
      <point x="880.0" y="1452.0" type="line"/>
      <point x="950.0" y="1720.0" type="line"/>
      <point x="886.0" y="1720.0" type="line"/>
    </contour>
  </outline>
</glyph>
<glyph name="degree.tf" format="2">
  <advance width="1000.0"/>
  <outline>
    <contour>
      <point x="500.0" y="852.0" type="curve" smooth="yes"/>
      <point x="688.0" y="852.0"/>
      <point x="822.0" y="988.0"/>
      <point x="822.0" y="1174.0" type="curve" smooth="yes"/>
      <point x="822.0" y="1360.0"/>
      <point x="688.0" y="1496.0"/>
      <point x="500.0" y="1496.0" type="curve" smooth="yes"/>
      <point x="312.0" y="1496.0"/>
      <point x="178.0" y="1360.0"/>
      <point x="178.0" y="1174.0" type="curve" smooth="yes"/>
      <point x="178.0" y="988.0"/>
      <point x="312.0" y="852.0"/>
    </contour>
    <contour>
      <point x="500.0" y="916.0" type="curve" smooth="yes"/>
      <point x="352.0" y="916.0"/>
      <point x="246.0" y="1016.0"/>
      <point x="246.0" y="1174.0" type="curve" smooth="yes"/>
      <point x="246.0" y="1332.0"/>
      <point x="352.0" y="1432.0"/>
      <point x="500.0" y="1432.0" type="curve" smooth="yes"/>
      <point x="648.0" y="1432.0"/>
      <point x="754.0" y="1332.0"/>
      <point x="754.0" y="1174.0" type="curve" smooth="yes"/>
      <point x="754.0" y="1016.0"/>
      <point x="648.0" y="916.0"/>
    </contour>
  </outline>
</glyph>
